<svg width="539" height="73" viewBox="0 0 539 73" fill="none" xmlns="http://www.w3.org/2000/svg">
<path d="M377.28 0C383.657 3.18764e-05 389.389 1.42677 394.477 4.28125C399.564 7.13576 403.57 11.3025 406.493 16.7812C409.44 22.26 410.913 28.7747 410.913 36.3252C410.913 43.8758 409.44 50.3913 406.493 55.8701C403.57 61.3488 399.564 65.5156 394.477 68.3701C390.036 70.8619 385.103 72.2646 379.68 72.5811C379.116 72.6139 378.647 72.1598 378.647 71.5947V58.8994C378.647 58.3731 379.056 57.9393 379.579 57.8779C382.069 57.5853 384.272 56.8017 386.188 55.5244C388.675 53.8439 390.586 51.3806 391.921 48.1348C393.256 44.8889 393.924 40.9522 393.924 36.3252C393.924 31.6982 393.256 27.7614 391.921 24.5156C390.586 21.27 388.675 18.8185 386.188 17.1611C383.702 15.4808 380.733 14.6407 377.28 14.6406C373.827 14.6406 370.857 15.4807 368.371 17.1611C365.885 18.8185 363.975 21.2701 362.64 24.5156C361.328 27.7614 360.671 31.6982 360.671 36.3252C360.671 40.9523 361.327 44.8889 362.64 48.1348C363.975 51.3805 365.885 53.8439 368.371 55.5244C370.464 56.9198 372.9 57.7276 375.679 57.9482C376.217 57.9912 376.647 58.4312 376.647 58.9717V71.6318C376.647 72.1897 376.19 72.6409 375.633 72.6191C369.891 72.3934 364.697 70.9773 360.05 68.3701C354.962 65.4926 350.957 61.3138 348.033 55.835C345.11 50.3561 343.647 43.8528 343.647 36.3252C343.647 28.7517 345.098 22.237 347.998 16.7812C350.922 11.3025 354.927 7.13576 360.015 4.28125C365.125 1.42674 370.881 0 377.28 0Z" fill="#222222"/>
<path d="M474.76 0.966797C475.312 0.966797 475.76 1.41451 475.76 1.9668V46.6152C475.76 51.8178 474.516 56.3878 472.03 60.3242C469.544 64.2375 466.045 67.2644 461.533 69.4053C457.482 71.3376 452.858 72.3951 447.662 72.583C447.105 72.6032 446.647 72.1516 446.647 71.5938V59.0264C446.647 58.4895 447.072 58.0518 447.606 57.999C449.519 57.8107 451.25 57.2854 452.797 56.4219C454.799 55.3169 456.342 53.7978 457.424 51.8643C458.529 49.9077 459.081 47.6862 459.081 45.2002V1.9668C459.081 1.41451 459.529 0.966797 460.081 0.966797H474.76Z" fill="#222222"/>
<path d="M431.804 0.966797C432.356 0.966797 432.804 1.41451 432.804 1.9668V45.2002C432.804 47.6862 433.356 49.9077 434.461 51.8643C435.566 53.7978 437.108 55.3169 439.088 56.4219C440.492 57.1968 442.039 57.6995 443.727 57.9307C444.244 58.0015 444.647 58.4317 444.647 58.9541V71.5684C444.647 72.1314 444.182 72.5848 443.62 72.5566C438.659 72.3085 434.225 71.2594 430.317 69.4053C425.828 67.2644 422.341 64.2376 419.854 60.3242C417.391 56.3878 416.16 51.8178 416.16 46.6152V1.9668C416.16 1.41451 416.608 0.966797 417.16 0.966797H431.804Z" fill="#222222"/>
<path d="M25.9316 0.966797C33.0679 0.966797 39.249 2.38241 44.4746 5.21387C49.7231 8.02228 53.7521 12.0848 56.5605 17.4023C59.369 22.697 60.7734 28.9936 60.7734 36.291C60.7734 43.5884 59.369 49.8962 56.5605 55.2139C53.7521 60.5314 49.7231 64.6061 44.4746 67.4375C39.2491 70.2689 33.0678 71.6846 25.9316 71.6846H19.6475C19.0952 71.6846 18.6475 71.2369 18.6475 70.6846V58.458C18.6475 57.9057 19.0952 57.458 19.6475 57.458H25.2764C29.4429 57.458 32.9076 56.7558 35.6699 55.3516C38.4322 53.9243 40.5269 51.6565 41.9541 48.5488C43.3813 45.4181 44.0947 41.3323 44.0947 36.291C44.0947 31.2497 43.3701 27.1751 41.9199 24.0674C40.4927 20.9596 38.386 18.7031 35.6006 17.2988C32.8152 15.8946 29.304 15.1924 25.0684 15.1924H17.6436C17.0913 15.1924 16.6436 15.6401 16.6436 16.1924V57.4561L16.6475 57.46V70.6846C16.6475 71.2369 16.1997 71.6846 15.6475 71.6846H1C0.447715 71.6846 1.97056e-09 71.2369 0 70.6846V1.9668C3.22316e-07 1.41451 0.447715 0.966797 1 0.966797H25.9316Z" fill="#222222"/>
<path d="M113.604 0.966797C114.156 0.966797 114.604 1.41451 114.604 1.9668V13.5713C114.604 14.1236 114.156 14.5713 113.604 14.5713H83.249C82.6967 14.5713 82.249 15.019 82.249 15.5713V28.5225C82.249 29.0747 82.6967 29.5225 83.249 29.5225H111.049C111.601 29.5225 112.049 29.9702 112.049 30.5225V42.0938C112.049 42.646 111.601 43.0938 111.049 43.0938H83.249C82.6967 43.0938 82.249 43.5415 82.249 44.0938V53.6846L82.248 53.6855V70.6846C82.248 71.2369 81.8003 71.6846 81.248 71.6846H66.6055C66.0532 71.6846 65.6055 71.2369 65.6055 70.6846V1.9668C65.6055 1.41451 66.0532 0.966797 66.6055 0.966797H113.604Z" fill="#222222"/>
<path d="M113.604 58.0791C114.156 58.0791 114.604 58.5268 114.604 59.0791V70.6846C114.604 71.2369 114.156 71.6846 113.604 71.6846H85.248C84.6958 71.6846 84.248 71.2369 84.248 70.6846V59.0791C84.248 58.5268 84.6958 58.0791 85.248 58.0791H113.604Z" fill="#222222"/>
<path d="M221.331 0.966797C226.602 0.966832 231.172 1.92149 235.039 3.83203C238.906 5.71969 241.876 8.43633 243.948 11.9814C246.02 15.5035 247.056 19.6591 247.056 24.4473C247.056 29.2584 245.997 33.3908 243.879 36.8438C241.938 39.9876 239.222 42.4451 235.733 44.2158C235.215 44.4791 235.001 45.1168 235.279 45.627L248.7 70.2051C249.064 70.8715 248.582 71.6846 247.822 71.6846H231.841C231.472 71.6844 231.133 71.4809 230.959 71.1553L218.54 47.8701C218.366 47.5445 218.027 47.341 217.658 47.3408H212.048C211.496 47.3408 211.048 46.8931 211.048 46.3408V35.1152C211.048 34.5629 211.496 34.1152 212.048 34.1152H217.809C221.768 34.1152 224.749 33.3208 226.752 31.7324C228.778 30.1441 229.791 27.7159 229.791 24.4473C229.791 21.1323 228.778 18.6457 226.752 16.9883C224.726 15.3079 221.745 14.4678 217.809 14.4678H210.038C209.486 14.4678 209.038 14.9155 209.038 15.4678V34.1104L209.048 34.1201V47.3359L209.038 47.3457V70.6846C209.038 71.2369 208.59 71.6846 208.038 71.6846H193.395C192.842 71.6846 192.395 71.2369 192.395 70.6846V1.9668C192.395 1.41451 192.842 0.966797 193.395 0.966797H221.331Z" fill="#222222"/>
<path d="M292.269 0.966797C292.821 0.966797 293.269 1.41451 293.269 1.9668V29.5176C293.269 29.52 293.271 29.5225 293.273 29.5225C293.276 29.5227 293.277 29.5251 293.277 29.5273V43.0889C293.277 43.0911 293.276 43.0935 293.273 43.0938C293.271 43.0938 293.269 43.0955 293.269 43.0977V70.6846C293.269 71.2369 292.821 71.6846 292.269 71.6846H277.625C277.073 71.6846 276.625 71.2369 276.625 70.6846V1.9668C276.625 1.41451 277.073 0.966797 277.625 0.966797H292.269Z" fill="#222222"/>
<path d="M337.296 0.966797C337.848 0.966797 338.296 1.41451 338.296 1.9668V70.6846C338.296 71.2369 337.848 71.6846 337.296 71.6846H322.618C322.066 71.6846 321.618 71.2369 321.618 70.6846V44.0938C321.618 43.5415 321.17 43.0938 320.618 43.0938H296.277C295.725 43.0938 295.277 42.646 295.277 42.0938V30.5225C295.277 29.9702 295.725 29.5225 296.277 29.5225H320.618C321.17 29.5225 321.618 29.0747 321.618 28.5225V1.9668C321.618 1.41451 322.066 0.966797 322.618 0.966797H337.296Z" fill="#222222"/>
<path d="M511.409 0.966797C516.681 0.966834 521.25 1.92149 525.117 3.83203C528.985 5.71969 531.955 8.43632 534.026 11.9814C536.098 15.5035 537.134 19.6591 537.134 24.4473C537.134 29.2584 536.075 33.3908 533.957 36.8438C532.016 39.9876 529.3 42.4451 525.812 44.2158C525.293 44.4791 525.079 45.1168 525.357 45.627L538.778 70.2051C539.142 70.8715 538.66 71.6846 537.9 71.6846H521.919C521.55 71.6844 521.211 71.4809 521.037 71.1553L508.618 47.8701C508.444 47.5445 508.105 47.341 507.736 47.3408H502.117C501.565 47.3408 501.117 46.8931 501.117 46.3408V35.1152C501.117 34.5629 501.565 34.1152 502.117 34.1152H507.887C511.846 34.1152 514.827 33.3208 516.83 31.7324C518.856 30.1441 519.869 27.7159 519.869 24.4473C519.869 21.1323 518.856 18.6457 516.83 16.9883C514.804 15.3079 511.823 14.4678 507.887 14.4678H500.116C499.564 14.4678 499.116 14.9155 499.116 15.4678V34.1143L499.117 34.1152V47.3408L499.116 47.3418V70.6846C499.116 71.2369 498.668 71.6846 498.116 71.6846H483.473C482.92 71.6846 482.473 71.2369 482.473 70.6846V1.9668C482.473 1.41451 482.92 0.966797 483.473 0.966797H511.409Z" fill="#222222"/>
<path d="M164.241 0.96582C164.67 0.965853 165.051 1.23876 165.188 1.64453L188.476 70.3623C188.695 71.0107 188.213 71.6835 187.528 71.6836H171.77C171.333 71.6836 170.947 71.4004 170.815 70.9844L166.491 57.293C166.36 56.8771 165.974 56.5939 165.538 56.5938H145.059C144.383 56.5938 143.901 55.9374 144.104 55.293L147.491 44.5518C147.622 44.1355 148.009 43.8525 148.445 43.8525H160.864C161.541 43.8525 162.022 43.1954 161.817 42.5508L154.268 18.7354C154.218 18.5791 154.073 18.4727 153.909 18.4727C153.745 18.4727 153.599 18.5796 153.55 18.7363L146.621 40.6826L146.613 40.6865L141.601 56.5859L141.579 56.6016L137.037 70.9844C136.906 71.4003 136.52 71.6834 136.084 71.6836H120.324C119.64 71.6834 119.157 71.0106 119.377 70.3623L142.663 1.64453C142.801 1.23879 143.182 0.965947 143.61 0.96582H164.241Z" fill="#222222"/>
</svg>
