<svg width="250" height="250" viewBox="0 0 250 250" fill="none" xmlns="http://www.w3.org/2000/svg">
<path d="M105.047 8.48171C106.464 6.21486 107.896 4.4537 110.083 2.87485C116.558 -1.79408 125.974 -1.05905 129.061 7.17333C131.199 5.15639 133.186 3.53932 136.139 2.86897C144.133 1.05196 148.825 4.94471 152.23 11.4395C163.37 5.19462 177.412 11.9481 178.446 24.7641C190.799 24.0409 199.258 31.7323 195.532 44.5659C199.719 46.2389 203.933 47.6207 205.699 52.2073C207.744 57.5172 205.986 64.4324 203.707 69.3718C199.528 78.4333 193.329 84.1872 184.088 87.6742C180.605 88.9943 176.98 89.9028 173.287 90.385C166.637 91.2611 146.277 91.3082 140.489 88.3592C138.689 88.2886 133.531 87.4184 131.636 87.1244C130.334 86.4775 130.043 86.3835 128.623 86.06C123.611 83.5551 119.673 79.9651 115.771 76.0107C111.611 74.5318 102.362 63.5269 99.8891 59.8958C97.6513 56.5676 95.6611 53.0776 93.9341 49.4554C89.7582 40.7379 88.0765 32.5232 88.4808 22.7943C88.7392 16.5729 90.388 7.1057 98.4175 6.62058C100.96 6.46769 102.902 7.25861 105.047 8.48171Z" fill="#F0CAFD"/>
<path d="M115.772 76.0107L115.639 75.7843C114.815 74.4024 113.864 73.0676 112.941 71.7475C107.316 63.7327 103.391 53.9567 103.544 44.0602C103.645 37.5949 106.136 29.6536 111.881 26.0843C117.863 22.368 124.501 24.2202 127.568 30.5474C129.076 33.661 129.535 36.213 130.225 39.5471C141.179 20.7538 160.439 30.3122 156.735 48.8586C161.526 45.9978 166.519 43.9426 172.242 45.4333C175.239 46.2124 177.789 48.1823 179.3 50.8873C181.864 55.4209 181.332 60.9954 179.976 65.7673C175.853 80.2856 161.476 87.0391 147.402 87.88C145.27 88.0064 142.564 88.074 140.489 88.3592C138.69 88.2887 133.531 87.4184 131.636 87.1244C130.335 86.4776 130.043 86.3835 128.623 86.0601C123.611 83.5551 119.673 79.9652 115.772 76.0107Z" fill="#C199E6"/>
<path d="M76.3088 89.0588C80.1809 80.8264 82.8171 77.3189 91.8512 73.9142C94.7511 72.8204 98.857 71.6385 101.951 71.4092C99.7637 78.7036 94.4262 85.7688 87.7015 89.3616C84.6076 90.9787 81.1765 91.8431 77.6862 91.8843C79.6123 96.8854 83.3901 105.95 85.8134 110.66C89.0893 103.033 93.1766 97.0854 101.105 93.2632C102.212 92.7281 104.785 92.0813 106.033 92.1783C108.14 94.4804 99.8731 106.805 97.0614 108.728C93.2322 111.345 91.8489 112.23 87.2925 113.359C90.0842 118.886 93.2848 123.744 95.838 128.759C96.6513 121.221 101.859 114.215 107.362 109.052C108.174 108.29 109.073 107.973 110.19 108.023C110.636 108.352 110.872 108.393 110.866 109.061C110.752 120.642 107.117 125.525 98.2586 131.999C101.338 135.919 104.584 139.703 107.987 143.345C113.03 123.638 119.94 104.456 128.623 86.0599C130.043 86.3833 130.334 86.4774 131.636 87.1242C129.52 92.6164 127.688 98.2555 125.602 103.645C137.612 98.2585 148.48 97.1824 161.33 101.551C162.192 101.845 163.048 102.231 163.698 102.869C163.592 103.536 163.573 103.651 162.894 104.042C150.963 110.889 137.192 112.271 124.305 107.614C121.68 115.164 119.547 122.844 117.012 130.321C124.593 124.529 140.93 118.298 150.477 120.201C152.349 120.571 156.756 121.068 158.143 122.371C157.608 124.323 149.513 129.803 147.332 131.064C140.39 135.078 131.181 137.733 123.199 135.751C121.258 135.269 118.233 133.846 116.33 132.984C113.316 143.842 112.585 149.349 110.663 160.336C112.643 158.105 114.936 155.409 117.279 153.606C125.552 147.241 138.746 142.602 149.25 143.284C143.543 152.328 131.41 162.553 120.707 164.805C116.515 165.69 114.223 165.59 110.024 165.423C108.814 176.316 108.222 187.271 108.251 198.229C114.622 198.735 118.522 198.899 124.947 197.576C123.785 193.242 122.286 187.712 123.29 183.267C123.952 180.338 127.076 170.156 129.429 168.851C129.794 168.986 130.139 169.03 130.3 169.613C131.83 175.149 132.392 185.563 130.254 190.94C129.536 192.748 128.039 195.471 127.219 197.018C140.809 192.875 143.365 190.873 153.812 181.823C147.362 172.947 144.745 169.248 146.741 157.684C146.998 156.191 147.426 152.566 148.525 151.587C149.639 151.754 150.542 152.404 151.09 153.354C155.378 160.807 157.578 169.221 155.993 177.542C155.833 178.409 155.648 179.271 155.44 180.126C159.611 175.719 166.791 167.146 170.094 161.918C164.037 153.515 163.019 146.141 164.216 135.751C164.326 134.79 164.598 133.634 165.411 133.058C166.834 133.061 167.526 133.602 168.473 134.649C174.339 141.146 174.639 148.976 173.277 157.076C176.147 152.36 181.03 144.075 183.429 139.056L184.001 139.491C183.502 142.405 181.305 147.312 180.066 150.193C183.077 147.817 185.426 145.786 189.393 145.324C192.735 144.936 202.011 144.301 204.322 147.056C205.032 150.913 193.686 155.235 190.364 155.659C186.392 156.164 182.344 154.356 178.813 152.771C174.711 160.666 172.274 164.776 166.942 171.891C176.493 172.003 183.022 172.464 190.544 179.662C191.258 180.347 191.809 181.12 191.927 182.114C188.329 187.35 171.125 180.767 166.827 177.804C165.948 177.195 165.049 176.043 164.397 175.193C159.123 181.544 155.301 185.663 148.616 190.861C156.752 191.026 160.896 194.086 166.521 199.884C171.767 205.291 180.674 216.269 165.183 211.98C155.14 209.196 150.633 201.578 145.928 192.845C139.935 196.215 135.945 197.826 129.148 199.493C135.851 202.771 138.955 206.438 141.661 213.538C142.236 215.046 143.278 219.001 143.04 220.503C140.781 223.252 133.679 218.151 131.785 216.087C127.72 211.656 125.818 206.197 124.701 200.387C118.947 201.26 113.899 200.778 108.22 199.687C108.324 211.339 108.264 228.318 111.689 239.261C111.725 236.274 111.685 231.976 112.062 229.124C112.921 222.611 117.661 211.459 122.444 206.896C122.759 206.599 123.084 206.311 123.418 206.032C127.577 222.253 128.031 233.261 112.798 242.804L114.875 249.199C111.292 244.471 110.822 243.066 108.249 237.788C105.181 236.718 102.774 235.727 100.002 234.007C95.2791 241.552 90.8933 247.156 81.5266 249.816C80.4094 250.134 79.9152 250.04 79.0272 249.531C78.6191 248.296 79.3207 246.938 79.9146 245.774C83.2381 239.247 87.5569 234.569 94.6831 232.352C95.22 232.182 95.7639 232.037 96.3129 231.911C93.9375 230.059 92.0461 228.571 89.9116 226.434C80.6781 231.396 66.4626 228.556 59.2737 221.077C65.1172 216.972 72.9632 215.764 79.9307 216.969C81.0815 217.163 82.2232 217.404 83.3522 217.701C80.9186 213.926 80.3506 211.698 78.9299 207.473L79.7423 207.076C83.0696 213.794 85.2991 216.969 89.6405 222.838C89.5611 222.164 89.5056 221.491 89.4732 220.812C89.0772 211.933 91.5443 204.471 97.6447 197.844C99.6258 202.771 100.134 206.646 99.3362 211.953C98.3651 218.407 96.1459 220.739 91.2094 224.423C97.3184 230.241 100.907 232.399 107.983 236.786C103.097 219.707 103.137 200.284 103.182 182.576C99.0619 181.876 93.9214 181.973 89.6511 181.144C84.557 180.159 74.9857 173.544 71.3902 169.56C70.9122 169.03 71.0604 168.731 71.1568 168.257C72.2041 167.866 72.2102 168.022 73.2834 167.946C84.2007 167.16 95.4987 172.514 103.377 180.088C103.587 173.914 104.12 167.757 104.971 161.639C96.7718 160.772 86.8671 159.648 79.2575 156.438C73.3713 153.956 66.4987 147.729 64.1872 141.652C80.1465 139.706 95.0148 146.412 105.502 158.29C105.588 155 106.869 148.967 107.503 145.589C103.357 142.413 97.9952 136.992 94.8384 132.776C85.3588 139.144 73.483 137.533 64.9075 130.421C68.5798 127.951 72.2708 126.031 76.5746 124.925C82.8374 123.32 86.2109 124.846 91.4337 127.904C88.5197 123.194 85.796 118.366 83.2693 113.433C73.8641 119.26 62.7077 115.003 55.4947 107.779C65.6984 103.871 72.3928 103.936 81.5411 109.995C79.4659 104.318 77.0515 98.5172 74.9184 92.7663C70.4629 93.8806 67.8444 95.1096 63.0882 95.0361C53.8932 94.895 49.002 91.899 44 84.5339C45.3565 84.3281 46.7154 84.1341 48.0764 83.9606C59.5227 82.4523 65.0998 84.0812 74.2307 91.0787C72.89 86.8272 72.028 83.2432 71.1424 78.9183L72.0271 78.6596C73.5071 82.1025 74.9346 85.5718 76.3088 89.0588Z" fill="#8EC6F2"/>
<path d="M60.3719 62.0334C61.2728 56.3825 63.9009 51.2372 71.049 53.8981C73.7986 54.9212 74.8077 57.5497 75.7256 60.1429C85.1458 47.4357 94.0832 71.0684 77.4397 76.7076C75.3851 77.5632 74.1547 78.0424 72.0272 78.6599L71.1425 78.9186C69.446 79.0891 68.0165 79.0391 66.3245 79.0097C57.2071 79.8712 47.1529 70.9391 52.8998 61.4748C54.6557 58.5817 58.1836 60.0047 60.3719 62.0334Z" fill="#F0CAFD"/>
<path d="M66.3247 79.0096C62.1142 76.4958 56.8898 72.1179 61.7378 67.3873C62.7357 67.005 64.0388 67.402 65.1448 67.6019C66.2465 65.8202 65.1428 62.5272 68.1988 61.8745C71.2847 61.2159 72.0965 62.9594 74.1123 64.7088C74.5941 65.1263 76.2042 62.88 77.0815 62.9947C79.6282 62.9124 81.2853 64.0061 81.4776 66.5875C81.8054 70.9918 80.0981 73.538 77.4399 76.7075C75.3853 77.563 74.1549 78.0423 72.0274 78.6597L71.1427 78.9185C69.4463 79.089 68.0168 79.039 66.3247 79.0096Z" fill="#C199E6"/>
<path d="M73.7651 207.502C67.5547 208.605 58.652 199.617 60.4172 193.407C60.7701 192.167 61.1855 191.373 62.3307 190.744C64.2709 189.673 64.9474 190.923 66.6871 191.482C67.7161 188.933 66.8191 183.961 69.8948 182.885C74.9853 181.106 76.9672 184.999 78.5123 188.624C79.8098 186.874 81.2466 184.71 83.8404 185.157C88.3879 185.939 89.4569 192.772 88.6848 196.474C88.0139 199.69 86.4033 202.395 83.6284 204.227C82.1625 205.58 81.5835 206.15 79.7421 207.076L78.9298 207.473C76.795 207.641 75.8967 207.749 73.7651 207.502Z" fill="#F0CAFD"/>
<path d="M73.7654 207.502C70.8109 205.832 66.1949 201.828 69.0318 198.211C69.873 197.726 69.9312 197.77 70.8676 197.838C71.0334 197.85 71.9622 197.9 71.9663 197.882C72.2642 196.659 72.2412 194.113 73.5443 193.481C76.0837 192.249 77.5035 194.001 78.4949 195.9L78.6643 196.233H79.1076C80.4201 194.689 82.4326 193.263 83.8448 195.983C85.1846 198.567 84.4775 201.56 83.6287 204.227C82.1627 205.579 81.5838 206.15 79.7424 207.076L78.93 207.473C76.7952 207.64 75.897 207.749 73.7654 207.502Z" fill="#C199E6"/>
<path d="M180.167 136.56C177.644 134.954 176.678 133.549 175.716 130.206C174.458 125.834 176.547 113.421 183.476 116.902C184.761 117.546 185.344 119.616 185.901 121C187.03 119.583 187.902 119.057 189.527 118.287C194.634 115.867 196.145 122.597 196.772 125.972C203.178 124.099 207.076 127.595 203.477 133.772C200.869 138.253 193.845 141.543 188.529 140.42C186.853 140.264 185.62 139.903 184.001 139.491L183.43 139.056C181.84 138.077 181.518 137.871 180.167 136.56Z" fill="#F0CAFD"/>
<path d="M180.167 136.56C179.31 133.946 178.501 128.121 181.482 126.634C183.713 126.419 183.622 127.381 185.022 128.727C186.833 128.404 186.892 126.043 189.677 127.654C190.608 128.192 190.904 130.012 191.132 131.05L191.52 131.347L191.844 131.217C192.939 130.791 193.092 130.65 194.194 130.8C195.971 131.685 196.724 133.522 195.721 135.304C194.174 138.053 191.331 139.462 188.529 140.42C186.852 140.264 185.62 139.903 184 139.491L183.429 139.056C181.84 138.077 181.518 137.871 180.167 136.56Z" fill="#C199E6"/>
</svg>
