<svg width="250" height="250" viewBox="0 0 250 250" fill="none" xmlns="http://www.w3.org/2000/svg">
<g clip-path="url(#clip0_119_727)">
<path d="M132.185 41.9431C132.213 30.4641 136.495 21.0061 146.394 14.6146C147.018 14.2106 147.626 14.4798 148.191 14.732C155.951 24.2626 137.128 38.1212 133.3 45.0555C145.375 83.3866 146.397 102.322 144.857 142.589C151.11 133.631 156.575 118.885 160.552 108.597C161.822 105.308 163.89 99.9382 164.824 96.6416C159.484 91.8007 152.423 88.6421 148.421 82.3639C146.238 78.9407 142.665 65.7046 146.952 63.705C150.958 63.7472 155.597 72.7578 157.64 75.9776C161.257 81.6758 163.39 88.086 165.262 94.5207C165.883 89.1035 167.01 83.4944 167.752 78.0669C168.544 72.2824 169.215 66.4796 169.904 60.6814C170.342 61.7846 170.376 61.9107 170.59 63.0791C169.575 75.397 168.401 87.9034 165.948 100.035C165.504 102.231 163.322 109.413 163.396 111L163.586 111.373L165.023 111.668C164.39 111.752 162.98 111.731 162.735 112.395C160.58 118.198 158.416 123.739 155.705 129.316C163.738 125.039 169.879 122.232 179.135 124.829C183.858 126.154 184.839 130.195 180.182 132.123C171.755 135.613 165.303 136.83 156.714 133.815C155.687 133.453 154.656 133.084 153.631 132.71C151.675 140.03 149.222 141.719 144.503 146.988C143.86 156.273 143.556 168.665 142.391 177.638C147.462 170.398 151.157 167.821 158.636 163.131C166.349 158.13 174.773 153.353 183.752 151.162C186.152 150.576 190.698 151.314 190.152 154.265C187.435 168.974 169.963 175.917 156.665 176.679C151.417 176.98 146.322 177.825 142.292 180.016C139.702 199.904 136.607 216.427 129.968 235.666C140.401 232.694 150.821 230.848 158.525 222.989L158.997 223.272C155.789 227.85 151.886 229.824 146.921 232.167C156.503 233.162 168.184 236.512 173.705 245.426C174.872 247.31 173.726 250.057 171.348 250.258C163.94 250.883 156.95 246.849 151.821 241.808C148.992 239.049 146.341 235.412 143.189 233.492C138.724 234.587 134.244 235.603 129.745 236.54C129.248 238.766 127.373 248.926 125.612 249.878L125.187 249.704C123.457 247.173 125.879 241.443 126.68 238.527L132.263 218.003C133.306 214.142 135.405 207.221 135.585 203.499C134.921 202.911 134.554 203.051 133.496 202.892C134.735 202.791 134.79 202.82 135.936 202.412C137.122 198.48 138.578 184.908 138.911 180.643C135.57 178.006 130.934 176.495 126.832 174.793C116.577 170.441 108.935 161.533 103.384 152.12C98.7668 144.29 101.937 137.565 111.348 141.942C121.067 146.462 128.854 157.18 134.222 166.134C136.11 169.285 137.864 174.031 139.286 177.569C140.469 160.673 141.348 143.758 141.926 126.831C135.113 126.072 127.425 125.113 122.116 120.146C117.788 116.1 117.154 108.68 125.01 110.945C132.396 113.075 138.215 117.406 141.944 124.23C141.913 120.841 142.258 105.719 141.718 103.51V102.899C142.649 99.0585 137.998 65.3317 134.716 61.6585C133.244 60.0148 119.688 60.8761 116.092 58.3068C113.549 56.491 100.245 46.0301 103.021 42.6727C108.346 40.966 124.46 50.6121 128.907 53.8689C130.661 55.1546 133.145 57.5783 134.787 59.1547C133.704 54.9488 132.465 50.7624 131.238 46.6104C129.257 39.927 127.012 33.3207 123.954 27.0443C122.507 24.0688 120.98 21.461 118.964 18.8476C118.983 18.71 119.002 18.5728 119.017 18.4355C122.669 19.0643 130.602 37.6996 132.185 41.9431Z" fill="#52A3B3"/>
<path d="M77.9045 141.327C77.3735 130.493 78.5907 120.007 87.6695 112.799C95.9597 106.217 95.1556 118.086 94.0223 122.839C92.2059 130.517 85.9215 140.073 79.3949 144.458C86.9833 163.378 101.974 190.845 121.42 198.834C123.904 199.854 126.165 200.663 128.748 201.381L127.9 202.086C119.787 200.276 115.67 197.182 108.864 192.986C108.752 192.955 108.392 192.675 108.277 192.593C99.2913 184.228 93.0349 175.551 87.1727 164.888C82.6612 164.985 79.0192 166.071 74.6163 166.597C68.0556 167.381 59.6008 164.848 53.4624 162.549C46.706 159.842 46.8954 154.241 54.0896 152.538C66.084 149.697 75.2094 155.322 84.9993 161.009C78.6776 147.766 68.0898 126.229 68.2512 111.794L68.7045 111.308C69.8006 123.909 72.9831 129.967 77.9045 141.327Z" fill="#52A3B3"/>
<path d="M68.2512 111.794C64.2676 113.001 60.8149 111.691 57.9304 108.839C47.7399 98.7673 54.5522 91.1707 66.2547 89.9396C70.552 89.4875 76.1533 98.1782 75.8335 102.013C75.4702 106.4 71.6418 108.555 68.7045 111.308L68.2512 111.794Z" fill="#FE9F55"/>
<path d="M94.9229 193.598C90.9765 211.072 65.4042 200.749 78.8393 184.969C82.4596 180.717 86.6234 179.902 91.0355 184.093C93.5132 186.45 94.9725 189.683 95.0967 193.101L94.9229 193.598Z" fill="#FE9F55"/>
<path d="M109.392 0.398342C114.928 -0.264874 121.243 3.41479 122.367 9.06331C122.811 11.3734 122.317 13.7654 120.992 15.7101C119.147 18.3828 117.005 18.9243 114.095 19.4788C108.081 19.5034 99.139 16.2969 100.974 8.50659C101.865 4.72539 106.156 2.14612 109.392 0.398342Z" fill="#FE9F55"/>
<path d="M158.525 222.989C155.072 221.153 152.603 218.808 151.719 214.894C148.281 199.727 168.693 200.344 172.043 214.113C170.41 220.989 165.852 223.395 158.997 223.272L158.525 222.989Z" fill="#FE9F55"/>
<path d="M183.715 101.282C182.228 99.6498 180.402 97.5499 180.827 95.2448C184.106 77.3886 209.859 94.5869 197.33 105.03C193.405 108.304 187.444 104.729 184.147 101.651L183.715 101.282Z" fill="#FE9F55"/>
<path d="M157.885 49.2666C158.757 45.681 160.676 41.5074 163.908 39.5295C165.448 38.576 167.314 38.3074 169.063 38.789C174.353 40.2073 177.489 47.4962 175.741 52.4511C175.046 54.4215 172.95 56.9141 170.845 57.3367L170.298 57.3426C164.955 57.8183 159.353 54.6112 157.885 49.2666Z" fill="#FE9F55"/>
<path d="M116.663 83.323C112.91 84.986 111.202 86.577 106.874 85.1428C102.694 83.9043 101.216 77.7857 102.995 74.1193C107.411 65.0039 116.049 65.645 119.672 74.9698C121.237 79.0059 118.036 80.4395 116.946 83.1963L116.663 83.323Z" fill="#FE9F55"/>
<path d="M116.946 83.196C120.154 85.9163 123.467 89.3929 126.637 92.2845C131.502 96.7249 135.983 99.7612 141.717 102.899V103.51C131.893 99.8699 122.932 91.6021 116.664 83.3227L116.946 83.196Z" fill="#41908C"/>
<path d="M183.715 101.282L184.146 101.651C178.377 108.26 173.689 110.21 165.023 111.668L163.585 111.373L163.396 110.999C164.359 110.671 166.575 110.263 167.799 109.879C175.012 107.612 178.082 106.047 183.715 101.282Z" fill="#41908C"/>
<path d="M108.277 192.593C108.392 192.675 108.752 192.955 108.864 192.986C103.561 195.215 100.462 194.611 94.9229 193.598L95.0967 193.101C99.956 193.634 103.635 194.39 108.277 192.593Z" fill="#41908C"/>
<path d="M128.748 201.381C130.515 201.65 134.502 202.046 135.936 202.412C134.79 202.82 134.734 202.791 133.496 202.892C131.279 202.738 130.086 202.518 127.9 202.086L128.748 201.381Z" fill="#287273"/>
<path d="M170.299 57.3426L170.845 57.3367C170.783 58.9193 170.761 61.5889 170.59 63.079C170.376 61.9106 170.342 61.7845 169.904 60.6813C169.985 59.6393 170.171 58.3982 170.299 57.3426Z" fill="#5FA48C"/>
</g>
<defs>
<clipPath id="clip0_119_727">
<rect width="250" height="250" fill="white"/>
</clipPath>
</defs>
</svg>
