<svg width="250" height="250" viewBox="0 0 250 250" fill="none" xmlns="http://www.w3.org/2000/svg">
<path d="M81.2314 156.494C82.7534 161.66 83.9331 166.416 86.3213 171.24C89.3676 177.394 92.608 181.571 97.4238 186.27C109.09 197.651 122.537 199.954 137.956 202.334C144.12 203.286 149.418 204.386 155.344 206.339C166.893 210.142 177.751 219.626 183.098 230.626C185.486 234.888 187.093 240.036 187.914 244.833C188.06 245.691 188.349 247.199 188.283 248.004L188.149 247.973C187.293 241.922 185.746 236.243 182.868 230.822C179.948 225.238 175.991 220.261 171.209 216.156C152.471 199.982 130.538 206.125 110.035 196.969C99.9761 192.416 91.5537 184.89 85.9033 175.404C83.8636 171.943 82.6731 169.156 81.2461 165.44C78.3273 179.836 80.0394 193.972 87.8017 206.648C95.2667 218.765 107.077 227.573 120.819 231.271C138.045 235.797 157.025 231.342 173.514 239.388C178.877 242.006 182.586 244.868 185.728 250C184.136 249.046 183.231 247.832 181.84 246.645C179.83 244.926 177.431 243.313 175.06 242.15C156.232 232.926 135.516 239.813 115.9 233.146C101.397 228.26 89.4383 217.795 82.6699 204.069C77.3383 193.215 75.7276 180.215 77.9131 168.345C78.6016 164.604 80.0005 160.109 81.2314 156.494ZM106.928 218.556C107.394 218.704 107.741 219.125 108.103 219.479C116.278 226.047 125.404 228.267 135.69 228.071C136.597 228.055 139.353 227.734 139.876 228.153C139.764 228.43 139.755 228.485 139.427 228.589C128.857 231.925 116.795 227.342 108.79 220.445L108.028 219.771C107.7 219.464 107.016 218.93 106.928 218.556ZM199.584 101.489C200.669 103.056 201.768 104.61 202.612 106.327C205.984 113.181 206.169 120.826 204.895 128.217C202.006 144.979 190.164 157.915 183.871 173.335C178.366 186.821 178.211 201.362 182.634 215.172C183.456 217.689 184.423 220.157 185.528 222.562C186.379 224.432 187.351 226.321 188.07 228.235C184.33 224.665 181.085 217.268 179.509 212.316C175.519 199.779 175.809 185.779 180.347 173.422C186.953 155.433 202.184 140.571 202.739 120.562C202.899 114.84 201.876 110.353 199.169 105.327C179.177 123.998 157.741 145.671 157.116 174.604C156.991 180.369 158.026 188.52 159.973 193.971C160.51 196.313 162.259 200.012 163.294 202.219C163.523 202.705 164.635 204.801 164.703 205.114L164.562 205.156C162.881 202.624 160.546 197.033 159.679 194.096C158.645 191.064 158.053 188.176 157.484 185.044C152.186 155.936 169.924 131.188 189.331 111.593C192.636 108.255 196.007 104.617 199.584 101.489ZM82.9892 172.361C85.7779 179.042 88.2947 183.642 93.4824 188.777C95.12 190.399 96.8984 191.91 98.5068 193.516C92.8136 191.641 87.0043 184.756 84.3818 179.565C84.0678 178.949 83.7866 178.314 83.54 177.667C83.0056 181.237 83.1959 184.126 83.792 187.658L83.5771 187.695H83.5781L83.792 187.658C84.924 191.788 85.6451 194.363 88.2207 198.012C88.6134 198.567 90.5747 200.932 90.6591 201.136L90.5 201.106C87.3493 198.408 83.7318 191.488 82.9375 187.307L82.7978 186.934C81.4275 182.985 82.2774 176.27 82.9892 172.361ZM189.033 31.0322C188.071 35.3339 186.398 41.1285 184.817 45.2646C189.274 43.4793 193.808 41.8957 198.407 40.5176C200.305 39.9373 202.465 39.2416 204.381 38.8193C205.019 47.3725 205.198 55.0793 203.022 63.502C202.634 65.0039 201.968 67.3485 201.31 68.6895C206.3 66.4157 211.389 64.3719 216.565 62.5645C218.744 61.7834 221.406 60.9914 223.475 60.1904C222.768 62.2337 222.252 64.3343 221.526 66.3633C218.041 76.1239 210.278 84.3945 200.997 88.8945C194.937 91.8198 188.29 93.3239 181.56 93.293C179.628 93.2924 177.784 93.0945 175.889 93.041C175.374 93.0264 173.296 93.5776 172.543 93.6602C168.766 94.0746 164.649 94.1229 161.045 92.8408C160.551 92.6679 160.064 92.469 159.59 92.2451C155.579 98.0494 152.451 102.733 149.277 109.13C140.717 126.118 137.86 145.413 141.131 164.152C143.079 174.792 147.101 184.945 152.966 194.035C153.905 195.382 154.861 196.718 155.83 198.043C156.403 198.814 157.434 200.071 157.903 200.847C156.472 199.661 153.746 195.847 152.668 194.161C142.238 179.261 136.317 159.867 137.234 141.66C137.812 127.874 142.006 114.483 149.396 102.831C152.125 98.5218 155.353 94.3565 159.145 90.9336L159.261 90.7119C159.86 90.4282 160.367 90.0934 160.93 89.7441C160.661 90.4302 160.353 90.9993 160.017 91.6504C172.933 94.1437 186.345 87.2274 193.551 76.5693C200.714 65.9729 202.036 54.5271 202.013 42.0957C185.721 46.5854 167.766 51.5504 159.472 68.0742C156.582 73.8297 155.835 81.5864 158.018 87.6934L159.261 90.7119L159.145 90.9336C158.544 90.0189 158.087 88.7342 157.683 87.6934C155.838 81.7105 156.026 75.2847 158.218 69.4199C162.373 58.0988 172.512 50.9657 182.986 46.0654C183.102 45.3918 183.184 44.7126 183.267 44.0342C183.61 41.2048 184.201 38.4235 184.774 35.6338C179.946 36.9951 173.116 41.3212 169.377 44.6123C161.404 51.6437 156.564 61.5649 155.931 72.1768C155.944 72.7345 156.039 74.1616 155.855 74.6152L155.711 74.4385C155.598 73.5176 155.606 70.3819 155.801 69.5254L155.924 68.3984C157.297 56.8163 161.764 47.278 170.965 39.5088C176.422 34.9014 182.195 32.6997 189.033 31.0322ZM171.735 141.991C171.014 143.32 169.816 144.849 168.965 146.188C166.97 149.328 165.706 152.177 164.444 155.648C161.148 165.469 160.56 175.998 162.741 186.125C163.421 189.363 164.463 192.336 165.152 195.51C164.278 194.446 163.705 193.543 163.178 192.255C158.144 179.954 159.05 167.396 163.743 155.361C165.73 150.675 168.356 145.839 171.677 141.96L171.735 141.991ZM73.3925 117.017C74.3281 117.68 76.6302 124.429 77.205 125.924C88.8588 156.207 109.259 181.383 139.21 194.752L139.243 195.006C108.047 181.899 81.253 155.954 73.8047 122.044C73.5327 120.806 73.0686 118.198 73.3925 117.017ZM112.056 0C114.811 4.5135 118.315 10.308 119.409 15.5205C123.122 12.6507 126.086 10.9536 130.178 8.78613C130.714 11.2233 131.092 13.751 131.506 16.2139C133.925 30.586 135.24 46.4975 126.866 59.3105C122.829 65.4875 117.4 70.2833 110.122 72.0576C109.721 74.9107 109.093 77.7794 108.546 80.6113C103.226 108.14 106.621 136.194 120.012 160.956C121.904 164.431 123.994 167.794 126.27 171.032C127.012 172.087 129.39 175.142 129.858 175.958C131.602 178.059 133.302 180.15 135.149 182.161C136.914 184.082 138.869 185.872 140.652 187.748C141.222 188.206 148.474 194.491 148.544 194.626C145.943 192.944 142.662 189.954 140.276 187.916C139.088 186.952 136.936 184.784 135.812 183.638C133.916 181.704 130.938 178.824 129.344 176.656V176.657C122.227 168.726 115.778 157.774 111.468 148.029C101.677 125.891 99.6477 96.7098 108.547 73.9395C108.212 73.7563 107.786 73.4745 107.453 73.2666V73.2656C106.477 72.6914 105.265 71.7598 104.205 70.9287L103.21 70.1484C101.632 68.6421 100.288 67.4546 98.8174 65.8164C93.3298 59.7637 89.7033 52.2572 88.373 44.1963C86.8818 34.6662 88.5955 24.9102 93.2441 16.458C94.4093 14.3434 95.7026 12.5382 97.1181 10.5957C102.748 17.6584 106.459 23.3138 109.359 32.0293C112.273 40.6263 113.252 49.7611 112.225 58.7803C111.855 61.8739 111.197 65.2157 109.793 68.0176C109.456 64.7148 110.196 59.3308 110.114 55.5391C109.807 41.263 105.596 27.1768 97.1455 15.5693C85.0255 33.2537 87.465 55.6372 103.538 69.9883C104.849 71.0296 106.182 72.0427 107.536 73.0273L107.807 73.1943C108.084 73.371 108.375 73.5716 108.634 73.7422C108.81 73.2715 109.083 72.7309 109.3 72.2695C108.296 72.2958 107.657 72.3001 106.662 72.2158C108.046 71.3056 110.074 70.485 111.609 69.6709C115.897 67.4269 119.43 64.0482 122.305 60.1895C131.795 47.4459 131.396 30.7643 129.771 15.7344C129.593 14.0711 129.45 12.4188 129.187 10.7598C125.884 12.1192 121.667 14.6344 118.849 16.7725C116.471 18.505 114.236 20.4272 112.168 22.5195C111.008 23.7099 109.886 25.0744 108.749 26.2207L108.681 26.0996C110.161 23.7123 116.179 17.9533 118.511 16.2285C114.561 12.0488 113.559 9.07915 111.01 4.36719C106.194 8.04093 104.214 11.9022 102.914 17.6104L102.801 17.5703C103.139 10.7356 106.595 4.11848 112.056 0ZM198.055 109.176C198.583 111.609 199.05 113.803 199.284 116.296C200.183 125.673 197.912 135.081 192.833 143.015C190.935 145.987 187.393 150.239 184.264 151.945L184.367 151.787C185.341 150.314 186.71 148.867 187.829 147.473C195.442 137.996 199.825 123.942 197.467 111.829L197.423 111.608C193.924 115.352 190.415 119.456 187.047 123.322C186.094 124.443 180.96 130.628 180.334 130.854C181.647 129.091 185.257 124.652 186.755 123.071L193.631 114.59C194.926 112.976 196.678 110.68 198.055 109.176ZM52.0605 47.7324C52.7534 48.3122 53.3603 48.9838 54.0107 49.6113C68.4951 63.5887 83.9386 81.061 80.2822 102.829C79.4675 107.679 76.9749 114.298 72.7588 117.255C73.2232 115.715 74.4519 113.749 75.1299 112.22C83.2615 93.8764 73.4008 75.0391 61.0381 61.4756C58.4451 58.6306 55.9155 55.6534 53.1855 52.9297C50.0064 61.2626 47.5446 69.2038 46.3486 78.1631C44.0764 95.1873 51.0916 114.284 69.8125 117.66C70.9438 117.864 71.9026 117.739 73.0205 117.861L73.0371 117.99L72.8515 118.014C71.587 118.196 71.6135 118.85 70.7324 119.24C59.7714 124.101 47.4074 114.187 40.956 106.314C31.5202 94.7994 26.669 80.2657 27.0175 65.4766C27.0681 63.3306 27.2208 61.3764 27.4072 59.2646C31.5691 61.2439 35.7488 63.3554 39.9365 65.2617C40.6681 65.5956 41.5785 65.9815 42.2568 66.375L42.2558 66.5127L42.1523 66.6094C41.3436 66.264 40.6843 65.9402 39.8994 65.543L28.1347 60.377C27.8677 62.8493 27.97 65.0965 28.1328 67.5752C29.1736 83.4144 36.9204 98.5757 48.4619 109.353C54.7014 115.178 61.9242 119.709 70.748 118.06C68.4219 117.636 66.7309 117.351 64.4931 116.524C57.3094 113.871 51.2424 107.86 48.1259 100.9C41.8824 86.9591 44.5164 71.8157 48.7597 57.7822C49.7637 54.4014 50.8642 51.05 52.0605 47.7324ZM74.1523 43.374C75.57 45.0493 76.9998 46.708 78.3047 48.4736C86.2194 59.1841 90.5759 72.8991 89.4619 86.2441C88.8027 95.081 85.8745 103.598 80.9609 110.973C79.4796 113.163 77.97 115.219 75.7041 116.626L75.7715 116.396C76.1547 115.1 76.9166 113.611 77.5996 112.431C87.9241 94.5884 89.8668 72.1268 80.0078 53.6309C78.3793 50.5309 76.4631 47.5909 74.2841 44.8496C73.9697 45.4203 73.6218 46.084 73.2949 46.6387L68.5449 55.8984C68.2231 56.5245 67.3211 58.5188 66.9853 58.9082C66.9307 58.4353 72.5664 46.6308 73.2265 45.3203C73.5001 44.5906 73.793 44.0576 74.1523 43.374ZM66.2841 78.2393C68.1798 78.5324 71.067 83.8783 71.8047 85.5186C75.5251 93.7911 74.94 102.705 71.8183 111.054L71.5859 111.429C71.5569 110.962 72.0312 109.675 72.1963 109.142C74.852 100.557 72.8428 91.3928 69.0263 83.4902C68.335 82.0592 66.6354 79.7504 66.2841 78.2393ZM51.2285 92.7695C51.8372 93.044 52.4306 94.7744 52.6738 95.4199C54.5758 100.467 57.4761 103.965 61.7549 107.23C63.4097 108.208 64.9958 109.148 66.8906 109.521C67.1273 109.568 67.9538 109.732 68.0576 109.954C66.2997 109.911 63.019 108.633 61.3857 107.883C57.0925 105.466 53.951 102.68 51.9775 98.0635C51.414 96.7449 50.7872 94.3054 51.0371 92.8867L51.2285 92.7695ZM217.843 65.499C213.81 66.8293 204.731 69.6471 200.853 69.9688C196.876 79.7193 190.403 87.0786 180.603 91.3789C179.998 91.644 177.379 92.5145 177.114 92.7471C177.419 92.8706 177.412 92.8864 177.736 92.9004C188.275 93.3856 198.657 90.0485 206.494 82.8867C211.045 78.8092 214.68 73.8122 217.158 68.2266C217.406 67.6719 218.172 66.0756 218.187 65.5508C218.069 65.5259 217.952 65.486 217.843 65.499ZM193.071 63.3105C193.704 64.0028 193.165 67.6741 193.002 68.6211C191.436 75.2684 188.045 80.2693 182.24 84.0166C179.183 85.9909 173.755 87.9854 170.043 88.1396C169.056 88.216 167.853 88.354 166.904 88.0918C167.638 87.8953 168.479 87.9422 169.252 87.9365C180.959 86.5454 187.745 79.0234 191.534 68.3789C191.779 67.3858 192.503 63.7814 193.071 63.3105ZM173.869 58.4844C173.912 59.0828 172.129 60.2235 171.553 60.6758C164.497 66.2122 159.335 75.3892 160.817 84.5557C160.97 85.4979 161.197 86.407 161.288 87.3574L161.299 87.4893C161.167 87.2948 161.07 87.1124 161.005 86.8828C159.191 80.5341 159.958 73.3314 163.129 67.5596C165.326 63.5599 169.19 59.7046 173.592 58.417L173.869 58.4844ZM42.5849 66.6973L42.3261 66.666L42.3974 66.4941L42.4121 66.4775L42.5849 66.6973ZM42.4101 66.4639L42.3974 66.4941L42.2558 66.6572V66.5127L42.3535 66.4229L42.4101 66.4639ZM94.7578 34.6416C94.8691 35.2925 94.7193 39.9759 94.7939 41.3174C95.2338 49.2271 97.4739 55.4732 102.78 61.2891C103.47 61.9011 105.057 63.2147 105.572 63.8535C104.392 63.1268 103.436 62.3433 102.412 61.4199C96.7932 55.8342 93.2126 49.6552 93.083 41.5029C93.0545 39.7075 93.4458 36.1274 94.5488 34.665L94.7578 34.6416ZM222.342 24.4639C222.444 26.2612 222.739 28.0268 222.891 29.8203C223.77 40.2787 220.495 51.324 213.623 59.3174C212.825 60.2448 210.972 62.1849 209.8 62.4932L209.575 62.3945C209.529 61.6991 212.225 57.4739 212.741 56.5928C217.923 47.7378 220.575 37.6899 220.005 27.4229C213.495 28.3745 206.57 29.1589 200.12 30.248C195.786 31.0907 191.371 32.4955 189.565 36.9873C189.408 37.3791 189.41 37.848 189.086 38.085C188.949 37.2519 189.752 35.8117 190.222 35.0908C192.412 31.7254 196.491 30.1683 200.247 29.3613H200.248C202.529 28.7362 205.033 28.2966 207.36 27.7734C212.345 26.6284 217.339 25.5249 222.342 24.4639ZM46.8515 31.4414C54.9848 33.5027 61.0771 37.249 65.706 44.5547C66.6708 46.0776 67.9825 48.8395 67.9912 50.6631L67.8652 50.918C66.8869 50.8201 63.9826 46.4723 63.1308 45.4922C58.6584 40.3472 54.0231 37.2539 47.7998 34.6455C43.3037 40.4104 39.8407 45.4854 37.4716 52.5605C36.6607 54.8775 36.0522 57.2607 35.6513 59.6826C35.5585 60.2017 35.5113 60.7337 35.2373 61.1738C35.1115 60.6996 35.2895 60.0106 35.3759 59.502L35.5215 58.5371C35.8739 56.3163 36.3206 54.2984 36.8496 52.0527L37.2236 50.7432C39.1868 44.1317 42.5121 36.6512 46.8515 31.4414ZM123.295 27.0449C128.56 33.4618 126.493 47.5939 121.592 53.6768C121.018 55.085 116.753 59.7885 115.418 60.5459L115.325 60.4668C115.846 59.7434 117.273 58.5815 117.978 57.7656C119.468 56.04 120.416 54.3518 121.543 52.4043C124.286 45.8469 125.233 40.9902 124.391 33.7012C124.144 31.5662 123.462 29.0662 123.295 27.0449Z" fill="#222222"/>
</svg>
