<svg width="250" height="250" viewBox="0 0 250 250" fill="none" xmlns="http://www.w3.org/2000/svg">
<path d="M84.5302 110.987C83.6212 106.948 85.0745 97.6601 87.2448 93.9921C90.4804 88.5241 95.9759 89.752 100.538 92.6974C106.98 96.8565 109.301 102.477 110.795 109.809C111.457 113.102 111.684 116.467 111.471 119.819C111.833 119.702 112.228 118.953 112.488 118.631C113.587 117.272 115.376 114.629 116.909 113.744C121.42 111.138 126.267 115.365 127.3 119.441C129.878 129.612 125.723 141.144 118.121 148.106C117.193 148.946 113.203 151.724 114.028 153.212C115.737 156.294 120.729 156.739 120.439 161.195C119.597 162.477 118.321 163.592 118.565 164.832C119.035 167.223 120.767 170.81 121.258 172.989C120.928 173.869 120.705 174.314 120.133 175.072C118.023 174.19 115.455 173.085 113.289 172.367C113.028 171.992 109.477 168.737 108.891 168.279C108.249 167.776 106.844 167.019 106.068 166.267C105.501 167.306 104.87 168.307 104.177 169.267C98.9904 176.438 84.2218 189.223 75.1258 190.664C72.9823 191.007 70.5328 190.803 68.7518 189.429C66.0889 187.387 65.2768 183.952 64.7403 180.822C63.8634 175.707 66.9818 169.02 70.002 164.947C62.1977 168.66 48.353 167.779 42.7494 160.244C42.1005 159.372 41.8389 158.231 41.3716 157.317V153.954C41.5882 153.544 41.8016 152.669 42.005 152.18C44.8705 145.307 53.1237 140.21 60.2198 139.112C56.8384 135.491 52.8587 128.335 52.3009 123.351C52.0708 119.905 52.0201 115.229 54.0322 112.261C55.3691 110.289 57.8215 111.978 59.1106 113.121C57.7469 110.656 56.6649 107.728 57.8221 104.962C58.3088 103.798 59.2393 103.129 60.1818 102.357C62.6632 102.065 64.2256 101.937 66.6716 102.517C72.2129 103.831 77.275 106.495 82.0574 109.523C82.734 109.951 83.6891 110.865 84.388 111.142L84.5302 110.987Z" fill="#F4BB56"/>
<path d="M60.1819 102.357C62.6633 102.065 64.2257 101.937 66.6718 102.517C72.213 103.831 77.2751 106.495 82.0575 109.522C82.7341 109.951 83.6892 110.865 84.3881 111.142L84.5303 110.987C84.5369 111.021 84.5435 111.054 84.5499 111.088C85.6518 121.438 89.4599 131.214 93.1007 140.88C93.265 141.317 93.3216 141.736 93.2571 142.197C91.0336 139.651 88.1547 135.933 85.0028 134.435C84.6026 134.245 83.8432 134.954 84.0556 135.321C85.5408 137.886 88.8946 140.269 90.0541 143.025C88.6793 143.068 87.2001 141.752 86.1965 142.123C84.2084 140.715 79.8198 137.771 77.1078 138.941C76.6969 139.118 76.664 139.59 76.5739 139.998L76.5069 139.297C75.6432 138.638 66.4434 138.375 65.0079 138.555C63.9982 138.681 61.2146 138.856 60.2199 139.111C56.8385 135.491 52.8588 128.335 52.301 123.351C52.0709 119.904 52.0202 115.229 54.0323 112.261C55.3692 110.289 57.8216 111.978 59.1107 113.121C57.7471 110.656 56.665 107.728 57.8223 104.961C58.309 103.798 59.2394 103.128 60.1819 102.357Z" fill="#F3A62C"/>
<path d="M111.471 119.819C111.833 119.702 112.229 118.953 112.489 118.631C113.587 117.272 115.376 114.629 116.909 113.744C121.421 111.138 126.267 115.365 127.3 119.441C129.878 129.612 125.724 141.144 118.121 148.106C117.193 148.945 113.203 151.724 114.028 153.212C115.737 156.294 120.729 156.738 120.44 161.195C119.597 162.477 118.321 163.591 118.565 164.832C119.035 167.223 120.768 170.809 121.258 172.988C120.928 173.868 120.705 174.314 120.133 175.072C118.023 174.19 115.456 173.085 113.289 172.367C113.028 171.992 109.477 168.737 108.891 168.279C108.25 167.776 106.844 167.019 106.068 166.267C106.135 166.149 106.16 166.087 106.218 165.968C109.6 159.031 108.561 153.67 105.959 146.688C108.561 138.905 110.703 131.443 111.234 123.2C111.283 122.438 111.603 120.413 111.471 119.819Z" fill="#F3A62C"/>
<path d="M97.6564 148.885C97.6508 148.048 97.6667 146.377 97.5181 145.576C96.9744 143.07 94.5244 141.553 93.4418 139.219C92.0842 136.291 91.7451 133.856 94.9495 132.207C95.2298 133.859 95.482 135.941 96.2713 137.363C98.2371 140.873 101.641 142.458 101.128 147.072C100.508 152.637 94.8249 152.27 90.7832 154.009C89.15 154.658 86.4765 157.137 84.7113 156.927C82.9299 156.715 84.2751 153.116 85.6976 152.805C85.9162 152.758 87.6219 151.68 87.7774 151.577C84.8298 150.078 81.7131 150.013 78.4823 150.426C77.1843 150.592 75.761 150.967 74.4668 151.013C73.0495 150.277 74.7767 147.759 76.2899 147.358C81.0421 146.104 86.3322 147.002 90.6703 149.233C91.0056 149.405 91.2506 149.449 91.5913 149.321C91.456 147.623 85.6979 143.976 83.9931 143.58C80.9838 142.882 78.33 143.011 76.5737 139.998C76.6638 139.59 76.6968 139.117 77.1077 138.94C79.8196 137.771 84.2082 140.715 86.1963 142.123C87.2 141.752 88.6791 143.068 90.0539 143.025C88.8945 140.269 85.5407 137.886 84.0554 135.321C83.843 134.954 84.6024 134.244 85.0027 134.435C88.1546 135.933 91.0334 139.651 93.257 142.197C94.9613 144.563 96.1948 146.379 97.6564 148.885Z" fill="#E56901"/>
<path d="M86.1965 142.123C87.2002 141.752 88.6794 143.068 90.0541 143.025C90.3267 143.436 90.4992 143.779 90.4649 144.269C89.7371 145.151 86.8967 142.655 86.1965 142.123Z" fill="#F4BB56"/>
<path d="M120.108 0H123.613C124.24 0.281135 125.519 0.82024 126.018 1.18485C128.811 3.22256 130.951 6.21043 132.945 8.99474C133.515 9.79002 134.23 10.698 134.605 11.567C136.26 9.36564 138.102 7.16244 140.353 5.53085C140.759 5.23687 141.148 4.992 141.543 4.67133C143.001 4.4885 144.681 4.36195 145.894 5.42562C148.529 7.73681 149.253 14.274 149.701 17.6107C149.896 19.0641 150.376 23.0246 150.257 24.1264C152.042 23.2511 153.746 22.6509 155.688 22.2182C159.084 21.4619 170.424 20.3441 173.481 21.3919C174.81 21.8475 175.84 22.7189 176.452 23.9896C178.137 27.492 176.757 36.9751 175.466 40.5865C174.312 43.8116 172.082 46.3029 169.798 48.7846C170.2 48.9426 171.326 48.6064 171.811 48.5173C173.487 48.2087 175.18 48.1637 176.877 48.054C179.792 47.9401 184.071 47.3223 185.821 50.272C186.829 51.9718 185.302 54.0529 184.279 55.3311C185.168 56.2637 186.473 57.3153 186.406 58.6834C186.344 59.9449 185.585 60.9625 184.671 61.7797C179.964 65.5925 172.949 68.274 167.14 69.7807C165.701 70.1542 162.934 70.3556 161.514 70.4581C164.329 73.7881 168.637 78.7663 167.411 83.3804C161.592 86.6779 146.381 80.9072 140.6 78.1698C139.864 78.613 139.275 79.2527 138.617 79.7812C136.202 81.7221 132.681 86.2299 129.89 87.4392C129.248 87.439 128.005 88.0931 127.196 88.2754C125.885 88.5712 124.129 88.2807 123.026 88.9012C122.735 89.2137 122.773 89.4523 122.742 89.8912C122.515 90.0794 122.644 90.0175 122.332 90.0579C122.043 89.9577 121.761 89.8467 121.49 89.7049C116.894 87.3007 109.481 72.5943 107.886 67.2991C107.309 65.3829 106.782 62.921 107.807 61.0662C109.112 58.7027 111.092 58.7456 113.351 58.0681C113.373 58.0613 113.395 58.0543 113.417 58.0474C108.323 54.2064 106.01 50.9323 102.828 45.3341C100.779 41.7296 100.344 37.754 101.481 33.7601C102.054 31.7461 103.538 29.8747 105.442 28.9342C107.662 27.837 109.472 28.3178 111.677 29.0255C111.665 28.7282 110.838 25.1434 110.698 24.3684C109.694 18.8331 109.407 13.9213 111.149 8.48081C112.179 5.2673 113.661 2.88619 116.78 1.23955C117.619 0.796369 119.178 0.523392 120.037 0.039925C120.061 0.0266167 120.084 0.0133083 120.108 0Z" fill="#F4BB56"/>
<path d="M120.108 0H123.612C124.24 0.281135 125.519 0.82024 126.018 1.18485C128.811 3.22256 130.95 6.21043 132.945 8.99474C133.515 9.79002 134.23 10.698 134.605 11.567C136.26 9.36564 138.102 7.16244 140.353 5.53085C140.759 5.23687 141.148 4.992 141.543 4.67133C143.001 4.4885 144.681 4.36195 145.893 5.42562C148.529 7.73681 149.252 14.274 149.701 17.6107C149.896 19.0641 150.376 23.0246 150.257 24.1264C148.92 24.7163 147.728 25.5069 146.481 26.2037C142.879 28.2168 140.581 29.9693 138.125 33.2195C135.375 36.858 135.94 38.4697 136.519 42.7642C136.563 43.0921 136.695 44.3888 136.847 44.5965C135.639 44.8221 135.517 45.6651 135.788 46.6849C136.648 49.9195 138.165 53.5258 136.667 56.7929C134.123 55.1614 133.175 52.8305 132.308 50.0701C131.85 48.6126 130.714 43.2523 128.649 43.4384C127.916 43.8837 127.497 45.4154 127.666 46.1999C127.983 47.6671 128.666 48.9419 128.987 50.4246C128.687 49.9419 128.21 49.4113 127.852 48.8813C123.776 42.8613 120.034 36.1118 114.72 31.0988C114.065 30.4812 112.469 29.5401 111.677 29.0255C111.665 28.7282 110.838 25.1434 110.698 24.3684C109.694 18.8331 109.407 13.9213 111.149 8.48081C112.179 5.2673 113.661 2.88619 116.78 1.23955C117.619 0.796369 119.178 0.523392 120.037 0.039925C120.061 0.0266167 120.084 0.0133083 120.108 0Z" fill="#F3A62C"/>
<path d="M113.417 58.0479C115.137 59.6332 119.055 62.0172 121.054 63.39C122.145 64.1393 123.876 64.9457 124.792 65.8782L124.688 66.0049C123.202 67.8025 118.686 70.3455 122.251 73.1156C124.885 75.1625 129.002 73.2886 132 74.279C135.12 75.166 137.701 77.1601 140.6 78.1703C139.864 78.6134 139.275 79.2532 138.617 79.7816C136.201 81.7225 132.681 86.2303 129.89 87.4397C129.248 87.4394 128.005 88.0935 127.196 88.2759C125.885 88.5716 124.128 88.2811 123.026 88.9016C122.735 89.2141 122.772 89.4527 122.742 89.8916C122.515 90.0798 122.644 90.0179 122.332 90.0583C122.043 89.9581 121.761 89.8471 121.49 89.7053C116.894 87.3011 109.481 72.5947 107.886 67.2996C107.308 65.3833 106.782 62.9214 107.806 61.0666C109.112 58.7031 111.092 58.746 113.351 58.0685C113.373 58.0618 113.395 58.0547 113.417 58.0479Z" fill="#F3A62C"/>
<path d="M169.798 48.7848C170.2 48.9427 171.326 48.6065 171.811 48.5174C173.487 48.2088 175.18 48.1638 176.877 48.0542C179.792 47.9403 184.071 47.3225 185.821 50.2722C186.83 51.9719 185.302 54.0531 184.279 55.3313C185.168 56.2639 186.473 57.3154 186.406 58.6836C186.344 59.945 185.586 60.9626 184.671 61.7799C179.964 65.5926 172.949 68.2741 167.14 69.7808C165.701 70.1544 162.934 70.3558 161.514 70.4582C161.411 70.1696 160.54 69.4327 160.268 69.0961C157.849 66.101 155.043 64.4207 151.524 62.9265C153.281 61.8322 155.336 60.9541 157.044 59.915C160.936 57.5467 164.607 54.5987 167.523 51.0877C168.116 50.3724 169.405 49.3819 169.798 48.7848Z" fill="#F3A62C"/>
<path d="M128.987 50.425C128.666 48.9422 127.983 47.6674 127.666 46.2003C127.497 45.4157 127.916 43.8841 128.649 43.4388C130.714 43.2527 131.85 48.613 132.308 50.0705C133.175 52.8309 134.123 55.1618 136.667 56.7933C138.165 53.5262 136.648 49.9199 135.788 46.6853C135.517 45.6655 135.639 44.8225 136.847 44.5969C141.23 47.3061 137.988 56.3963 138.976 57.3215C142.438 57.1583 141.654 50.0824 141.759 47.7527C141.818 46.4541 141.342 43.9572 143.354 43.8327C143.834 43.8015 144.303 43.9853 144.634 44.3344C146.207 45.9869 143.658 47.9998 143.267 49.4212C142.156 53.4585 143.68 58.1801 139.667 61.0011C138.121 62.1507 136.296 63.239 134.26 63.0189L134.09 62.8706C134.195 62.4812 134.237 62.4505 134.48 62.1159C135.033 61.3581 134.873 59.9274 134.579 59.0865C133.972 57.3497 132.889 56.5455 131.277 55.7735C130.094 53.9294 129.746 52.4598 128.987 50.425Z" fill="#E56901"/>
<path d="M131.276 55.7734C132.888 56.5454 133.971 57.3496 134.578 59.0864C134.872 59.9274 135.033 61.358 134.479 62.1158L134.391 61.9938C134.101 61.9701 132.959 62.8669 132.446 63.1655C132.379 61.587 132.179 60.0168 131.85 58.4716C131.662 57.5789 131.367 56.6647 131.276 55.7734Z" fill="#F3A62C"/>
<path d="M150.482 46.9683C151.327 46.9281 151.874 47.4324 152.231 48.1471C153.565 50.8202 150.692 53.1479 149.188 54.9679C148.563 55.857 148.041 56.8435 147.479 57.7752C146.202 59.8959 144.085 61.5542 141.892 62.7283C141.39 62.976 140.424 63.3529 140.212 62.624C140.669 60.8539 143.964 59.1151 145.33 56.9615C147.478 53.5734 147.725 49.7945 150.482 46.9683Z" fill="#E56901"/>
<path d="M61.0617 20.6092C61.8322 18.7606 62.9164 17.0541 64.833 16.2786C66.4187 15.6368 68.7024 15.4263 70.2356 16.2095C74.3108 18.291 78.3538 24.9402 79.7515 29.1012C81.1795 33.3525 83.261 40.4504 82.7318 44.67C82.8657 44.9947 83.0046 45.8883 83.0981 46.2822C83.9531 49.8827 85.3975 52.1414 88.1874 54.5643C87.2558 51.2852 86.4784 47.8908 85.9439 44.5252C85.7985 43.6101 85.6697 42.4967 85.3914 41.6264C86.4471 41.885 88.6196 42.0199 89.1058 42.398C88.8873 54.3134 97.5644 68.7817 105.471 77.215C109.044 81.0259 113.881 84.9528 118.032 88.1138C119.674 89.3639 121.331 90.7101 123.136 91.7267C123.043 91.3387 122.867 90.3935 122.662 90.1315L122.332 90.0582C122.644 90.0178 122.515 90.0796 122.742 89.8914C122.772 89.4526 122.735 89.2139 123.026 88.9014C124.129 88.2809 125.885 88.5715 127.196 88.2757C128.005 88.0933 129.248 87.4393 129.89 87.4395C129.816 88.7363 130.234 91.4622 130.379 92.8301C131.712 105.369 137.832 116.179 142.165 127.764C144.468 133.923 145.784 140.61 146.594 147.129C146.783 148.644 147.177 151.311 147.194 152.805C148.812 149.678 150.958 146.687 151.957 143.369C153.633 137.803 152.055 131.819 153.744 126.178C154.902 126.793 156.684 127.819 157.731 128.578C157.734 129.696 157.551 130.714 157.551 131.652C158.078 132.279 158.445 132.728 159.178 133.124C164.815 135.875 166.469 132.14 170.961 130.6C170.455 131.636 169.096 133.129 168.97 133.517C167.587 134.415 166.352 135.534 165.035 136.504C163.501 137.627 161.989 138.793 160.616 140.11C156.179 144.37 153.554 150.215 151.53 155.934C150.152 159.824 148.734 164.085 147.92 168.139C146.83 173.565 146.478 179.238 145.662 184.716C143.959 199.404 141.979 211.268 136.425 225.011C139.193 221.301 141.778 216.943 143.965 212.872C151.933 198.043 158.059 182.166 166.767 167.732C174.1 155.579 184.168 145.171 194.769 135.846C197.829 133.201 200.935 130.608 204.084 128.069C205.277 127.096 207.862 124.885 209.075 124.081C204.509 129.519 201.427 134.751 197.993 140.973C191.649 152.472 186.041 164.363 180.18 176.11C174.941 186.613 169.692 197.656 162.747 207.134C159.807 211.157 156.537 214.928 152.971 218.408C144.424 226.744 135.31 233.978 128.794 244.215C127.563 246.149 126.49 248.073 125.295 250H124.673C124.232 249.764 123.597 249.495 123.302 249.077C122.203 247.522 128.523 233.652 129.471 230.848C130.308 228.363 130.919 225.807 131.296 223.213C133.034 211.816 134.532 195.664 128.324 185.415C127.118 183.424 125.362 181.755 123.602 180.255C122.667 179.456 121.696 178.698 120.693 177.985C118.913 176.738 114.353 173.931 113.289 172.367C115.456 173.085 118.023 174.19 120.133 175.072C120.705 174.314 120.928 173.869 121.258 172.988C120.768 170.809 119.035 167.223 118.565 164.832C118.321 163.591 119.597 162.477 120.44 161.195C120.841 160.824 120.869 160.709 121.356 160.894C126.184 166.442 131.827 181.753 134.064 189.182C135.239 193.086 136.482 199.439 137.185 203.452C137.493 202.434 137.765 200.462 138.008 199.343C138.875 195.339 139.391 191.425 139.884 187.365C141.353 175.275 142.894 162.969 141.982 150.781C140.091 125.698 128.296 102.4 109.2 86.0278C104.146 81.6338 98.7143 78.4455 93.4282 74.4045C87.1513 69.606 81.1829 64.5177 74.7974 59.8454C71.7076 57.5423 68.5145 55.3812 65.2281 53.3686C63.7479 52.4483 59.9266 50.3387 58.7423 49.2572C54.0981 46.4518 49.4805 47.5291 46.3786 42.4114C42.4137 35.8696 47.7981 34.6507 53.2067 35.9502C52.0906 32.3074 49.3686 27.0188 50.8951 23.1151C51.7855 20.8384 55.5988 23.4946 56.8342 24.245C57.159 22.1179 58.1804 16.9357 61.0617 20.6092Z" fill="#5CAC56"/>
<path d="M61.0617 20.6092C61.8322 18.7606 62.9164 17.0541 64.833 16.2786C66.4187 15.6368 68.7024 15.4263 70.2356 16.2095C74.3108 18.291 78.3538 24.9402 79.7515 29.1012C81.1795 33.3525 83.261 40.4504 82.7318 44.67C82.616 44.3478 82.498 43.8226 82.4088 43.4767C81.354 43.812 80.7377 44.1275 79.8098 44.7157C79.6152 46.3585 79.6856 48.0379 79.4553 49.7242C78.3039 48.8648 71.3323 43.3716 70.5093 43.0315C70.1523 43.1959 70.2007 43.2694 69.9809 43.6668C69.7456 44.4573 69.5043 45.3481 69.2052 46.1084C66.4339 45.0425 66.6146 45.9232 66.9362 48.5318C65.5079 47.5146 64.0493 46.4386 62.5522 45.5344C61.2526 46.3399 59.384 47.8631 58.7423 49.2572C54.0981 46.4518 49.4805 47.5291 46.3786 42.4114C42.4137 35.8696 47.7981 34.6507 53.2067 35.9502C52.0906 32.3074 49.3686 27.0188 50.8951 23.1151C51.7855 20.8384 55.5988 23.4946 56.8342 24.245C57.159 22.1179 58.1804 16.9357 61.0617 20.6092Z" fill="#F4BB56"/>
<path d="M56.8342 24.2452C57.159 22.1181 58.1804 16.9359 61.0617 20.6095C60.0857 22.8953 63.7164 32.5548 64.6595 35.2067C65.3331 37.1009 68.4415 42.5185 69.9809 43.6671C69.7456 44.4575 69.5043 45.3483 69.2052 46.1086C66.4339 45.0427 66.6146 45.9234 66.9362 48.532C65.5079 47.5148 64.0493 46.4388 62.5522 45.5346C61.2526 46.3401 59.384 47.8633 58.7423 49.2574C54.0981 46.452 49.4805 47.5294 46.3786 42.4116C42.4137 35.8698 47.7981 34.6509 53.2067 35.9504C52.0906 32.3076 49.3686 27.019 50.8951 23.1153C51.7855 20.8386 55.5988 23.4948 56.8342 24.2452Z" fill="#F3A62C"/>
<path d="M153.744 126.178C153.95 125.233 153.919 124.091 154.006 123.098C155.17 109.782 162.264 95.2342 173.365 87.4911C176.059 85.6112 186.57 80.4764 188.962 83.8876C191.07 86.8939 189.423 93.3705 188.681 96.7838C190.917 95.2662 195.487 94.4264 197.78 96.1592C198.917 100.113 197.053 104.5 195.114 107.907C192.911 111.777 188.85 118.065 185.96 121.29C182.354 125.317 173.976 131.622 168.97 133.517C169.096 133.129 170.454 131.636 170.961 130.599C166.469 132.14 164.815 135.875 159.177 133.124C158.445 132.728 158.078 132.279 157.551 131.652C157.55 130.714 157.734 129.696 157.731 128.578C156.684 127.819 154.902 126.793 153.744 126.178Z" fill="#F4BB56"/>
<path d="M188.681 96.7842C190.918 95.2666 195.487 94.4268 197.781 96.1596C198.917 100.114 197.053 104.501 195.115 107.907C192.911 111.777 188.85 118.065 185.96 121.291C182.354 125.318 173.977 131.623 168.97 133.517C169.096 133.129 170.455 131.636 170.961 130.6C166.469 132.14 164.815 135.876 159.178 133.124C159.648 132.845 160.253 132.626 160.683 132.397C166.056 129.533 174.169 121.877 178.1 117.178C179.804 115.135 181.334 112.953 182.673 110.655C185.654 105.569 186.765 102.13 188.681 96.7842Z" fill="#F3A62C"/>
<path d="M85.3913 41.6263C83.2615 38.2172 81.4245 26.0958 81.3778 22.0403C81.3637 20.8062 81.5182 19.6359 81.7964 18.4365C82.6194 14.8875 84.5374 11.1778 87.7481 9.20208C88.5985 8.67868 89.5379 8.52848 90.5091 8.76174C91.5329 9.00763 93.0086 9.63296 93.5731 10.5763C95.6846 14.105 93.6135 29.1717 92.3514 33.5278C91.8117 35.3902 90.9467 37.1114 90.283 38.9263C89.8675 40.0624 89.7129 41.3435 89.1057 42.3979C88.6195 42.0197 86.447 41.8848 85.3913 41.6263Z" fill="#F3A62C"/>
</svg>
