<svg width="250" height="250" viewBox="0 0 250 250" fill="none" xmlns="http://www.w3.org/2000/svg">
<g clip-path="url(#clip0_114_162)">
<path d="M104.934 64.6426C110.264 41.9645 89.7607 39.2989 84.6525 21.4785C83.8683 18.7417 84.9978 13.9548 86.8087 11.593C94.3862 1.71004 106.872 15.2611 115.533 14.7242C125.526 14.2325 131.788 1.38885 141.095 -0.213218C152.822 -2.23189 160.668 14.4142 162.143 23.6094C164.17 36.2421 162.027 45.8827 154.826 56.1577C152.771 60.6727 148.908 67.8463 147.355 72.0716C152.538 66.4543 157.774 60.8867 163.064 55.3696C167.389 50.8153 171.047 46.5507 176.168 42.652C183.154 37.3332 195.979 38.1205 196.311 49.0644C196.278 56.3076 191.755 64.5954 198.632 70.2305C204.865 75.3386 215.536 79.9857 214.814 89.7222C212.772 117.241 173.702 100.977 161.401 94.8051C170.988 103.165 184.411 116.705 185.026 129.993C185.968 150.35 166.721 136.496 158.371 138.538C146.364 141.475 136.938 165.679 122.956 148.777C120.603 143.355 120.49 143.514 120.072 137.419C120.185 136.233 120.746 133.587 120.98 132.311C122.081 125.09 124.708 116.009 127.622 109.362C127.063 108.02 127.132 107.518 126.046 106.877C124.505 107.843 124.024 111.055 122.238 111.797C112.377 121.109 112.973 140.684 101.228 148.091C95.8882 151.458 89.0854 152.845 82.9243 151.483C71.5304 150.518 75.363 138.286 70.1119 134.96C58.5504 127.637 49.5131 128.134 53.5724 110.38C57.0041 95.3701 74.2087 106.18 84.5485 105.836C93.1188 105.55 96.5888 105.132 104.054 100.53C90.7606 103.388 74.3586 101.181 63.0103 94.3792C51.4819 86.3906 58.817 82.2262 65.9516 76.2161C67.9791 74.5079 58.4535 55.219 57.5785 50.9337C56.0592 43.4927 57.4566 32.9515 66.2946 31.4138C80.9908 28.857 86.8182 45.2175 93.4848 54.6796C96.152 58.4508 101.203 62.294 104.934 64.6426Z" fill="#6755A8"/>
<path d="M147.354 72.0718C152.537 66.4545 157.774 60.8869 163.063 55.3698C167.388 50.8155 171.047 46.5509 176.168 42.6522C183.154 37.3334 195.979 38.1207 196.311 49.0646C196.278 56.3077 191.755 64.5956 198.631 70.2307C204.865 75.3388 215.536 79.9858 214.814 89.7224C212.772 117.241 173.702 100.978 161.401 94.8053C170.987 103.165 184.411 116.705 185.025 129.994C185.968 150.35 166.721 136.496 158.371 138.538C146.363 141.475 136.937 165.679 122.956 148.777C120.603 143.355 120.49 143.514 120.072 137.419C120.185 136.233 120.746 133.588 120.979 132.311C122.081 125.09 124.707 116.009 127.621 109.362L128.107 111.127L128.416 111.545L128.951 111.617C130.379 109.929 131.466 106.148 133.022 103.723C133.803 109.251 134.52 111.619 136.589 116.661C139.004 111.058 139.965 106.543 140.644 100.609C142.52 104.731 146.047 109.416 150.787 110.273C151.668 109.907 151.445 110.153 151.768 109.417C151.82 106.329 149.084 103.043 147.311 100.452C150.103 102.18 154.861 104.892 158.231 103.529L158.242 102.839C156.552 100.935 150.043 97.605 147.528 96.2122L156.474 93.3198C153.573 92.4236 147.342 91.2075 146.358 88.3085C147.041 85.6068 150.213 84.1544 152.635 82.6328L148.915 80.5964C152.271 76.1286 155.664 71.6789 158.831 67.0758C153.699 70.4943 147.309 76.3326 142.907 80.5732C144.216 77.872 145.715 74.5267 147.354 72.0718Z" fill="#6755A8"/>
<path d="M127.622 109.362L128.108 111.127C127.706 115.207 122.937 129.46 120.98 132.311C122.081 125.09 124.708 116.009 127.622 109.362Z" fill="#3F863A"/>
<path d="M128.148 70.5041C124.706 62.3938 119.105 49.7648 117.37 41.4111L117.62 41.2927C121.677 46.2879 129.886 63.6711 132.454 69.8232C135.829 63.6086 137.718 59.0626 139.73 52.3501C142.624 60.8482 140.906 65.463 137.933 73.6544C142.119 68.617 147.307 61.4099 152.059 56.9831C152.556 56.5199 154.106 56.2566 154.826 56.1577C152.771 60.6727 148.908 67.8463 147.355 72.0716C145.716 74.5265 144.216 77.8718 142.907 80.573C147.309 76.3324 153.7 70.4941 158.831 67.0756C155.664 71.6788 152.272 76.1284 148.916 80.5962L152.635 82.6327C150.213 84.1542 147.041 85.6066 146.358 88.3083C147.342 91.2074 153.573 92.4234 156.474 93.3196L147.529 96.212C150.043 97.6049 156.553 100.935 158.242 102.838L158.232 103.528C154.861 104.891 150.103 102.179 147.311 100.452C149.084 103.043 151.82 106.329 151.769 109.416C151.446 110.153 151.668 109.906 150.787 110.272C146.047 109.416 142.521 104.731 140.645 100.609C139.965 106.543 139.004 111.058 136.589 116.661C134.52 111.619 133.804 109.251 133.022 103.723C131.467 106.148 130.379 109.929 128.951 111.617L128.416 111.545L128.108 111.127L127.622 109.362C127.063 108.02 127.132 107.518 126.046 106.877C124.505 107.843 124.024 111.055 122.238 111.797C120.066 108.488 119.896 107.136 119.238 103.166C115.773 109.899 111.514 119.322 107.793 125.509C107.247 116.246 109.49 112.749 113.501 104.632C113.893 103.838 113.627 103.251 113.253 102.545C110.996 101.533 107.237 103.129 104.832 103.911C109.775 100.474 113.458 97.6918 118.064 93.8254C111.155 96.4273 106.201 97.919 99.0187 99.6471C103.86 95.8205 109.037 93.0828 114.656 90.6229C104.208 91.5985 98.1434 92.3117 88.4983 87.1961C97.264 87.0433 107.023 86.8389 115.727 86.2462L101.703 72.1022C106.972 74.0546 109.893 74.7384 115.469 75.3378C112.39 71.7305 109.373 68.0698 106.421 64.3574C111.808 66.725 118.836 70.574 124.22 73.3377C119.594 68.3496 116.18 63.535 113.603 57.1859C118.201 61.8433 123.187 66.2378 128.148 70.5041Z" fill="#4D3486"/>
<path d="M118.426 85.3395C117.261 81.0253 122.088 75.081 126.249 74.1828C130.385 73.29 134.128 74.5703 137.662 76.5885C138.748 75.942 140.148 76.2346 140.884 77.2611C141.62 78.2876 141.447 79.707 140.486 80.5269C141.7 81.3109 141.94 82.2588 142.386 83.6677C142.689 85.8445 142.362 85.9596 141.284 87.8578L141.315 88.8317C139.395 90.0118 138.645 87.6165 136.902 90.1493C137.581 92.2755 138.318 91.7453 137.744 93.1857L136.526 93.9482C136.377 94.6204 135.948 95.1966 135.347 95.5327C134.746 95.8688 134.03 95.9321 133.379 95.7069C131.919 96.6842 130.708 97.154 128.924 97.305C127.918 97.7148 127.539 97.7703 126.486 97.9628C124.988 97.2856 125.032 96.8514 124.005 95.3658C122.81 94.4966 122.501 93.8592 121.992 92.5197C120.769 90.3641 119.088 87.6658 118.426 85.3395Z" fill="#201E20"/>
<path d="M124.005 95.3656C125.577 93.2082 126.839 93.8063 127.667 92.9384C127.701 92.9032 127.167 91.4942 128.158 90.3307C129.541 90.1163 129.004 90.048 130.332 90.764L130.715 91.7094C129.514 94.3424 127.542 91.9106 129.253 95.5622L128.924 97.3048C127.917 97.7145 127.539 97.77 126.486 97.9625C124.988 97.2853 125.032 96.8511 124.005 95.3656Z" fill="white"/>
<path d="M137.662 76.5883C138.748 75.9418 140.148 76.2344 140.884 77.2609C141.62 78.2874 141.447 79.7067 140.486 80.5267C139.787 81.1223 138.813 81.2742 137.966 80.9191C137.12 80.5644 136.545 79.7626 136.481 78.847C136.417 77.9315 136.874 77.0577 137.662 76.5883Z" fill="white"/>
<path d="M120.348 87.1694C119.639 86.1482 119.817 84.7567 120.76 83.947C121.704 83.1378 123.106 83.1722 124.009 84.0273C124.911 84.8821 125.021 86.2807 124.263 87.2658C123.505 88.2509 122.124 88.5034 121.066 87.8507C120.782 87.6756 120.538 87.4434 120.348 87.1694Z" fill="white"/>
<path d="M133.379 95.7066C132.152 95.2827 131.48 93.9648 131.857 92.723C132.234 91.4813 133.526 90.7594 134.781 91.0889C136.037 91.418 136.808 92.6808 136.526 93.9478C136.377 94.62 135.948 95.1962 135.347 95.5323C134.746 95.8684 134.03 95.9317 133.379 95.7066Z" fill="white"/>
<path d="M141.284 87.8577C139.722 87.6694 139.085 87.1958 138.388 85.8005C138.437 84.3228 138.239 84.8506 139.177 83.704C140.397 83.0799 141.015 83.3522 142.386 83.6676C142.689 85.8444 142.362 85.9595 141.284 87.8577Z" fill="white"/>
<path d="M118.426 85.3394C119.005 86.1453 119.409 86.9338 120.348 87.1697C120.538 87.4437 120.782 87.6759 121.066 87.851C121.689 89.325 122.323 90.8788 121.992 92.5196C120.769 90.3639 119.088 87.6656 118.426 85.3394Z" fill="#232127"/>
<path d="M122.666 77.8568C123.439 77.3597 124.426 77.3427 125.216 77.8125C126.005 78.2823 126.461 79.1581 126.392 80.0741C126.324 80.9905 125.743 81.789 124.893 82.1363C123.733 82.6098 122.405 82.1222 121.827 81.0116C121.249 79.9015 121.613 78.5339 122.666 77.8568Z" fill="white"/>
<path d="M127.294 84.4809C128.022 83.9859 128.961 83.9254 129.746 84.3232C130.531 84.721 131.038 85.514 131.069 86.3936C131.1 87.2728 130.65 88.0998 129.895 88.5514C128.773 89.2227 127.321 88.8804 126.617 87.779C125.913 86.6776 126.213 85.216 127.294 84.4809Z" fill="white"/>
<path d="M129.688 79.0784C130.731 78.3143 132.19 78.5059 132.999 79.5134C133.808 80.5208 133.68 81.9869 132.709 82.8392C132.042 83.4249 131.107 83.5971 130.274 83.2879C129.442 82.9783 128.847 82.2374 128.724 81.3578C128.602 80.4786 128.972 79.6032 129.688 79.0784Z" fill="white"/>
<path d="M134.185 85.6982C134.849 85.3157 135.668 85.3211 136.326 85.7122C136.985 86.1034 137.382 86.8194 137.364 87.5852C137.345 88.3509 136.916 89.0471 136.239 89.4068C135.217 89.9495 133.949 89.5737 133.389 88.5616C132.828 87.5496 133.183 86.2756 134.185 85.6982Z" fill="white"/>
<path d="M128.7 74.513C129.461 74.0871 130.422 74.3512 130.858 75.1062C131.293 75.8612 131.041 76.826 130.291 77.2705C129.798 77.5632 129.185 77.5677 128.688 77.283C128.19 76.9982 127.884 76.468 127.886 75.8947C127.889 75.3214 128.2 74.7937 128.7 74.513Z" fill="white"/>
<path d="M117.121 188.795C115.85 175.78 117.55 150.165 120.072 137.419C120.49 143.514 120.603 143.355 122.956 148.777C123.104 170.375 124.836 188.981 127.423 210.31C134.387 180.356 154.286 173.731 173.55 151.79C172.602 170.63 175.781 187.03 166.17 204.324C157.953 219.107 146.897 227.459 130.815 232.285C131.387 236.071 132.779 247.881 129.615 249.995C121.251 250.56 118.565 206.565 117.829 199.18C107.777 201.55 94.7211 200.73 85.0809 197.24C54.3636 186.118 48.7937 164.938 36 138.976C71.934 154.77 96.3602 149.416 117.121 188.795Z" fill="#5CAC56"/>
</g>
<defs>
<clipPath id="clip0_114_162">
<rect width="250" height="250" fill="white"/>
</clipPath>
</defs>
</svg>
