<svg width="250" height="250" viewBox="0 0 250 250" fill="none" xmlns="http://www.w3.org/2000/svg">
<g clip-path="url(#clip0_119_613)">
<path d="M86.3579 5.72221C99.2825 -4.55587 118.927 -0.286965 128.415 12.8568C129.866 14.8668 130.903 17.2103 131.976 19.4461C139.513 24.2503 143.793 28.7946 144.759 38.1689C145.403 44.3827 143.828 48.9879 139.87 53.8268C141.669 56.0828 143.099 58.2975 144.168 60.9843C146.249 66.2359 146.129 72.1046 143.835 77.267C142.072 81.3054 138.883 84.9488 134.705 86.5464C132.263 96.5116 126.992 101.81 117.026 104.406L115.572 105.042C109.918 105.817 106.062 105.793 100.449 105.669C98.3157 108.261 95.5464 110.255 92.4117 111.456C84.5309 114.515 74.1332 112.938 68.4044 106.496C66.0927 103.897 65.149 101.574 63.9666 98.3952C49.5945 102.055 34.5183 89.7802 34.3438 75.1217C34.291 70.6981 35.4125 67.2749 37.1106 63.2552C33.4938 58.9378 31.1878 55.212 30.9294 49.434C30.3181 35.7734 39.0828 19.9761 53.8988 19.2341C56.1216 9.55251 62.0065 4.86482 71.5447 3.13552C77.1047 2.12768 81.4546 2.82117 86.3579 5.72221Z" fill="#FC6099"/>
<path d="M93.0955 21.2911C109.518 19.234 116.141 37.0329 118.056 50.0601C114.838 44.3525 111.443 36.9196 107.747 31.6227C98.197 18.635 81.4821 27.5654 69.9321 32.3657C77.695 26.4404 82.9788 22.2391 93.0955 21.2911Z" fill="#C6407E"/>
<path d="M53.8145 41.6431C54.2807 42.5047 53.7802 47.4023 53.6057 48.4806C51.7291 60.0766 56.0798 71.4943 65.1741 78.9255C66.2832 79.8317 69.5283 81.7238 70.2105 82.8269C69.197 83.3604 68.923 83.1267 67.5923 83.0775C50.9606 78.9796 43.5095 55.0247 53.8145 41.6431Z" fill="#C6407E"/>
<path d="M106.389 49.6367C106.659 49.7624 107.122 49.9465 107.266 50.1939C112.757 59.6128 110.626 73.7432 102.541 81.122C98.2561 85.0323 94.9415 85.4164 89.8365 85.2294C88.6885 84.9526 87.5451 84.7901 86.9082 83.8626C88.4159 82.5893 94.7451 83.4856 99.3574 78.4907C107.852 69.2909 106.424 60.7039 106.389 49.6367Z" fill="#C6407E"/>
<path d="M79.6617 40.9365C79.8408 42.2354 76.6431 48.6814 76.0473 51.1208C73.6656 60.8725 88.0788 64.5838 89.6704 66.9524C88.4834 67.5104 88.2091 67.2487 86.6907 67.1602C83.5968 66.55 81.4586 66.0165 78.6468 64.4114C69.0526 58.9343 70.6747 46.3627 79.6617 40.9365Z" fill="#C6407E"/>
<path d="M86.4763 47.0199C94.8067 46.6694 95.5218 52.9483 91.5407 58.9023L90.9484 58.5979C90.2263 55.7743 89.7144 56.8979 87.9288 54.7736C86.9539 53.6135 87.8031 51.5702 88.0314 49.8441C87.2643 48.6848 87.1688 48.957 85.5772 48.3187L85.4961 47.8596L86.4763 47.0199Z" fill="#C6407E"/>
<path d="M124.563 122.349C126.701 102.34 136.578 104.119 148.005 90.4599C156.635 80.1461 166.965 61.6343 176.732 52.9928C186.506 44.3431 211.495 45.9924 224.777 42.8308C220.327 44.7343 215.177 46.6448 210.929 48.7993C200.988 53.8427 189.82 62.486 184.364 72.3977C177.794 84.3354 175.904 95.7392 164.76 104.699C161.485 107.352 157.899 109.596 154.083 111.381C144.178 116.028 132.73 118.484 128.556 129.97C126.751 134.941 128.691 136.716 129.484 141.677C130.439 147.646 130.995 153.819 130.91 159.862C131.2 164.959 128.007 182.265 128.719 185.034C128.928 185.174 129.292 185.443 129.508 185.528C128.184 186.296 128.574 185.795 127.908 186.888C128.429 187.734 128.106 187.415 128.945 187.806C128.085 188.436 127.427 189.122 127.083 190.151C123.242 201.708 119.582 212.564 114.488 223.688L118.771 219.3C119.564 219.228 119.586 219.12 120.283 219.326L120.549 219.959L121.653 219.23L122.088 219.728C121.448 220.389 121.09 220.581 120.333 221.094L120.46 221.618C118.471 222.799 114.63 224.894 113.245 226.559C110.159 230.276 101.7 250.535 96.8258 249.984C93.9764 247.676 99.7973 240.441 101.092 237.374C100.829 235.063 100.604 232.61 100.166 230.343C96.5079 210.995 86.7003 215.185 76.6035 203.254C72.6503 198.582 69.8381 183.905 63.8619 179.013C54.2497 171.086 37.6944 162.2 33.1714 149.725C29.3195 139.102 25.1901 117.931 25.8042 106.773C28.1138 109.841 29.9638 114.227 31.6028 117.726C36.071 127.263 40.5087 138.189 47.9973 145.813C54.7881 152.727 64.5656 159.959 72.7084 165.401C82.8566 172.184 91.9894 177.137 99.49 187.393C108.916 200.282 106.682 214.945 104.301 229.706C104.179 230.602 104.029 231.013 104.302 231.862C105.475 230.834 108.131 225.578 108.997 223.817C117.03 207.493 125.005 186.454 127.214 168.348C118.743 151.286 104.865 157.677 91.4036 150.008C87.5226 147.796 77.4559 131.352 72.5484 127.919C71.543 127.215 68.0883 124.546 68.2278 123.414C72.907 122.493 94.1768 139.613 100.7 141.566C115.274 145.929 120.945 141.018 126.404 157.842L127.179 157.414C127.512 156.215 127.473 152.576 127.583 150.93C127.972 137.535 120.619 117.234 115.571 105.041L117.026 104.405C120.304 110.002 122.704 116.146 124.563 122.349Z" fill="#408E8A"/>
<path d="M25.8042 106.774C28.1138 109.841 29.9638 114.227 31.6028 117.726C36.071 127.263 40.5087 138.189 47.9973 145.813C54.7881 152.728 64.5656 159.959 72.7084 165.401C82.8565 172.184 91.9894 177.137 99.49 187.393C108.916 200.282 106.682 214.945 104.301 229.706C101.821 225.955 102.533 217.934 99.1364 212.483C95.1595 206.098 92.2004 198.448 85.9781 193.416C83.2541 191.001 80.3785 188.743 77.9172 186.074C74.4455 182.307 71.8057 174.147 68.2773 170.92C58.9721 162.531 46.7969 156.544 40.1215 145.494C36.7974 139.992 34.0341 133.407 31.8796 127.323C31.1281 125.2 30.2629 117.653 28.3187 116.94C28.1102 118.22 29.2749 121.635 29.6498 123.019C32.0991 132.062 34.8585 141.019 40.3158 148.702C47.2256 158.429 56.5974 163.752 65.6184 171.075C69.1712 173.96 71.3649 181.398 74.4621 184.934C77.6248 189.034 82.4314 191.985 85.7264 195.386C89.9812 199.778 95.4002 208.724 98.2209 214.249C98.97 215.716 100.106 220.457 100.813 222.166C101.254 223.229 100.175 228.4 100.166 230.344C96.5079 210.996 86.7003 215.185 76.6035 203.254C72.6503 198.583 69.8381 183.905 63.8619 179.013C54.2497 171.087 37.6944 162.2 33.1714 149.726C29.3195 139.102 25.1901 117.931 25.8042 106.774Z" fill="#41908C"/>
<path d="M127.583 150.93C128.053 154.207 127.816 159.866 127.728 163.31C127.204 161.45 126.691 159.763 126.404 157.842L127.179 157.414C127.512 156.215 127.473 152.576 127.583 150.93Z" fill="#B7F2F9"/>
<path d="M201.686 46.8162C202.341 47.1319 203.218 47.3093 203.937 47.4976C184.389 52.4402 176.258 62.2188 167.91 79.8661C164.756 86.5348 159.131 94.3023 152.603 98.0455C142.167 104.031 130.666 109.75 127.356 122.422C127.009 123.434 126.967 123.641 126.411 124.59C125.759 116.517 136.645 104.869 143.35 101.424C150.26 97.8738 154.412 95.4524 159.605 89.4068C168.105 79.5121 170.459 65.94 180.541 57.1732C187.207 51.2914 193.66 49.6404 201.686 46.8162Z" fill="#287273"/>
<path d="M145.775 161.795C140.27 152.365 140.921 138.411 151.485 131.905C155.251 129.587 159.28 129.858 162.122 125.723C163.917 123.544 172.353 122.404 174.859 123.648C178.375 124.736 179.922 126.324 182.049 128.944C194.995 125.795 205.76 136.189 205.534 148.796C207.428 151.104 209.275 153.229 210.171 156.131C212.794 164.609 209.948 171.391 201.937 174.768C201.604 178.023 198.797 182.235 196.28 184.145C189.71 189.122 182.336 188.667 175.674 184.437C164.944 185.744 157.223 185.696 149.697 176.758L149.4 175.962C145.838 171.834 145.357 167.414 145.739 162.209L145.775 161.795Z" fill="#FC6099"/>
<path d="M169.634 135.807L170.282 135.858C170.233 136.543 166.201 140.641 165.305 142.058C164.144 143.895 163.326 145.927 162.887 148.056C161.687 153.949 162.487 160.75 167.312 164.765C168.774 165.982 171.787 168.444 172.746 169.885L172.555 170.297L171.355 170.255C163.379 168.09 158.115 162.06 158.172 153.636C158.232 144.323 160.823 139.264 169.634 135.807Z" fill="#C6407E"/>
<path d="M170.488 151.77C172.941 149.008 175.738 146.156 179.398 145.534C184.768 144.621 189.402 149.611 189.639 154.722C189.699 156.003 189.728 156.038 188.991 156.925L188.478 156.859C189.14 151.699 185.409 149.13 181.356 146.864L179.341 151.147C183.225 152.592 183.543 153.813 181.278 157.184L181.391 157.745C182.892 158.445 184.648 159.158 186.085 159.874C182.896 159.641 178.754 159.886 177.235 156.526C177.377 150.744 179.639 150.205 179.89 147.271L179.274 146.975C175.631 147.512 174.084 149.618 170.842 151.561L170.488 151.77Z" fill="#C6407E"/>
<path d="M179.026 152.089C179.95 152.834 180.173 152.878 180.647 153.972C180.46 155.575 180.757 154.899 179.826 156.115L179.008 156.473L178.325 155.962C178.626 154.753 178.821 153.333 179.026 152.089Z" fill="#FC6099"/>
<path d="M188.057 143.393C191.83 146.666 195.781 150.966 196.181 156.249C196.602 161.807 194.167 167.861 189.508 171.104C188.432 171.532 188.227 171.762 187.133 171.457C188.754 170.631 189.781 169.863 191.08 168.619C193.926 163.844 194.985 159.81 193.869 154.076C193.013 149.688 189.795 146.726 188.057 143.393Z" fill="#C6407E"/>
<path d="M191.08 168.619C191.062 169.682 190.322 169.8 189.508 171.104C188.432 171.532 188.227 171.762 187.133 171.457C188.754 170.631 189.781 169.863 191.08 168.619Z" fill="#B52E62"/>
<path d="M118.771 219.3C122.563 215.621 128.301 211.658 133.859 211.985C142.447 212.491 147.251 218.579 155.496 211.945C163.032 205.88 171.72 201.163 181.228 199.211C182.757 198.897 186.212 197.852 187.639 198.248C185.536 200.101 181.593 198.737 176.304 204.374C168.264 212.94 170.558 227.955 155.74 226.557C144.493 225.496 132.167 218.698 120.46 221.618L120.333 221.094C121.09 220.581 121.448 220.389 122.088 219.728L121.653 219.23L120.549 219.959L120.283 219.326C119.586 219.12 119.564 219.228 118.771 219.3Z" fill="#41908C"/>
<path d="M172.204 204.101C172.495 204.255 172.307 204.129 172.629 204.631C171.67 205.798 170.76 206.632 169.822 207.773C167.702 210.349 165.624 213.913 163.092 216.035C152.402 225.007 139.813 215.584 128.05 217.557C126.761 217.773 124.34 218.82 123.03 219.367L122.51 218.838L122.747 218.233C130.723 212.613 142.005 219.049 151.046 219.059C163.733 219.073 164.501 211.621 172.204 204.101Z" fill="#287273"/>
<path d="M149.4 175.962L149.697 176.758C142.868 182.402 137.771 185.7 128.945 187.806C128.106 187.415 128.429 187.734 127.908 186.888C128.574 185.795 128.184 186.296 129.508 185.528C138.05 182.696 141.704 180.464 149.4 175.962Z" fill="#41908C"/>
</g>
<defs>
<clipPath id="clip0_119_613">
<rect width="250" height="250" fill="white"/>
</clipPath>
</defs>
</svg>
