<svg width="250" height="250" viewBox="0 0 250 250" fill="none" xmlns="http://www.w3.org/2000/svg">
<path d="M145.433 27.1815C147.135 10.3706 154.463 0.59892 172.063 0.00939564C183.177 -0.36322 188.187 10.4161 188.322 20.064C188.453 29.5941 185.014 36.1203 178.64 42.7553C182.065 42.2243 185.567 42.2491 189.191 42.3274C199.265 42.5447 213.998 46.9716 213.85 59.3642C213.813 62.5116 211.851 65.965 209.348 68.0248C200.098 75.6328 189.493 74.2103 178.397 73.3895C186.094 80.9471 194.935 93.4657 188.628 104.357C186.535 107.953 183.083 110.558 179.05 111.587C169.426 114.124 159.059 110.3 153.23 102.527C146.928 94.1218 149.093 89.645 146.784 80.5394L146.086 78.6268C144.362 79.2177 143.408 82.0024 142.395 83.7885C134.572 93.2272 123.278 95.0327 112.398 89.7404C110.611 92.6089 108.774 95.678 106.92 98.4825C117.782 95.606 132.262 94.5683 134.347 108.908C134.049 111.029 133.847 112.556 133.284 114.632C124.745 126.796 117.998 129.207 103.809 123.181L101.451 122.453L98.1376 121.613C99.5015 123.408 100.973 125.854 101.707 127.869C110.737 152.653 68.2351 161.188 68.6267 134.767C68.6627 132.224 69.8016 129.249 70.8864 127.014C61.483 131.971 48.4561 135.794 40.4707 127.418C30.1176 116.558 45.1971 104.035 56.0409 103.675C58.3141 103.599 60.1821 103.517 62.3068 103.537C51.7466 96.745 47.1868 87.8121 52.962 75.8718C56.6981 68.1472 66.4976 69.0162 73.074 72.2325C79.484 75.3677 83.1616 80.2959 85.3897 86.9413C88.8108 79.2604 92.5829 72.1002 100.753 68.9194L100.811 68.3632C102.022 57.2684 112.798 49.6514 123.579 50.8219C111.88 42.8035 99.0244 31.6079 104.264 16.5534C110.449 -1.21871 135.175 8.56335 141.877 20.6959C143.192 23.0801 144.286 24.8797 145.433 27.1815Z" fill="#D96F73"/>
<path d="M135.607 28.2937C142.584 30.6045 145.307 40.7183 148.309 39.5293C149.511 38.1122 149.655 36.133 149.993 34.2637C150.457 38.7499 150.934 42.7191 151.64 47.1706C152.176 41.513 153.378 37.4975 155.106 32.1468C155.435 36.1879 155.26 40.4339 155.183 44.4993C158.991 37.2414 160.355 34.6363 167.044 30.0483C163.704 35.9674 160.414 41.9135 157.173 47.8866L171.113 44.4719C168.133 47.1648 166.576 48.7426 164.154 51.926C167.742 51.2964 171.334 50.6961 174.935 50.1246C171.199 52.6847 166.27 55.5369 162.345 57.9531C168.183 57.0963 171.181 57.099 176.893 57.4207C172.225 58.5845 166.95 60.0844 162.484 61.8039C171.487 62.8808 177.298 63.9919 186.148 66.0917C178.135 66.413 170.11 66.017 162.169 64.9077L161.705 65.3064L162.682 67.2239C164.942 70.6846 166.842 73.0413 169.605 76.0573C162.768 74.2735 160.954 72.0306 156.623 66.6961C157.78 69.8336 161.827 79.7588 161.345 82.449L160.688 82.3572C158.352 80.0625 152.743 70.9937 150.587 67.6604C151.654 72.5022 152.442 77.1522 152.739 82.1015C151.582 79.7786 149.282 72.3312 147.774 71.3277C146.959 71.7673 146.599 72.0562 145.672 72.0733C144.339 69.5811 145.433 68.1906 144.456 66.1398C142.305 66.0705 139.1 69.2319 137.299 70.7485L138.78 64.1598C136.907 65.1754 131.884 68.5978 129.975 67.844C130.529 65.8559 134.063 63.5495 135.692 62.4816C133.5 62.6013 129.993 63.3961 129.161 61.06C130.903 58.0485 135.476 58.0201 138.456 58.0377C134.742 55.3632 132.451 52.6231 129.62 49.1525C133.527 50.0625 135.796 50.6745 139.586 52.0268C138.487 50.2636 137.137 49.0994 136.363 47.0437L136.763 46.4484C137.889 46.5357 139.014 46.6545 140.135 46.8048L140.396 46.4164C139.644 45.1721 139.019 44.2622 138.645 42.8361L139.244 42.332C141.796 42.2177 142.705 42.684 145.086 43.6074C142.089 38.8795 138.231 33.126 135.607 28.2937Z" fill="#B23021"/>
<path d="M147.837 46.8715C149.957 44.9383 150.133 45.5327 152.559 46.4953C155.872 48.3953 158.609 49.7413 159.82 53.5516C161.589 59.0995 155.053 66.1584 149.791 63.1163L150.097 62.6753L151.875 62.9629L152.321 62.4471C152.226 61.2613 152.433 61.7114 151.407 60.7911C149.192 60.9783 147.351 61.291 145.163 61.6619L144.173 60.5022C145.821 58.9145 145.632 60.0994 146.014 58.1229L145.564 57.2706C144.421 57.0537 144.218 57.0892 143.093 57.2292L142.917 56.3161C143.601 56.0272 144.277 55.7194 144.947 55.3944C144.961 53.1291 143.178 53.7897 143.827 52.0175C145.551 52.5274 145.902 52.9607 147.383 52.4234C148.809 49.2922 145.465 50.086 146.203 47.8881L147.837 46.8715Z" fill="#201E20"/>
<path d="M147.837 46.8715C149.957 44.9383 150.133 45.5327 152.559 46.4953C150.961 48.8233 151.334 48.9119 150.164 51.1382C149.232 50.5905 148.836 48.2819 147.837 46.8715Z" fill="white"/>
<path d="M155.305 50.7539C155.831 50.3858 156.511 50.3314 157.087 50.6117C157.663 50.8921 158.041 51.4627 158.077 52.1027C158.113 52.7421 157.794 53.3501 157.254 53.6899C156.444 54.197 155.377 53.9666 154.85 53.1705C154.319 52.3745 154.521 51.3025 155.305 50.7539Z" fill="white"/>
<path d="M156.147 55.2115C156.66 54.8208 157.353 54.7457 157.943 55.0157C158.528 55.2853 158.924 55.8568 158.965 56.5035C159.005 57.1497 158.69 57.7671 158.141 58.1105C157.34 58.61 156.291 58.3922 155.755 57.6155C155.219 56.8392 155.39 55.7798 156.147 55.2115Z" fill="white"/>
<path d="M72.5381 91.248C73.9515 91.7592 79.9833 101.431 81.2662 103.386L83.994 92.7056C84.5972 95.3729 85.538 97.6113 86.5328 100.139L89.3146 92.3109C89.6567 95.993 89.9313 99.6809 90.1384 103.373C91.4348 99.8762 93.0372 96.9115 95.0178 93.7654L92.7176 104.911C96.7869 99.639 100.257 95.1285 104.876 90.3169C101.509 96.6248 98.7675 101.071 94.5227 106.819C96.4313 106.737 103.188 105.608 104.489 106.812L103.539 106.468L103.516 107.603C100.203 109.222 98.4929 109.696 95.0133 110.692C99.6452 111.298 105.236 111.962 109.62 113.364C106.168 114.172 97.2145 114.625 93.0147 115.049C94.7253 115.547 96.4493 116.086 98.1598 116.604C99.6542 117.06 102.233 118.187 103.773 118.81C101.918 118.617 95.729 117.606 94.4371 118.15C94.2346 121.589 90.9891 118.224 89.1435 119.198C89.0625 120.913 89.8323 123.374 90.2779 125.105L86.0151 121.653C86.1367 123.635 86.4743 127.052 86.0962 128.874L85.4074 128.576C83.994 126.81 84.3406 125.867 83.6609 123.674C82.3375 125.347 82.4005 126.621 80.762 127.488C78.6779 125.314 79.9428 122.474 81.1266 120.245C80.6765 120.096 73.4428 121.986 72.1915 122.244C73.4834 120.644 76.1031 118.564 76.6388 117.349C75.6305 116.73 74.4016 116.969 73.0557 116.974L72.7451 116.616C73.4203 115.709 73.7309 115.299 74.2621 114.283C73.2628 113.827 72.259 113.385 71.2462 112.96C71.6513 111.504 72.6821 110.932 73.9155 109.777L58.6919 110.755C64.7507 107.269 66.9519 107.512 73.884 107.612L69.8057 103.284C72.439 104.434 75.3829 105.531 78.0702 106.596C74.8427 103.902 72.268 101.755 69.2971 98.7786C72.7991 100.331 74.9238 101.509 78.2143 103.408C74.9148 98.951 73.3123 96.6973 72.5381 91.248Z" fill="#B23021"/>
<path d="M84.1971 103.115C85.3494 103.053 87.0869 103.174 87.6856 104.217C87.1905 105.068 86.6998 105.924 86.2182 106.784C87.0014 107.827 86.5828 107.561 87.7621 107.852C88.7569 106.777 88.4689 107.032 88.7975 105.417L89.3916 105.499C90.4269 106.368 91.5793 107.879 91.1877 109.306C90.481 109.297 89.9768 109.245 89.2746 109.168C90.0983 110.087 90.3459 110.329 90.9086 111.428L90.3504 112.716C89.5987 112.564 89.4952 112.27 88.8695 111.681L88.1448 112.183L88.3158 113.167L87.5821 113.212C86.6098 114.535 87.0689 115.582 85.9076 116.351C85.453 115.479 85.3359 115.175 84.5752 114.494C83.2023 114.714 83.6254 114.623 82.5271 115.904C80.6455 113.585 80.5645 114.965 79.5607 113.776C80.1999 112.887 80.407 112.658 80.7536 111.6L80.0513 110.704C79.124 110.779 78.854 110.833 77.9987 111.079L77.7781 111.144C77.1119 110.28 77.3145 110.498 77.2605 109.229C80.9921 108.822 79.0115 106.922 79.5832 105.31L84.1971 103.115Z" fill="#201E20"/>
<path d="M142.395 83.7884C143.407 82.0023 144.362 79.2176 146.086 78.6267L146.784 80.5393C135.841 108.351 132.838 132.017 132.523 161.978C144.704 133.733 168.449 122.276 198.076 124.388C195.875 129.502 193.989 133.629 190.789 138.252C181.755 151.293 162.273 166.294 147.738 172.114C142.912 174.077 137.812 175.294 132.622 175.724C133.014 190.768 133.793 205.798 134.963 220.802C135.539 228.692 136.831 238.987 136.448 246.69C135.17 247.899 131.168 251.611 130.241 249.206C127.936 243.241 127.698 227.393 127.666 221.587C122.877 221.24 117.471 220.744 112.915 219.318C92.8167 213.03 63.4814 195.009 57.364 173.991C68.4554 173.135 76.5578 172.421 87.4601 175.813C107.05 181.906 119.24 194.85 127.027 213.282C125.587 181.053 117.633 150.418 101.45 122.453L103.809 123.181C115.495 142.955 121.405 160.74 126.347 183.159C126.905 186.093 127.59 188.912 128.283 191.814C128.053 188.919 127.963 185.892 127.828 182.982C127.468 158.222 128.72 138.98 133.284 114.632C133.847 112.555 134.049 111.029 134.346 108.908C134.301 108.949 141.981 85.2051 142.395 83.7884Z" fill="#5CAC56"/>
<path d="M126.347 183.159L127.828 182.982C127.963 185.892 128.053 188.919 128.283 191.814C127.59 188.912 126.906 186.093 126.347 183.159Z" fill="#18271F" fill-opacity="0.0156863"/>
</svg>
