<svg width="250" height="250" viewBox="0 0 250 250" fill="none" xmlns="http://www.w3.org/2000/svg">
<g clip-path="url(#clip0_164_873)">
<path d="M83.078 0.122671C87.0496 -0.0419353 92.108 1.16471 95.6581 2.90978C98.7003 0.346868 101.247 1.43099 104.766 2.23205C110.133 3.45376 116.067 5.04441 120.752 8.00744C125.321 10.8975 129.314 16.4178 130.457 21.7223C132.313 20.3664 134.166 18.6685 136.07 17.2535C141.141 13.4847 147.005 10.8084 153.147 9.25841C156.365 8.44652 162.436 6.91048 165.528 8.57384C166.439 9.06431 166.969 10.4385 167.192 11.4029C168.776 18.2273 167.274 22.669 163.741 28.5192C163.04 29.6792 161.984 31.0197 161.534 32.2086C161.006 33.6035 161.112 35.1786 161.171 36.6598C161.336 40.8043 159.357 43.0009 157.348 46.2994C159.135 46.4612 160.926 46.4316 162.733 46.691C173.686 48.2649 184.686 57.3088 186.161 68.6432C186.339 70.0165 185.895 72.1728 184.933 73.2008C182.655 75.6378 179.112 72.9581 176.734 72.0543C175.285 71.4449 173.789 70.8521 172.233 70.5895C169.575 70.1408 166.805 70.5382 164.113 70.6178C164.11 71.5605 164.108 72.502 164.121 73.4479C164.146 75.3255 163.957 77.2039 163.919 79.0797C163.944 79.1444 163.97 79.2103 163.995 79.275C165.118 79.2942 166.264 78.9886 167.385 78.9C171.596 78.3251 178.771 78.8479 179.684 84.1324C180.119 86.6533 178.785 90.1482 177.191 92.1998C172.936 97.6778 165.742 100.608 159.312 102.735C158.125 103.12 155.655 103.47 154.378 103.65C153.858 104.155 153.623 104.544 153.225 105.137C154.802 105.584 156.88 105.826 158.648 106.318C165.375 108.188 171.199 111.283 175.611 116.891C177.558 119.364 181.015 124.769 181.047 128.186C181.051 128.62 180.688 129.085 180.35 129.366C179.71 129.897 177.884 128.693 177.233 128.238C171.819 124.46 167.692 124.558 161.433 123.62C164.895 129.436 167.736 136.278 166.673 143.21C165.922 148.092 163.895 149.94 159.15 147.399C154.708 145.018 150.284 142.422 145.953 139.833C145.02 139.279 142.56 137.544 141.634 137.335L141.491 137.466C141.382 137.814 141.35 138.18 141.419 138.538C142.533 144.298 143.915 149.993 144.042 155.893C144.086 157.94 143.968 160.086 143.891 162.146C145.153 161.372 146.267 160.554 147.598 159.828C151.815 157.522 156.857 156.385 161.628 157.157C168.113 158.188 173.025 162.967 177.162 167.721C178.278 169.005 182.906 173.845 182.637 175.386C182.285 175.86 181.881 175.984 181.343 176.244C178.015 175.971 175.543 175.493 172.026 175.561C166.122 175.674 157.671 177.499 151.975 176.383C147.228 175.454 144.658 172.405 142.287 168.588C141.429 170.307 140.646 172.365 139.78 174.158C137.835 178.117 135.562 181.906 132.986 185.487C131.944 186.915 129.867 189.521 128.666 190.721C125.174 194.205 124.841 195.398 123.494 200.034C122.798 202.389 122.128 204.753 121.485 207.123C118.083 220.19 120.691 234.078 121.024 247.352C121.05 248.391 121.096 249.847 119.871 250.108C119.345 249.972 118.797 249.587 118.56 249.086C112.984 237.26 112.102 223.478 113.804 210.655C114.376 206.34 116.207 201.718 117.202 197.449C107.989 202.795 104.76 199.511 95.7528 196.504C93.8678 195.877 91.9184 195.463 89.9413 195.271C88.8232 195.163 88.1419 195.225 86.8856 195.244C84.7969 195.276 81.7688 196.047 79.8153 195.454C79.5319 195.367 79.2238 194.823 79.1981 194.456C79.099 193.034 81.2095 190.369 82.079 189.323C86.6329 183.849 93.2681 180.958 100.279 180.378C106.299 179.88 111.276 181.543 115.73 185.66C117.152 186.973 118.484 188.564 119.941 189.796L120.111 189.939C120.333 189.424 120.54 188.902 120.732 188.377C122.209 184.251 123.313 178.027 123.779 173.638C123.939 172.137 124.011 164.705 123.485 163.596C123.147 163.555 122.978 163.604 122.684 163.814C119.534 166.028 116.394 168.363 112.797 169.805C106.813 172.203 104.218 167.546 102.045 162.961C99.0874 156.72 97.4514 150.181 96.6425 143.344C96.3398 140.787 96.2898 138.204 95.9999 135.642C94.1274 136.218 92.0838 137.516 90.2919 137.978C82.6471 139.944 76.126 142.413 69.7469 147.234C68.0171 148.542 64.7217 150.043 63.6942 147.117C63.2171 145.758 62.984 144.463 63.0009 142.989C63.0503 129.502 70.9462 118.803 82.9052 113.563C82.2872 112.555 80.6247 110.67 79.8085 109.611C78.3408 107.67 77.0591 105.595 75.9813 103.414C73.6721 98.7996 70.8487 90.2719 70.5673 85.1871C70.4087 82.7377 70.7247 80.2807 71.4969 77.9508C72.5557 74.8223 74.8171 71.1806 78.6454 72.2711C81.6784 73.1353 84.3948 74.5198 87.2753 75.7819C89.846 76.8852 92.4476 77.916 95.076 78.8736C94.9993 75.2969 96.0704 69.634 97.6229 66.4332C93.475 65.3044 91.1825 64.1079 87.5536 61.7701C83.6367 59.2467 79.6917 56.7001 75.7245 54.2574C73.7632 53.05 71.4096 52.4374 69.5262 51.11C69.1414 50.842 69.0794 50.572 69.0428 50.1725C69.2174 49.775 69.4083 49.5568 69.7753 49.318C71.6972 48.0693 81.3078 47.2113 83.8905 47.0738C85.5218 46.9859 87.157 46.9965 88.787 47.1041C91.737 47.3113 94.6082 47.9565 97.4969 48.5582C96.8648 47.6546 95.4999 46.2997 94.6659 45.5611C91.3979 42.6864 89.4872 38.9486 87.493 35.1529C86.4439 33.1557 84.7566 30.3147 85.1727 27.9635C85.4322 26.4992 87.6394 25.4575 88.8446 24.7701C87.8165 23.3565 86.6857 22.0226 85.6532 20.569C83.8672 18.0006 82.2815 15.298 80.911 12.486C80.2141 11.0863 79.5453 9.71263 79.0673 8.21837C77.9775 4.81203 79.3768 1.01749 83.078 0.122671ZM135.151 132.853C135.999 134.994 136.908 136.345 137.661 138.711C138.497 141.335 138.532 142.837 138.996 145.305C140.207 151.734 139.524 160.667 136.655 166.533C135.231 169.445 128.353 184.43 126.71 186.046L126.478 186.1C125.635 184.953 127.026 179.016 126.952 177.503C126.862 175.663 127.236 161.031 126.42 160.616C125.612 160.73 124.874 161.853 124.559 162.537C126.908 173.99 124.599 182.94 120.74 193.671C119.395 197.41 117.855 201.413 116.849 205.24C115.409 210.717 114.852 216.929 114.9 222.586C114.985 227.207 115.007 232.283 115.712 236.825C115.885 237.939 118.411 245.113 119.103 245.739L119.315 245.684C119.644 244.86 118.052 224.908 118.036 222.04C118.043 218.105 118.407 214.179 119.127 210.311C120.046 205.364 122.092 198.557 124.105 194.016C125.216 191.516 129.558 187.087 131.286 184.754C139.325 173.899 144.383 162.039 141.582 148.305C140.805 144.497 140.67 139.908 139.494 136.121C139.085 134.625 136.635 132.995 135.097 132.713L135.151 132.853ZM91.162 184.804C86.7644 186.701 83.09 189.604 81.0809 194.049C85.1485 193.588 88.9248 192.966 93.0048 193.782C101.793 195.541 110.884 202.452 118.281 193.196C118.471 192.961 118.655 192.72 118.834 192.477C117.248 191.906 115.387 191.548 113.726 191.22L113.562 191.193C111.654 190.899 111.274 191.544 109.989 191.472C109.733 191.035 109.995 190.826 109.927 190.723C109.628 190.283 107.338 189.813 106.766 189.637C102.774 188.415 100.358 189.865 96.6327 191.124C96.1649 191.282 95.3227 191.645 95.0585 191.223C95.6577 189.998 100.62 189.306 100.296 188.221C99.6292 188.074 98.6349 188.114 97.9589 188.09C94.0474 187.947 90.5407 189.588 87.1132 191.26C86.8407 191.393 86.547 191.41 86.2753 191.237C86.878 190.087 92.033 187.856 93.4315 187.529C93.9855 187.4 96.4088 186.819 96.6385 186.602C96.1265 186.018 92.5078 185.785 91.6356 185.032C91.6281 185.028 91.1748 184.811 91.162 184.804ZM119.461 191.266C113.869 185.898 108.401 181.404 100.06 182.325C97.5784 182.57 94.9914 183.111 92.7284 184.19L92.5897 184.458C92.8357 184.817 93.2637 184.966 93.6698 185.019C97.1619 185.477 100.287 185.882 103.486 187.488C104.546 188.02 106.689 188.429 107.912 188.591L108.05 188.478C107.416 187.435 104.948 186.462 104.759 185.806L104.92 185.675C105.892 185.811 108.002 186.982 108.94 187.465L109.128 187.553C110.489 188.193 111.581 188.979 112.852 189.673C114.626 190.642 117.419 190.993 119.461 191.266ZM135.65 138.989C135.231 140.306 135.032 143.383 134.802 144.935C133.921 150.881 131.282 154.079 127.946 158.717C127.812 162.844 128.221 167.751 128.225 171.985C128.227 174.195 128.014 178.185 128.148 180.164C128.533 179.632 128.885 179.194 129.166 178.599C133.323 169.421 138.632 161.896 137.883 151.464C137.73 149.331 137.432 140.101 135.65 138.989ZM169.099 162.275C165.237 159.27 160.26 157.815 155.404 158.655C151.298 159.365 145.978 160.915 143.363 164.419C147.349 165.703 147.283 164.08 150.861 163.407L151.03 163.379C152.227 163.026 155.552 162.338 156.728 162.548L156.797 162.716C156.694 162.809 156.594 162.887 156.496 162.957C155.943 163.348 155.442 163.412 154.689 163.585C153.351 163.907 151.022 164.188 149.916 164.875L149.896 165.061C151.018 165.7 159.587 165.302 161.328 165.751C162.987 166.179 170.047 166.339 171.019 167.212L170.984 167.438C170.702 167.598 170.588 167.658 170.337 167.857C170.809 168.951 174.821 170.08 175.323 171.529C174.907 171.752 174.631 171.48 174.215 171.294C169.298 169.099 165.566 166.969 160.102 167.088C161.355 168.395 163.205 169.979 164.687 171.034C165.101 171.327 165.536 172.093 165.624 172.623C165.561 172.64 165.499 172.657 165.436 172.674C163.487 171.314 160.259 168.488 158.257 167.45C157.61 167.115 156.916 166.881 156.197 166.76C154.985 166.549 149.298 166.28 148.312 166.599C148.03 167.535 154.472 170.734 154.988 172.109L154.845 172.245C153.516 172 149.783 169.234 148.547 168.335C146.206 166.627 146.139 165.882 143.057 165.542C146.36 173.425 152.567 175.494 160.494 174.396C164.293 173.87 168.699 173.695 172.544 173.537C174.815 173.444 177.398 173.768 179.696 173.922C178.03 170.735 172.009 164.539 169.099 162.275ZM112.744 122.718C111.263 121.621 109.548 120.379 107.599 120.612C104.894 121.003 102.133 122.7 100.443 124.822C96.9863 129.163 97.4868 136.501 98.1024 141.752C99.0247 149.214 100.807 156.651 104.435 163.291C105.296 164.865 106.216 166.508 107.625 167.658C109.75 169.392 113.277 167.393 115.292 166.245C120.702 163.181 125.402 159.004 129.081 153.991C133.078 148.48 134.059 141.57 133.128 135.137C132.002 127.358 128.369 125.068 120.867 125.282C119.914 125.31 118.754 125.115 117.774 125.244C116.646 125.321 116.857 127.057 116.72 127.926L116.691 128.568C116.68 128.766 116.664 128.978 116.647 129.193C116.603 129.776 116.544 130.379 116.481 130.762C116.401 133.95 116.094 138.162 115.576 142.477C115.389 144.039 115.174 145.614 114.932 147.159C114.867 147.58 114.799 147.998 114.729 148.414C114.632 148.993 114.532 149.567 114.427 150.131C114.312 150.749 114.192 151.357 114.068 151.952C113.863 152.939 113.643 153.89 113.413 154.79C113.246 155.442 113.076 156.068 112.896 156.661C112.752 157.137 112.604 157.592 112.452 158.024C112.394 158.179 112.29 158.476 112.157 158.836C112.009 159.234 111.823 159.711 111.628 160.163C111.293 160.937 110.925 161.637 110.641 161.732L110.634 161.528C110.637 161.38 110.656 161.209 110.685 161.022C110.719 160.814 110.767 160.586 110.825 160.346C111.09 159.242 111.563 157.895 111.805 157.158C111.816 157.122 111.828 157.088 111.839 157.055C111.842 157.045 111.845 157.034 111.849 157.023C112.293 155.515 112.685 153.926 113.035 152.282C113.26 151.225 113.466 150.146 113.657 149.051C114.245 145.682 114.683 142.166 115.032 138.711C115.376 135.313 115.635 131.974 115.866 128.891L115.87 128.629C115.872 128.569 115.877 128.506 115.881 128.439C115.887 128.336 115.896 128.226 115.905 128.111C115.959 127.433 116.056 126.592 116.099 126.139C116.027 124.237 114.111 123.731 112.744 122.718ZM85.2411 115.489C84.8311 115.104 84.0123 114.497 83.454 114.715C82.4595 115.047 81.325 115.732 80.4481 116.297C75.7537 119.32 71.1334 123.44 68.4969 128.391C66.2208 132.665 63.8603 140.764 65.2684 145.509C65.4274 146.063 65.6651 146.59 65.9745 147.074C68.6265 146.141 71.2126 144.033 73.5917 142.436C75.0636 141.457 76.6175 140.608 78.2362 139.897C83.126 137.804 92.6064 136.082 95.9852 133.027C96.7341 129.523 97.3028 126.624 99.2216 123.482C95.7095 123.62 94.5804 123.976 91.1757 124.879C89.2212 125.663 87.3406 126.346 85.452 127.213C85.2301 127.314 85.0072 127.417 84.785 127.524C84.5127 127.656 84.2399 127.792 83.9667 127.933C83.4643 128.194 82.3209 128.843 81.2684 129.367C81.0136 129.494 80.7652 129.615 80.5311 129.719C80.0123 129.95 79.5703 130.109 79.3173 130.113L79.3573 129.923C80.2222 128.982 82.1646 127.839 84.3124 126.778C86.7668 125.566 89.4894 124.46 91.1786 123.885C91.3898 123.813 91.5852 123.75 91.7616 123.696L92.3827 123.495C93.7967 123.057 94.9964 122.832 96.5282 122.544C92.681 120.208 88.6023 118.645 85.2411 115.489ZM138.246 114.753C135.362 114.469 131.361 115.396 129.242 117.407C128.526 118.086 127.205 119.744 126.836 120.707L126.928 120.894C127.577 121.006 128.237 120.923 128.893 120.857C133.927 120.355 139.771 121.434 144.146 123.987C144.64 124.166 145.613 124.698 146.603 125.317C146.807 125.445 147.011 125.577 147.213 125.71C147.431 125.853 147.645 125.997 147.85 126.141C148.537 126.623 149.123 127.09 149.417 127.432C149.461 127.483 149.499 127.531 149.529 127.576L149.464 127.766C149.383 127.77 149.302 127.775 149.223 127.779C147.606 126.587 143.356 124.577 141.758 123.789C135.535 121.401 129.396 120.695 123.018 123.152C125.58 123.817 127.523 123.706 129.892 125.1C132.016 126.351 132.517 128.322 134.185 129.71C134.792 130.214 136.989 130.993 137.881 131.588C139.989 132.994 142.113 134.841 144.191 136.205C147.491 138.371 151.045 140.414 154.443 142.435C156.664 143.755 159.062 145.276 161.4 146.326C161.935 146.565 162.884 146.863 163.423 146.529C164.449 145.893 165.056 142.451 165.09 141.349C165.276 134.97 162.39 127.571 158.257 122.774C153.154 116.85 145.617 115.477 138.246 114.753ZM167.264 111.533C163.838 109.468 156.463 106.048 152.436 106.45C151.194 106.99 149.487 108.661 148.279 109.608C147.255 110.41 144.455 111.809 144.057 112.603L144.111 112.804C146.206 113.862 152.32 110.719 153.57 111.308C153.134 111.878 151.496 112.145 150.885 112.855C151.495 114.249 161.434 111.588 163.693 112.367L163.739 112.517C162.782 113.072 159.397 113.34 158.094 113.606C161.401 114.655 170.231 116.823 172.731 118.856L172.795 119.057C171.026 119.419 165.568 116.446 164.622 117.182C164.813 117.887 166.124 118.554 166.24 119.064C164.44 118.841 162.35 116.908 160.667 116.091C159.089 115.327 157.806 115.03 156.057 114.851C152.982 114.521 149.858 114.382 146.84 114.038C148.957 115.33 154.051 116.842 155.61 118.115C160.061 121.746 160.304 121.887 166.241 122.123C171.332 122.326 174.946 124.828 179.25 127.243C177.806 121.211 172.538 114.713 167.264 111.533ZM142.474 80.0504C141.104 80.0712 139.897 80.3464 138.611 80.7867C130.278 83.6414 123.968 87.7202 119.877 95.6168C120.328 98.7789 119.178 98.1053 118.571 100.665C118.324 101.709 118.677 109.866 119.234 110.291C119.54 109.958 119.838 108.931 119.941 108.475C120.939 104.115 123.311 100.633 125.176 96.693C125.687 95.6084 123.933 90.386 126.928 91.8072C128.904 92.7459 129.328 97.4407 128.241 99.1695C127.453 100.422 126.455 99.1411 125.783 99.3151C124.893 100.199 121.703 105.757 122.128 106.682C125.206 108.184 123.759 101.278 126.106 100.878C127.952 100.563 127.952 104.389 128.021 105.461C128.449 105.179 128.724 104.97 129.055 104.694L129.411 104.391C131.048 102.966 132.651 101.65 134.276 100.404C134.818 99.9884 135.363 99.5809 135.912 99.1793C136.735 98.5773 137.569 97.9889 138.42 97.4098C139.838 96.4444 141.305 95.5042 142.852 94.5651C143.069 94.4334 143.258 94.2854 143.435 94.1383C143.657 93.9547 143.861 93.7715 144.079 93.6217C144.385 93.4117 144.72 93.2662 145.171 93.274L145.173 93.3209L145.178 93.4664C140.174 97.151 134.916 100.626 130.232 104.769C125.741 108.815 120.468 116.665 119.097 122.609C122.547 121.94 124.995 120.353 127.06 117.547C129.284 114.524 132.12 113.671 135.712 113.101C141.266 112.22 146.579 109.568 150.377 105.338C154.032 101.264 158.471 94.461 158.234 88.776C156.329 89.2511 154.561 89.8268 152.702 88.859C148.785 86.8191 145.696 83.0103 142.474 80.0504ZM78.37 73.9176C75.1541 72.8306 73.2767 76.7351 72.6805 79.3336C70.6483 88.1915 75.1703 97.9436 79.3153 105.633C82.3803 111.083 88.8464 116.441 94.4725 118.972C96.4718 119.872 99.1416 120.711 100.886 121.971C103.793 120.245 106.273 118.538 109.838 119.284C112.149 119.768 114.124 122.451 115.102 122.403C115.572 121.55 113.146 118.015 112.532 117.212L110.908 115.439L109.057 113.757C108.512 113.33 107.53 112.37 106.983 111.868L106.612 111.553C104.844 109.757 102.418 107.842 100.504 105.95C100.185 105.79 97.7161 103.502 97.3075 103.13C95.3738 101.344 93.4309 99.5682 91.4784 97.8033C90.9612 97.3339 89.2975 95.9131 88.1835 94.7047C88.0387 94.5477 87.9046 94.3931 87.7821 94.2457C87.6379 94.0722 87.5111 93.9078 87.4091 93.7555C87.347 93.6628 87.2937 93.5751 87.2509 93.4928C87.1505 93.2999 87.1053 93.1383 87.1356 93.0192C87.9948 93.2149 91.0013 96.1943 91.9579 97.1119L92.0331 97.1842L93.5175 98.4879C94.9965 99.7964 96.4625 101.12 97.9149 102.458L101.844 105.963C102.732 106.78 103.625 107.593 104.522 108.401C105.42 109.209 106.323 110.011 107.229 110.808L107.723 111.264L107.798 111.334C108.274 111.764 108.784 112.213 109.268 112.659L109.741 113.102L110.858 114.112C111.061 114.296 111.261 114.481 111.442 114.655C111.533 114.742 111.619 114.827 111.698 114.907L111.914 115.133L112.61 115.883C112.735 116.022 112.856 116.163 112.961 116.296C113.066 116.429 113.156 116.554 113.218 116.664C113.86 117.401 114.315 117.955 115.065 118.585C115.118 116.076 114.553 113.511 112.746 111.65C112.447 111.339 112.122 111.055 111.774 110.8C107.991 111.559 108.959 109.402 109.566 106.825C108.999 106.024 108.496 105.29 107.723 104.7C105.719 103.17 102.877 102.038 103.547 98.9264C103.974 96.9445 105.944 95.4562 107.13 97.9596C108.4 100.641 108.245 103.739 110.614 105.771C111.1 105.409 111.64 105.024 112.099 104.635C111.092 101.92 109.146 97.0635 108.52 94.4801C106.981 95.1535 105.102 96.2394 103.524 95.4235C98.7098 92.9328 96.6237 84.8534 95.246 80.2291C92.4152 79.4354 89.7465 78.7752 87.0428 77.61C84.1717 76.3724 81.2985 74.9076 78.37 73.9176ZM123.687 107.838C120.739 110.399 120.187 113.248 119.205 116.919C119.034 117.557 118.355 119.418 118.605 119.952C118.942 119.835 118.917 119.749 119.181 119.416C120.542 116.374 121.977 113.485 123.872 110.74C124.225 110.229 124.664 109.611 124.957 109.071C124.581 108.526 124.326 108.005 123.687 107.838ZM115.612 94.4361C114.414 95.1188 114.298 95.6679 113.923 97.0084C114.116 97.7055 114.636 98.9171 115.013 99.5797C115.857 101.064 115.818 102.499 116.133 103.998C116.599 106.221 116.323 117.603 117.044 118.921C117.302 118.862 117.207 118.928 117.351 118.756C117.839 115.392 117.38 110.089 117.27 106.566C117.208 104.569 116.478 102.239 116.97 100.122C117.24 98.9558 117.969 98.0422 118.573 97.0279C117.971 95.89 117.015 94.5192 115.612 94.4361ZM112.692 109.416C113.283 110.235 114.005 111.053 114.662 111.829L115.13 112.18L115.351 112.105C115.698 111.173 115.409 107.502 114.189 107.27L112.692 109.416ZM111.906 106.64C111.217 107.224 109.733 108.58 110.233 109.535L110.645 109.674C111.2 109.06 112.544 107.625 112.415 106.79C112.099 106.587 112.262 106.647 111.906 106.64ZM125.855 102.493C125.431 103.641 125.245 104.655 125.636 105.83C125.878 106.077 125.768 106.018 126.096 106.105C126.527 105.006 126.698 103.909 126.246 102.785C126.057 102.613 126.076 102.591 125.855 102.493ZM126.813 73.4986C125.493 75.0913 124.82 76.1319 123.067 77.2975C121.778 78.155 119.133 79.0551 118.21 80.069C117.058 81.3348 116.901 84.1313 115.931 85.8473C114.553 88.2832 112.489 89.7373 110.992 91.9742C112.578 94.4321 112.047 94.9441 111.793 97.6451C111.543 100.301 113.081 102.954 115.029 104.709C114.889 103.731 114.758 102.726 114.456 101.789C113.646 99.2763 112.26 98.2211 112.856 95.5006C113.705 93.7899 114.307 93.5187 115.935 92.526C115.982 91.9654 115.99 91.3033 116.078 90.7594C116.314 89.3001 116.259 87.7413 118.09 88.2486C119.451 87.6252 118.032 84.1234 118.932 82.8053C119.757 83.8387 119.639 90.6482 119.472 92.1276C119.43 92.4768 119.375 92.8247 119.307 93.1695L119.442 93.024C122.226 90.0004 123.967 86.7343 127.8 84.5865C128.292 84.3108 129.188 83.6341 129.594 83.2682C129.124 81.5129 127.834 74.1284 126.813 73.4986ZM105.45 98.5065C104.305 100.033 105.373 101.319 106.783 102.138L106.956 101.949C106.777 101.215 106.264 99.0747 105.776 98.5865L105.45 98.5065ZM174.575 82.5836C170.706 82.1021 165.796 82.4431 162.225 84.0494C161.33 85.2204 160.356 86.491 159.591 87.7467C160.53 92.9011 159.288 92.9795 158.058 97.4713C159.244 97.1304 160.209 96.6048 161.308 96.0572C161.435 95.9647 161.627 95.8452 161.854 95.7125C162.129 95.5522 162.455 95.3718 162.778 95.1959C163.257 94.9352 163.728 94.6837 164.015 94.5172C164.569 94.1941 165.099 93.8776 165.617 93.5602C165.909 93.3811 166.198 93.202 166.483 93.0192C167.393 92.4363 168.279 91.8249 169.195 91.1178L169.218 91.1022C169.328 91.0287 169.436 90.9544 169.543 90.8785C170.339 90.3117 171.042 89.6814 171.789 89.0367C171.884 88.9476 171.99 88.8392 172.108 88.7213C172.274 88.5565 172.462 88.3717 172.658 88.1774C172.72 88.1158 172.783 88.0533 172.848 87.9908C172.91 87.9302 172.974 87.8707 173.038 87.8102C173.112 87.7394 173.186 87.6676 173.262 87.5983C173.325 87.5402 173.391 87.4854 173.454 87.4293C173.541 87.352 173.627 87.2745 173.714 87.2028C173.734 87.1857 173.756 87.1696 173.776 87.1529C173.816 87.1208 173.855 87.0887 173.894 87.0582C173.937 87.0255 173.979 86.9941 174.02 86.9635C174.04 86.9489 174.06 86.9346 174.08 86.9205C174.127 86.8871 174.173 86.855 174.219 86.8248C174.241 86.81 174.264 86.7958 174.286 86.7819C174.329 86.7548 174.372 86.7302 174.414 86.7067C174.436 86.6945 174.457 86.6827 174.478 86.6715C174.517 86.6511 174.555 86.6317 174.593 86.6149C174.618 86.6034 174.644 86.5933 174.669 86.5836C174.713 86.5665 174.755 86.5509 174.797 86.5397L174.775 86.5211L174.899 86.5182C174.866 86.5231 174.832 86.5302 174.797 86.5397L174.887 86.6158L174.916 86.6403C174.833 86.8163 174.704 87.0202 174.546 87.2428C174.452 87.3743 174.349 87.513 174.235 87.6549C173.319 88.801 171.84 90.2125 171.092 90.7281C170.5 91.2663 169.758 91.8813 169.096 92.3297C168.413 92.9323 166.562 94.2031 165.101 95.0856C164.811 95.261 164.537 95.423 164.29 95.5592C163.973 95.7339 163.701 95.87 163.5 95.9488C162.224 96.5878 154.973 99.4001 156.319 101.233C157.524 101.718 162.612 99.4234 164.054 98.819C169.601 96.4938 174.971 93.0562 177.722 87.4986C177.86 87.217 177.943 86.9134 177.833 86.6158C176.31 85.193 175.835 85.2349 174.822 83.0934L174.575 82.5836ZM126.174 93.4166C126.316 94.3455 126.542 96.4965 127.058 97.1608C127.331 97.1815 127.254 97.2088 127.496 97.1305C127.715 95.9383 127.621 93.8066 126.174 93.4166ZM107.177 59.2672C106.279 59.0827 104.94 60.2107 104.222 60.8346C100.185 64.3381 97.2462 69.6482 96.9432 75.0338C96.659 80.0931 97.9773 84.6761 100.469 89.0475C101.15 90.2438 101.79 91.4828 102.738 92.5094C103.266 93.0806 103.85 93.7074 104.648 93.7779C105.851 93.8844 107.512 92.5719 108.339 91.7154C110.537 89.4374 113.616 86.7116 114.796 83.7653C115.384 82.2961 115.626 80.5154 116.512 79.2545C117.272 78.1731 118.464 77.5247 119.597 76.9313C120.714 76.3455 121.81 75.8291 122.802 75.0406C125.299 73.0542 125.927 69.7227 126.027 66.7067C126.086 64.9271 125.775 64.0966 124.861 62.6207C122.47 63.9514 119.799 64.9507 117.597 66.358C116.947 66.7961 116.255 67.2484 115.62 67.7008C115.014 68.1776 113.734 69.2417 113.133 69.6129C112.106 70.5289 111.251 71.3571 110.496 72.2428C110.35 72.4145 110.208 72.589 110.068 72.7662C109.494 73.4958 108.976 74.2803 108.476 75.1949C108.336 75.4517 108.196 75.7179 108.058 75.9967C108.049 76.0149 108.04 76.0331 108.031 76.0514C107.88 76.3938 107.736 76.7595 107.592 77.1373C107.328 77.8249 107.065 78.5544 106.79 79.275C106.495 80.0492 106.184 80.8124 105.828 81.4947C105.538 82.0503 105.219 82.5528 104.858 82.9664L104.689 82.9205L104.69 82.9186C105.169 81.1848 105.722 79.4726 106.348 77.7867C106.452 77.5058 106.558 77.2254 106.666 76.9459L106.997 76.11C107.364 75.3026 107.726 74.5943 108.114 73.944C108.967 72.5134 109.944 71.3614 111.359 70.0426C111.383 70.0168 111.409 69.9922 111.433 69.9664C112.258 69.1057 113.451 68.235 114.553 67.4645C114.93 67.2001 115.297 66.9472 115.635 66.7106L116.056 66.4127C116.453 66.1384 116.798 65.9206 117.272 65.6363C117.669 65.2997 117.813 65.2958 117.948 64.8785C117.397 64.1469 108.759 59.5927 107.177 59.2672ZM154.546 56.3678C150.178 53.2503 144.22 52.7091 139.128 53.6568C138.195 54.4209 137.059 56.3546 136.026 57.4742C134.995 58.5918 133.369 59.4203 132.815 60.1647L132.868 60.4391C135.511 60.9543 136.886 60.6499 139.713 61.5836L140.298 61.7867C140.386 61.8138 140.474 61.8421 140.561 61.8717C141.174 62.0786 141.774 62.3475 142.355 62.6666C144.349 63.761 146.117 65.4447 147.381 67.2311C147.769 67.7702 148.093 68.2311 148.428 68.7457L148.767 69.2838L149.102 69.7662C149.157 69.8448 149.21 69.9232 149.263 70.0016C149.524 70.395 149.747 70.794 149.853 71.2731L149.773 71.5035C149.147 71.3977 148.615 70.485 148.246 69.9664L148.058 69.7018C147.663 69.0821 146.942 68.1517 146.491 67.5299C144.458 65.0469 142.843 63.8454 139.903 62.6139C135.906 61.2066 130.566 61.0128 126.535 62.4264C128.08 66.2004 132.283 68.896 135.417 71.2262C137.071 72.4665 138.672 73.7728 140.223 75.1403C143.911 78.4074 147.021 82.3495 150.842 85.4293C151.942 86.2869 154.129 87.8903 155.611 87.5016C161.141 86.0499 162.683 78.1879 162.516 73.526C162.284 66.9781 159.942 60.2192 154.546 56.3678ZM174.886 81.5729C173.938 80.035 168.429 80.1596 166.776 80.2604C165.1 80.4219 162.979 80.2528 163.102 82.4625L163.286 82.652C165.654 82.4264 167.507 81.5877 170.399 81.4117L170.626 81.4098C171.689 81.4027 174.316 81.8553 174.826 81.733L174.886 81.5729ZM128.124 68.5348C128.015 69.6106 127.815 70.4545 127.58 71.5133C128.973 74.9731 130.216 78.2457 130.917 81.9205C130.993 82.3156 131.082 82.2818 131.39 82.4147C131.908 82.3317 131.968 82.281 132.447 82.0367C132.927 81.7063 132.875 81.8472 133.052 81.3912C132.651 79.6554 131.564 77.8316 130.923 76.1412C130.348 74.6256 129.974 73.1757 129.525 71.6266C129.283 70.789 128.953 68.8151 128.124 68.5348ZM130.369 69.7858C130.487 70.9593 133.943 80.0436 134.634 80.6207C135.745 80.8242 138.473 79.8435 139.807 79.5494C140.308 79.4222 140.814 79.3582 141.172 79.0065C141.177 77.6264 131.505 69.9692 130.369 69.7858ZM177.63 56.0943C171.993 50.6656 163.473 46.9428 155.571 48.1276C154.526 48.2921 150.743 50.5945 149.975 51.3717L149.986 51.5885C150.79 52.1103 155.321 52.6471 156.796 53.0455C159.363 53.7389 162.035 54.3379 164.469 55.5328L164.952 55.7799L165.251 55.8766C168.45 56.9855 174.959 61.3626 177.175 63.8844C177.193 63.9305 177.212 63.9769 177.23 64.0231L177.099 64.1969L176.865 64.0992C176.293 63.8246 175.569 63.257 175.117 62.9147C172.136 60.6575 169.093 58.9397 165.849 57.1227C161.439 55.2486 159.034 54.5628 154.333 53.652C160.236 58.4967 161.643 61.4697 163.76 68.774C169.746 68.0717 173.168 67.7834 178.742 70.611C179.898 71.0872 181.431 72.0426 182.666 72.1969C183.917 72.3531 184.309 69.9489 184.267 69.1432C184.034 64.4751 180.922 59.2637 177.63 56.0943ZM95.5966 50.233C92.0518 49.1949 88.3634 48.7302 84.6718 48.8551C82.6037 49.0073 74.2676 49.6093 72.7499 50.3277L72.6512 50.5006C73.0868 51.1842 76.1543 52.7149 77.0643 53.1959C83.5262 56.611 91.2178 63.7184 98.3075 65.5211C99.5106 63.6779 100.966 62.0117 102.63 60.5709C103.074 60.1803 104.446 59.2543 104.606 59.0221C104.493 58.6765 104.201 58.4591 103.883 58.2867C100.416 56.4126 93.7469 60.3627 92.5712 59.6197C93.1155 58.5507 95.8899 58.0633 96.9579 57.6568C97.4284 57.5334 97.8771 57.4956 98.1561 57.1354L98.1005 56.9449C93.5958 55.3222 84.3953 54.5563 80.8925 52.6598C83.764 52.5628 93.3551 54.4672 96.5135 55.232C95.0979 53.7602 93.5664 53.0715 92.4559 51.9225L92.5087 51.6637C93.3741 51.5577 95.8437 53.3714 96.6464 53.8912C99.1318 55.5008 100.564 56.3818 103.528 56.859C101.409 52.9916 99.8566 51.4836 95.5966 50.233ZM111.635 30.2203C104.786 27.5476 94.1862 23.1966 87.2645 27.5895C86.0715 28.3466 86.8838 30.372 87.3114 31.3033C90.2126 38.3402 94.7587 43.4032 100.068 48.6754C101.677 50.273 103.064 54.1296 105.266 55.608C107.707 57.6101 110.834 58.8028 113.618 60.2467C118.028 62.5332 119.254 64.4406 123.75 61.1344C123.284 60.1725 121.691 57.928 121.47 57.2135C121.153 56.8757 120.126 55.3115 119.807 54.8443C119.517 54.3701 118.671 53.2888 118.307 52.7926C117.145 51.3189 115.963 49.9948 114.719 48.5895C113.742 47.6141 112.727 46.6776 111.676 45.7828C108.684 43.3669 105.924 42.0923 102.873 39.9889C102.163 39.4701 101.756 39.1186 101.105 38.5279L101.626 38.734C102.122 38.9352 102.629 39.1516 103.115 39.3531L103.204 39.3902C104.265 39.9645 105.545 40.6528 106.849 41.4029C107.381 41.7083 107.915 42.0252 108.441 42.3473C108.683 42.4953 108.923 42.6451 109.16 42.7955C110.518 43.658 111.774 44.5527 112.685 45.4176C113.076 45.7668 113.452 46.1057 113.824 46.4449C114.117 46.7125 114.409 46.9796 114.697 47.2584L115.35 47.9098C116.529 49.1849 117.562 50.3047 118.591 51.6471C118.738 51.8391 118.885 52.0357 119.032 52.2379C119.693 53.0315 119.994 53.4643 120.551 54.3385C120.73 54.5636 121.197 55.2028 121.557 55.7486C121.706 55.9756 121.838 56.1859 121.922 56.3443C121.963 56.4215 121.992 56.4867 122.007 56.5348C122.46 57.2317 122.905 58.092 123.522 58.5758L123.874 58.6344C124.129 58.4179 124.167 58.3333 124.197 57.9225C124.465 54.2994 122.827 51.3221 122.34 47.7731C121.935 44.8146 121.972 42.0878 121.703 39.1608C119.593 36.7059 114.56 31.3618 111.635 30.2203ZM143.885 34.7975C141.479 36.7359 141.112 38.786 140.24 41.5465C138.579 46.8066 136.732 51.4947 132.703 55.4401C131.923 56.2032 128.697 59.1347 128.359 59.7936L128.421 60.0553L128.681 60.151C133.314 58.1266 135.873 56.6788 138.217 52.0035C139.466 49.5136 140.356 48.8159 140.384 45.8082C140.41 42.8169 140.937 40.4781 143.464 38.6002C143.71 37.8524 144.337 35.4938 144.016 34.8463L143.885 34.7975ZM135.936 32.025C135.621 32.5147 134.937 33.5302 135.097 34.1383C135.4 35.2893 137.192 35.6923 136.727 37.2047C135.92 39.8367 134.895 42.4515 134.215 45.1285C134.116 45.5146 133.358 46.4481 133.251 46.9137C131.75 50.2647 130.165 53.5568 128.307 56.7262C128.196 56.9143 128.176 57.0899 128.159 57.3014L128.34 57.3766C128.413 57.3236 128.706 57.1195 128.765 57.067C130.638 54.3224 132.212 51.3847 133.46 48.3053C134.504 45.7061 135.357 42.9179 136.512 40.3268C137.082 39.0455 137.397 37.4579 137.878 36.1324C138.151 35.2168 138.811 34.266 138.944 33.4235C138.668 32.6221 136.707 32.0961 135.936 32.025ZM126.472 56.8209L126.705 56.5113C126.641 56.5979 126.564 56.6968 126.472 56.8209ZM86.5604 55.8238L86.6805 55.982C86.4759 56.3291 86.1693 56.4625 85.8192 56.6793C85.6557 56.7558 85.5888 56.7406 85.3973 56.7623L85.3251 56.524C85.6449 55.9756 85.5046 56.1586 86.0966 55.8111L86.5604 55.8238ZM164.656 10.1031C163.03 9.00292 159.021 9.64804 157.224 9.99669C145.509 12.2702 133.19 18.6294 126.653 28.9156C125.445 30.817 125.558 32.3835 124.781 34.3776C124.487 35.1282 123.427 36.5033 122.909 37.2623C122.783 39.9075 123.561 51.8534 125.611 53.1383L125.849 52.9733C127.147 49.6458 126.665 46.4567 125.025 43.4068C123.893 41.301 126.606 35.7121 128.856 37.1119C129.984 38.8776 127.546 43.6926 127.482 45.9664C127.425 47.9738 127.644 49.2802 128.082 51.2399C129.728 48.6385 129.957 44.3332 130.349 41.2789C130.689 38.6436 131.126 35.7249 131.28 33.1129C131.426 30.6479 130.745 28.3469 131.697 25.8629C132.762 21.4126 135.573 23.5028 134.934 27.1861C134.462 29.9166 133.731 29.4984 132.614 31.4576C132.456 31.739 132.171 35.0276 132.137 35.7281C131.933 39.7837 131.239 43.9728 131.058 48.0084C132.987 44.2854 134.181 40.8026 135.367 36.8082C135.013 36.5966 134.045 36.0244 133.858 35.7027C133.131 34.4518 134.067 31.4572 135.291 30.8024C136.552 30.1222 138.023 30.8375 139.099 31.5445C139.485 31.7979 141.038 33.0775 140.684 33.694C140.039 34.8166 137.731 39.8265 138.235 40.9108C139.47 40.5073 141.333 35.2368 141.344 33.8453C141.357 31.9097 139.461 24.6153 142.079 23.7604C144.713 24.4629 144.778 30.5871 145.213 31.0553C145.861 30.9072 147.352 28.809 147.882 28.1705C148.063 27.9474 148.412 27.52 148.846 26.9986C149.497 26.2165 150.338 25.222 151.087 24.3854C151.336 24.1066 151.576 23.8458 151.794 23.6158C152.012 23.3857 152.21 23.1867 152.376 23.0328C152.542 22.8788 152.677 22.7696 152.77 22.7194L152.887 22.8277C152.773 23.2947 149.491 27.5484 148.604 28.5748C148.545 28.6434 148.496 28.6973 148.46 28.735L148.11 29.2291C147.237 30.4304 145.996 31.9405 145.148 33.025C146.817 32.9675 147.302 32.7112 148.587 33.9645C149.912 38.1051 147.699 39.3761 145.068 41.861C144.568 44.4387 144.36 46.3121 141.925 47.6813C140.629 48.4097 140.317 50.0717 139.973 51.4225C141.324 51.3425 144.848 51.46 145.708 51.3033C149.329 50.6428 154.922 46.7713 157.087 43.8424C158.99 41.2691 159.78 38.6147 159.43 35.483C159.344 34.7181 159.352 33.1634 159.609 32.5016C160.084 31.2817 161.144 29.5164 161.853 28.4215C164.983 23.5937 166.973 19.4589 165.925 13.5348C165.746 12.5321 165.621 10.7559 164.656 10.1031ZM137.573 44.107C135.58 45.7554 134.294 49.4575 133.346 51.9313C133.428 52.2158 133.346 52.1263 133.529 52.2477C135.004 50.9498 137.678 46.1646 137.849 44.2672C137.672 44.1003 137.769 44.1423 137.573 44.107ZM142.787 41.7789C142.317 42.5564 141.287 45.4374 141.439 46.1871L141.641 46.2037L141.725 46.1305C142.533 45.2675 143.857 43.0714 143.1 41.9225L142.787 41.7789ZM146.492 34.5035C145.557 35.393 143.794 38.9035 144.775 39.941C145.092 39.9498 145.031 39.9788 145.321 39.8951C146.261 38.9155 149.499 34.9869 146.492 34.5035ZM124.018 28.7877C122.753 29.9291 121.509 33.4979 122.642 34.9361C123.726 34.0111 124.901 30.0818 124.193 28.9176L124.018 28.7877ZM114.141 7.02599C111.472 5.94397 100.425 2.13535 98.2499 2.99376C97.9281 3.12079 97.8419 3.26329 97.701 3.56408C97.8431 4.81849 100.426 6.85213 101.433 7.88439C102.212 8.68342 102.946 9.52542 103.632 10.4059C106.885 14.6662 108.977 21.4834 108.523 26.7965C112.06 28.6642 114.929 29.4991 117.761 32.7535C118.355 33.437 119.256 34.5554 120.047 34.8971L120.239 34.7828C120.52 33.4323 118.819 27.0904 118.368 25.3688C117.441 22.5617 116.82 21.3305 115.174 18.8951C114.936 18.6685 114.466 18.0441 113.915 17.2594C113.669 16.9096 113.407 16.528 113.144 16.1344C112.106 14.5796 111.04 12.8452 110.81 12.2008L111.12 12.4557C112.692 13.8276 114.56 16.5751 115.731 18.2047C117.219 20.311 118.432 22.271 119.135 24.7994C119.135 24.8023 119.136 24.8053 119.137 24.8082C119.383 25.8124 120.38 30.3299 120.952 30.7613C122.653 29.6674 121.714 25.9472 126.002 27.7154C126.973 25.934 128.192 24.6522 129.052 23.1598C125.779 15.469 122.135 10.2661 114.141 7.02599ZM142.552 27.0651C142.195 27.8671 141.693 31.1332 142.375 31.7584L142.775 31.7262C143.567 30.3251 144.016 28.2105 142.552 27.0651ZM133.187 26.1315C132.735 26.8649 132.538 27.3257 132.597 28.1832C132.767 28.4529 132.655 28.387 132.893 28.4938C133.326 27.6988 133.6 27.3266 133.491 26.4459C133.357 26.2808 133.358 26.2466 133.187 26.1315ZM83.5155 4.25646C82.8659 4.74985 82.7153 4.88123 82.1874 5.49962L82.7704 7.00548L82.8544 7.08361C83.027 7.26127 83.2546 7.58702 83.493 7.94982C83.7365 8.32011 83.9923 8.72835 84.2089 9.05919C84.3013 9.20048 84.3878 9.32677 84.4628 9.43029C84.4848 9.46064 84.5042 9.49013 84.5243 9.51623L85.3182 10.611L86.5868 12.2291C87.0373 12.789 87.4997 13.3328 87.9247 13.7535L88.4657 14.3522C91.1874 17.3308 94.1296 20.1007 97.2675 22.6383C99.8906 24.9233 104.102 25.9329 107.518 26.4098C107.345 20.5361 104.583 17.3057 100.359 13.2369C98.3351 11.4117 96.9054 10.4184 94.6512 8.98107C92.0797 7.52927 90.2195 6.71275 87.496 5.52208C86.2567 5.11715 84.757 4.50979 83.5155 4.25646ZM80.9032 5.24572C80.606 5.28802 80.6826 5.20579 80.5233 5.40587C80.1933 5.82088 80.4565 7.04239 80.62 7.47814C82.0018 11.1586 87.7544 21.8516 90.1981 24.3151C91.2607 24.2416 96.0356 24.0797 96.5819 23.6881C96.5194 23.3671 96.5251 23.3876 96.3417 23.1158C94.1131 21.1727 88.9857 16.7933 87.41 14.4498C86.7509 13.8829 85.4191 12.0628 84.8387 11.2916C84.6194 11.0266 84.1554 10.3052 83.9384 9.98986C83.3076 9.10595 82.3119 7.39285 81.8104 6.45568C81.5505 5.98716 81.359 5.49352 80.9032 5.24572ZM96.5077 5.40392C95.0754 3.98218 83.7588 0.300105 82.9725 2.48693C83.585 3.61998 85.7657 4.01723 86.9579 4.4713C87.3872 4.60714 87.8832 4.7799 88.4178 4.98107C88.5961 5.04813 88.7788 5.11819 88.9647 5.19103C89.5224 5.4095 90.1101 5.65254 90.7011 5.90978C90.8983 5.9956 91.0959 6.08284 91.2928 6.1715C92.8669 6.88032 94.3996 7.66846 95.3798 8.3463C96.3335 8.91319 97.5588 9.69439 98.6483 10.5143C98.8661 10.6782 99.0784 10.8438 99.2821 11.0094C99.6898 11.3407 100.063 11.6728 100.375 11.9938L100.511 12.0777C101.94 13.0224 104.151 16.2622 105.085 16.732C105.186 16.4356 104.741 15.1478 104.582 14.8004C102.836 11.0664 99.3868 8.26478 96.5077 5.40392Z" fill="#222222"/>
</g>
<defs>
<clipPath id="clip0_164_873">
<rect width="250" height="250" fill="white"/>
</clipPath>
</defs>
</svg>
