<svg width="250" height="250" viewBox="0 0 250 250" fill="none" xmlns="http://www.w3.org/2000/svg">
<g clip-path="url(#clip0_119_612)">
<path d="M194.085 49.8721L194.861 49.8753L195.407 49.9104C196.846 50.3094 197.095 50.2966 198.206 51.216C206.065 58.2227 208.925 77.0661 209.905 87.5204C213.602 126.902 189.875 166.638 149.602 174.657C149.299 174.717 148.686 174.596 148.38 174.539L147.658 174.685C147.821 179.949 148.016 187.231 147.898 192.412C147.569 206.802 144.763 237.201 137.929 249.58C137.967 241.035 139.882 230.392 140.457 221.505C131.646 224.589 116.921 222.51 108.344 219.497C81.5519 210.087 53.6269 176.84 50.2688 148.912C49.7772 147.728 50.0996 146.438 50.3294 145.219C50.3262 144.647 50.4603 143.632 50.5178 143.026C50.7859 142.212 50.987 141.908 51.3988 141.165L51.9702 140.261L53.1322 139.352C53.6046 139.134 54.0866 138.943 54.5782 138.777C57.6459 137.739 62.0319 138.1 65.2145 138.563C94.2408 142.793 123.111 159.74 137.261 185.979C139.218 189.606 140.553 193.842 141.871 197.768C141.877 157.454 136.837 133.187 123.082 95.571L124.585 95.1305C133.393 106.823 140.607 130.704 143.556 144.938C150.145 115.56 159.913 83.3738 180.372 60.0136C183.592 56.3394 189.016 50.5775 194.085 49.8721Z" fill="#447CAE"/>
<path d="M195.406 49.9106C196.846 50.3096 197.095 50.2968 198.206 51.2162C206.065 58.223 208.925 77.0663 209.905 87.5206C213.602 126.902 189.874 166.638 149.602 174.657C149.299 174.718 148.686 174.596 148.38 174.539L147.658 174.686C147.626 171.624 149.407 166.61 150.394 163.536C152.076 158.189 153.908 152.89 155.894 147.645C158.607 140.638 162.198 132.437 164.388 125.37C167.877 114.095 169.796 103.201 174.083 92.0631C179.162 78.8667 184.751 68.1825 191.375 55.797C192.115 54.4052 192.827 52.9974 193.514 51.5801L194.503 51.4173C194.516 51.2385 194.8 50.1245 194.861 49.8755L195.406 49.9106Z" fill="#8EC6F2"/>
<path d="M198.206 51.2161C206.065 58.2229 208.926 77.0662 209.906 87.5205C213.602 126.902 189.875 166.638 149.602 174.657C149.299 174.718 148.686 174.596 148.38 174.539L148.472 174.092L150.152 173.862C165.34 169.811 181.1 157.815 190.274 145.19C207.47 121.527 205.89 91.798 201.501 64.3742C200.795 59.953 198.73 55.4425 198.206 51.2161Z" fill="#447CAE"/>
<path d="M191.752 56.8921L191.908 57.4507C190.255 64.665 188.01 71.9591 186.204 79.1734C183.752 88.9733 181.556 99.0829 178.112 108.567C174.655 118.089 169.968 127.238 166.096 136.616C161.947 146.672 156.14 160.972 150.222 170.07C149.673 171.108 149.35 172.129 148.476 172.691C148.833 170.798 150.924 164.988 151.598 162.977C155.138 152.395 159.699 142.234 163.75 131.879C168.669 119.302 170.476 106.747 175.162 93.9307C177.665 86.9335 180.515 80.0703 183.707 73.3604C185.99 68.6648 189.712 62.0091 191.547 57.4092L191.752 56.8921Z" fill="#447CAE"/>
<path d="M194.861 49.8755L195.407 49.9106C194.921 55.9214 193.405 62.2579 192.741 68.2719C190.669 87.0226 187.583 108.876 179.385 126.085C173.512 138.42 161.5 160.726 151.463 169.55C155.6 164.085 163.89 146.448 166.46 139.821C170.348 129.778 177.202 117.259 180.305 107.427C185.361 91.4151 188.604 74.1646 193.182 57.7091L191.908 57.4505L191.752 56.8918L191.375 55.797C192.115 54.4052 192.827 52.9974 193.514 51.5801L194.503 51.4173C194.516 51.2385 194.8 50.1245 194.861 49.8755Z" fill="#447CAE"/>
<path d="M193.514 51.5803L194.503 51.4175C194.069 53.47 193.565 55.6599 193.182 57.7093L191.908 57.4507L191.752 56.892L191.375 55.7972C192.116 54.4054 192.827 52.9976 193.514 51.5803Z" fill="#8EC6F2"/>
<path d="M197.332 53.8755L197.964 54.4437C202.318 69.399 203.78 93.7998 202.184 109.63C201.692 114.498 200 120.173 198.5 124.885C191.538 146.723 177.036 160.519 156.788 170.565L151.968 172.4C163.239 162.779 168.628 159.395 178.121 147.422C196.968 123.656 199.534 104.238 197.89 75.0427C197.501 68.1125 198.146 61.3005 197.332 53.8755Z" fill="#447CAE"/>
<path d="M157.513 165.246C171.031 146.448 182.396 128.211 188.244 105.569C189.671 99.9219 190.826 94.2112 191.707 88.4525C192.33 84.5421 195.021 56.5118 196.192 55.4424C197.249 58.1525 196.502 68.4888 196.569 71.914C196.936 90.3136 197.817 106.405 190.392 123.94C184.32 138.273 170.581 156.854 157.877 166.13L157.513 165.246Z" fill="#447CAE"/>
<path d="M157.512 165.246L157.876 166.131C157.059 166.826 156.107 167.803 155.121 168.039C155.53 166.98 156.663 166.07 157.512 165.246Z" fill="#447CAE"/>
<path d="M51.3986 141.165C68.598 149.573 84.8333 158.859 100.545 169.875C113.837 179.196 135.646 193.539 140.98 209.717C151.476 224.429 126.52 189.354 140.345 209.212C138.264 206.221 136.332 203.157 134.098 200.268C131.551 196.964 128.729 193.884 125.658 191.058C118.97 184.891 109.905 178.631 102.355 173.502C87.7286 163.561 69.6833 151.153 53.6395 143.617L53.2405 143.875L53.0043 143.652L53.1096 143.396L52.7872 143.393C54.1056 144.779 57.6489 147.106 59.3471 148.335C62.2105 150.441 65.0451 152.587 67.851 154.767C76.9806 161.936 86.1676 169.026 95.4185 176.039C108.043 185.45 133.654 203.262 142.366 215.443C136.632 211.354 131.247 204.916 125.355 200.437C104.832 184.834 83.8373 170.006 63.9853 153.522C61.3199 151.307 57.3424 148.239 54.412 146.397C76.0229 177.616 88.8107 194.375 124.343 210.428C127.037 211.654 129.795 212.743 132.601 213.685C134.082 214.176 140.412 215.785 140.945 216.344L140.664 216.666C138.545 216.759 132.773 215.147 130.596 214.368C114.019 208.437 97.918 199.696 84.8972 187.748C75.0334 178.695 68.033 168.729 60.4229 157.831C58.9417 155.715 51.5103 143.971 50.5176 143.026C50.7857 142.212 50.9868 141.909 51.3986 141.165Z" fill="#8EC6F2"/>
<path d="M51.9702 140.261L53.1322 139.352L53.4003 139.447C56.7712 140.609 60.3848 141.334 63.8387 142.228C70.4624 143.942 76.9712 145.806 83.3013 148.43C100.766 155.67 131.337 180.071 139.662 196.986C141.006 199.715 141.721 202.093 141.877 205.152C140.419 202.266 137.223 195.629 135.244 193.171C123.069 178.06 105.404 163.072 88.5268 153.464C82.9118 150.269 75.9018 147.728 70.0314 145.8C66.3892 144.583 62.731 143.425 59.0536 142.32C57.1543 141.771 53.6461 140.922 51.9702 140.261Z" fill="#8EC6F2"/>
<path d="M50.3294 145.219L50.5784 145.672C51.4212 147.24 52.3213 149.723 53.0555 151.444C58.0832 163.216 64.0461 173.447 72.1606 183.298C84.9452 198.809 96.188 207.942 115.635 214.061C121.658 215.996 127.877 217.256 134.178 217.815C135.266 217.981 136.361 218.115 137.456 218.217L137.724 218.677C125.942 219.615 105.63 214.02 95.8369 207.843C74.8165 194.583 59.0153 172.183 50.5082 149.117C50.4284 149.046 50.3486 148.979 50.2688 148.912C49.7772 147.728 50.0996 146.438 50.3294 145.219Z" fill="#8EC6F2"/>
<path d="M194.085 49.8721L194.861 49.8753C194.8 50.1243 194.516 51.2383 194.503 51.4171L193.514 51.5799C181.556 62.5258 176.959 71.6969 170.313 86.2276C159.223 110.459 148.852 136.951 147.655 163.877L147.639 164.301L147.336 164.509C146.803 163.708 147.007 159.944 147.013 158.648C147.77 133.73 159.674 105.355 170.051 83.0577C176.436 69.3378 182.405 59.6241 194.085 49.8721Z" fill="#8EC6F2"/>
<path d="M147.013 158.648C147.007 159.944 146.803 163.708 147.336 164.509L147.639 164.301C147.652 165.237 147.205 168.633 147.084 169.741C146.614 166.622 146.506 161.738 147.013 158.648Z" fill="#6A9EBF"/>
<path d="M134.178 217.815C137.121 217.78 139.659 217.78 142.602 217.914C140.508 218.444 139.908 218.629 137.724 218.677L137.456 218.217C136.361 218.115 135.266 217.981 134.178 217.815Z" fill="#8EC6F2"/>
<path d="M108.427 5.95779C114.431 -3.58038 127.944 -0.946857 135.876 4.31382C149.063 13.0571 155.246 33.3369 153.497 48.3784C152.785 65.7757 141.43 88.4464 124.585 95.1308L123.082 95.5713C117.559 98.4825 108.491 99.8902 102.365 100.213C71.1391 101.857 39.8112 85.8288 39.3963 51.2258C39.3164 44.7265 40.9987 39.7851 45.5986 34.9394C50.5816 29.6883 54.4633 31.0992 58.9961 35.6385L59.4781 35.4821C60.6624 33.6147 60.1165 29.251 60.2155 26.544L60.2028 26.0428C60.2826 25.6566 60.3304 24.8362 60.3719 24.4053L60.6911 24.5553C62.1978 21.0791 63.9503 19.6873 66.8456 17.5581C67.0403 16.926 67.2925 16.2748 67.5192 15.6492L67.7586 15.6364C67.7809 16.1216 67.7522 16.693 67.9054 17.108C72.8629 15.1129 75.5922 14.9373 80.872 15.1097L82.2797 11.9782L82.0595 11.56L82.3372 10.9248L82.7522 11.3047C84.0131 9.31594 85.6315 7.77412 87.2754 6.11101C87.467 5.56515 87.6713 5.02249 87.8884 4.48621C88.3895 3.25723 88.6385 2.8965 89.8835 2.39533C91.0677 2.34426 91.7349 2.79754 92.817 3.31148C99.029 2.57409 102.86 2.67625 108.427 5.95779Z" fill="#FB5E74"/>
<path d="M108.427 5.95779C114.431 -3.58038 127.944 -0.946857 135.876 4.31382C149.063 13.0571 155.246 33.3369 153.497 48.3784C152.217 45.2405 151.336 41.7802 150.164 38.5242C147.917 32.2165 143.691 26.7356 138.8 22.2378C133.674 17.5262 123.794 12.0452 118.31 19.2404C114.817 23.8147 115.341 30.8215 116.098 36.2067C105.506 31.9452 97.5384 32.8645 92.0478 44.1711C90.7965 41.4482 89.8995 38.9296 87.5469 36.9888C87.7384 36.3631 87.7161 36.5355 87.7895 35.9066C88.3034 31.4408 89.5133 27.8911 91.3104 23.8019C88.4152 19.0712 86.1232 16.0705 82.2798 11.9782L82.0596 11.56L82.3373 10.9248L82.7523 11.3047C84.0132 9.31594 85.6316 7.77412 87.2755 6.11101C87.4671 5.56515 87.6714 5.02249 87.8885 4.48621C88.3896 3.25723 88.6386 2.8965 89.8836 2.39533C91.0678 2.34426 91.735 2.79754 92.8171 3.31148C99.0291 2.57409 102.86 2.67625 108.427 5.95779Z" fill="#EE536B"/>
<path d="M87.2755 6.11097C87.4671 5.56511 87.6714 5.02246 87.8885 4.48618C88.3896 3.25719 88.6386 2.89647 89.8836 2.3953C91.0678 2.34422 91.735 2.79751 92.8171 3.31144C99.0291 2.57406 102.86 2.67622 108.427 5.95776C107.268 10.2225 107.051 9.41804 107.207 14.2031C104.804 14.4265 102.923 14.6436 100.632 15.4831C99.7473 15.8087 98.5183 16.527 97.6884 16.6515L97.267 17.1941L96.7946 16.9866C95.5784 18.4838 92.5522 21.8196 91.9553 23.355L91.3104 23.8019C88.4152 19.0711 86.1232 16.0705 82.2798 11.9782L82.0596 11.56L82.3373 10.9247L82.7523 11.3046C84.0132 9.31591 85.6316 7.77409 87.2755 6.11097Z" fill="#FC6099"/>
<path d="M87.2755 6.11097C87.4671 5.56511 87.6714 5.02246 87.8885 4.48618C88.3896 3.25719 88.6386 2.89647 89.8836 2.3953C91.0678 2.34422 91.735 2.79751 92.8171 3.31144C93.296 5.46615 92.1404 6.03114 92.4022 7.48038L92.0383 7.99116C94.3079 10.9918 95.7986 13.2837 96.7946 16.9866C95.5784 18.4838 92.5522 21.8196 91.9553 23.355L91.3104 23.8019C88.4152 19.0711 86.1232 16.0705 82.2798 11.9782L82.0596 11.56L82.3373 10.9247L82.7523 11.3046C84.0132 9.31591 85.6316 7.77409 87.2755 6.11097Z" fill="#FC6099"/>
<path d="M87.2754 6.11097C87.4669 5.56511 87.6712 5.02246 87.8883 4.48618C88.3895 3.25719 88.6385 2.89647 89.8834 2.3953C91.0677 2.34422 91.7348 2.79751 92.817 3.31144C93.2958 5.46615 92.1403 6.03114 92.402 7.48038L92.0381 7.99116C89.7461 7.13885 89.9408 8.16353 87.2754 6.11097Z" fill="#F98595"/>
<path d="M82.3373 10.9248L82.7523 11.3047C85.9412 14.4107 90.3783 19.0553 91.9553 23.3551L91.3104 23.802C88.4152 19.0712 86.1232 16.0706 82.2798 11.9782L82.0596 11.56L82.3373 10.9248Z" fill="#F98595"/>
<path d="M92.402 7.48022C95.3867 10.0371 96.8933 12.8271 97.6882 16.6513L97.2668 17.194L96.7944 16.9865C95.7985 13.2836 94.3077 10.9916 92.0381 7.991L92.402 7.48022Z" fill="#F98595"/>
<path d="M82.2796 11.9783C86.1229 16.0706 88.4149 19.0712 91.3102 23.802C89.513 27.8912 88.3032 31.4409 87.7892 35.9067C87.7158 36.5355 87.7382 36.3632 87.5466 36.9888C86.1996 36.5036 85.775 36.427 84.3513 36.2163C83.4575 36.5738 83.9363 36.5036 82.8478 36.127C77.635 38.3104 78.0596 33.4838 74.7206 31.0323C73.5714 30.1895 71.1964 29.4298 69.7823 28.8137L69.3641 28.8265C66.9477 29.0404 66.223 29.1297 63.8417 29.8991L63.6948 29.7363L62.983 29.8608C61.821 29.0883 61.039 27.7252 60.2154 26.5441L60.2026 26.0429C60.2824 25.6567 60.3303 24.8363 60.3718 24.4053L60.691 24.5554C62.1977 21.0791 63.9502 19.6873 66.8455 17.5582C67.0402 16.9261 67.2924 16.2749 67.519 15.6493L67.7585 15.6365C67.7808 16.1217 67.7521 16.6931 67.9053 17.1081C72.8627 15.113 75.592 14.9374 80.8719 15.1098L82.2796 11.9783Z" fill="#FC6099"/>
<path d="M66.8455 17.5581C66.9796 21.8867 67.4776 24.8426 69.3641 28.8264C66.9477 29.0403 66.223 29.1297 63.8417 29.899L63.6948 29.7362L62.983 29.8607C61.821 29.0882 61.039 27.7251 60.2154 26.544L60.2026 26.0428C60.2824 25.6566 60.3303 24.8362 60.3718 24.4053L60.691 24.5553C62.1977 21.0791 63.9502 19.6873 66.8455 17.5581Z" fill="#FC6099"/>
<path d="M60.691 24.5553C61.2656 26.4579 62.7755 27.9262 63.6948 29.7362L62.983 29.8607C61.821 29.0882 61.039 27.7251 60.2154 26.544L60.2026 26.0429C60.2824 25.6566 60.3303 24.8362 60.3718 24.4053L60.691 24.5553Z" fill="#F98595"/>
<path d="M79.4609 26.1865C78.3883 25.7013 78.3819 25.58 77.619 24.7181C77.4019 23.5561 77.3541 24.1308 77.9382 22.9529C79.2279 22.1261 80.6835 21.5962 81.8582 22.9305C82.0817 24.3191 81.207 25.3757 80.2525 26.2599L79.4609 26.1865Z" fill="#F98595"/>
<path d="M67.5192 15.649L67.7587 15.6362C67.781 16.1214 67.7523 16.6928 67.9055 17.1078C66.9415 21.248 69.8655 26.2661 69.7825 28.8135L69.3643 28.8263C67.4778 24.8424 66.9798 21.8865 66.8457 17.5579C67.0404 16.9259 67.2926 16.2747 67.5192 15.649Z" fill="#F98595"/>
<path d="M79.4609 26.1863L80.2526 26.2597C81.1304 30.3393 82.1136 32.6089 84.3513 36.216C83.4575 36.5735 83.9363 36.5033 82.8478 36.1267C80.8144 31.9896 80.3484 30.7 79.4609 26.1863Z" fill="#F98595"/>
<path d="M67.519 15.6493C67.2956 13.2137 65.4314 13.584 66.2517 10.6089C68.8853 7.04962 73.2585 11.5027 70.2515 14.1171C69.4184 14.8385 68.2947 14.1905 67.7584 15.6365L67.519 15.6493Z" fill="#F98595"/>
<path d="M60.2028 26.0428C59.1653 23.6232 56.6499 18.5029 57.4032 16.5014L58.1821 16.2461C59.2451 16.4855 59.3473 16.4121 60.0847 17.2293C59.5101 20.3608 59.1238 20.7662 60.1804 23.8594L60.3719 24.4052C60.3304 24.8362 60.2826 25.6566 60.2028 26.0428Z" fill="#F98595"/>
<path d="M78.3436 8.02623C77.188 7.64317 76.8879 7.63357 76.0452 6.73019L75.8696 5.91302C76.8209 4.59466 77.9956 4.25628 79.4289 5.10859C79.8758 6.29607 79.8247 6.4812 79.0426 7.60804L78.3436 8.02623Z" fill="#F98595"/>
<path d="M79.0428 7.60791C80.1856 8.70601 81.2933 9.72432 82.3371 10.9246L82.0594 11.5598C81.1592 10.5575 79.5089 8.52727 78.3438 8.0261L79.0428 7.60791Z" fill="#BDADAA"/>
</g>
<defs>
<clipPath id="clip0_119_612">
<rect width="250" height="250" fill="white"/>
</clipPath>
</defs>
</svg>
