<svg width="250" height="250" viewBox="0 0 250 250" fill="none" xmlns="http://www.w3.org/2000/svg">
<path d="M136.726 121.841C138.868 101.391 145.521 87.4079 161.588 74.185C164.378 71.8879 174.693 63.6672 177.462 66.4313C178.576 70.2636 171.441 85.9065 169.258 89.873C164.949 97.7778 159.325 104.894 152.632 110.919C145.055 117.677 141.232 116.567 136.947 125.002C138.177 139.815 139.725 162.305 138.245 177.161C142.695 166.982 150.309 150.485 159.072 143.244L159.313 144.313C147.877 156.253 140.428 181.035 137.023 197.124L137.305 197.726C138.744 197.075 140.167 193.12 140.987 191.66C151.929 172.205 173.117 160.044 194.86 157.026C195.965 156.872 196.773 156.954 197.838 157.283C200.097 159.4 197.609 162.334 196.082 164.311C182.656 181.729 163.59 195.596 141.341 198.266C139.797 199.591 137.9 201.132 136.436 202.497C135.488 210.416 132.521 245.395 128.771 249.502C127.834 249.925 127.255 250.241 126.102 249.753C125.269 249.404 124.626 248.715 124.337 247.862C123.111 244.367 123.629 238.946 123.593 235.19C123.473 221.735 121.841 207 118.082 194.087C116.04 192.356 113.962 190.662 111.859 189.004C91.841 186.485 73.6395 176.143 61.2264 160.242L61.0938 160.071C56.0811 160.946 49.2515 161.545 44.661 158.795C41.3889 156.833 40.9788 153.049 43.1656 150.024C46.916 144.836 53.5446 143.702 59.4175 142.575C54.0592 141.16 30.7525 137.059 41.2321 125.694C44.0017 122.694 48.8977 122.887 52.7567 123.054C41.1637 113.959 45.1715 101.551 60.6275 108.24C58.6538 104.885 56.0369 100.282 56.9494 96.2225C57.3031 94.5837 58.3201 93.1639 59.7552 92.2983C63.2082 90.2186 68.0319 91.2876 71.1352 93.5043C73.8686 95.4538 74.9097 97.4491 76.5417 100.326C78.6481 87.2809 88.0303 86.3477 92.5847 98.0531C92.9987 97.6078 93.4529 97.1995 93.9434 96.8338C96.0377 95.2404 98.6947 94.5712 101.295 94.9804C108.065 96.0047 110.256 103.498 109.287 109.37C125.177 123.346 129.619 134.684 132.618 154.896C134.366 133.58 131.327 107.246 126.495 86.6234L129.603 85.8751C131.601 93.1559 133.229 100.534 134.471 107.981C135.11 111.764 135.886 118.407 136.726 121.841ZM96.7009 135.238C96.9421 138.791 97.3883 140.662 95.7683 143.884C111.779 164.395 121.382 185.423 127.713 210.536C130.105 195.591 131.673 174.177 132.501 159.01L129.173 153.221C117.214 147.325 108.913 137.913 101.826 126.875L100.644 128.698C99.4142 131.05 97.7501 133.23 96.7009 135.238ZM82.4669 148.858C80.0068 151.354 77.1688 153.219 74.1781 155.02C89.7909 159.716 104.049 169.177 112.141 183.481C113.672 186.182 114.316 187.592 116.84 189.5C111.679 173.478 103.651 158.525 93.1515 145.366C89.807 147.211 89.397 148.066 85.6747 146.687L82.4669 148.858Z" fill="#5CAC56"/>
<path d="M76.5417 100.326C78.6481 87.2808 88.0303 86.3476 92.5847 98.053C92.9987 97.6077 93.4529 97.1994 93.9434 96.8337C96.0377 95.2403 98.6947 94.5711 101.295 94.9802C108.065 96.0046 110.256 103.498 109.287 109.37C107.759 115.223 104.371 121.344 101.826 126.875L100.644 128.698C99.4142 131.05 97.7501 133.23 96.7009 135.238C96.9421 138.79 97.3883 140.662 95.7683 143.884C94.9443 144.373 94.0077 144.963 93.1515 145.366C89.807 147.21 89.397 148.066 85.6747 146.687L82.4669 148.858C80.0068 151.354 77.1688 153.219 74.1781 155.02C69.1293 157.596 66.6692 158.594 61.0938 160.071C56.0811 160.946 49.2515 161.544 44.661 158.794C41.3889 156.833 40.9788 153.049 43.1656 150.024C46.916 144.836 53.5446 143.702 59.4175 142.574C54.0592 141.16 30.7525 137.059 41.2321 125.694C44.0017 122.694 48.8978 122.887 52.7567 123.054C41.1637 113.959 45.1715 101.551 60.6275 108.24C58.6538 104.884 56.0369 100.282 56.9494 96.2224C57.3031 94.5836 58.3201 93.1638 59.7552 92.2982C63.2082 90.2185 68.0319 91.2874 71.1352 93.5042C73.8686 95.4537 74.9097 97.449 76.5417 100.326Z" fill="#D8C459"/>
<path d="M85.6748 146.687C81.458 141.495 88.7901 143.344 87.7731 138.707C87.3953 136.995 91.5035 137.41 91.9336 136.936C93.027 135.728 92.5727 134.889 94.1163 134.056C95.3544 134.164 95.684 134.498 96.701 135.238C96.9422 138.79 97.3884 140.661 95.7684 143.884C94.9444 144.373 94.0078 144.963 93.1516 145.366C89.8071 147.21 89.3971 148.066 85.6748 146.687Z" fill="#18271F"/>
<path d="M79.4764 139.865C76.7309 139.328 74.5883 138.895 71.875 138.105C73.3181 137.574 82.3465 140.274 84.694 139.802C84.7744 139.786 85.4377 140.867 86.3582 140.978C87.2707 139.974 86.9732 139.231 87.3269 137.573C88.6816 136.496 89.1801 136.73 91.0653 136.473C91.6 135.842 92.0743 134.771 92.4562 134.004C94.0601 133.066 94.5947 133.374 96.6247 133.477C97.714 132.939 100.154 127.206 100.942 125.671L101.223 126.651C100.681 127.228 100.713 127.644 100.661 128.417L100.644 128.699C99.4144 131.05 97.7502 133.23 96.7011 135.238C95.6841 134.499 95.3544 134.164 94.1163 134.056C92.5727 134.889 93.027 135.729 91.9336 136.936C91.5035 137.411 87.3953 136.996 87.7732 138.708C88.7902 143.345 81.4581 141.495 85.6748 146.688L82.467 148.858C78.1016 150.045 62.0988 157.008 58.2358 154.078C59.0197 152.095 65.8332 152.465 67.9115 151.744C71.674 150.437 80.0833 147.66 82.9334 145.018L82.7122 144.663L80.0391 145.447L79.6693 145.205C81.9123 144.395 83.7735 144.305 84.5091 141.948C84.0107 141.293 82.869 141.293 81.8882 141.111C82.9655 141.061 83.5524 141.087 84.5694 140.697L84.2317 140.356C82.3987 140.05 81.3496 139.85 79.4764 139.865Z" fill="#C87922"/>
<path d="M81.888 141.111C80.063 141.095 74.7489 141.226 73.752 139.76C75.8623 140.08 77.3898 140.453 79.4761 139.865C81.3493 139.85 82.3985 140.049 84.2315 140.355L84.5691 140.697C83.5521 141.087 82.9653 141.06 81.888 141.111Z" fill="#FFE246"/>
<path d="M90.2007 118.206C92.7251 121.954 92.91 119.618 93.0708 125.557C93.6497 123.978 93.4607 121.629 94.2486 120.7C94.7953 121.643 94.5179 125.746 94.4858 127.103C94.5059 127.292 94.5139 127.482 94.5099 127.672C94.5059 128.366 94.0034 131.16 93.4205 131.71C93.2115 131.421 90.4539 119.484 90.2007 118.206Z" fill="#FFE246"/>
<path d="M114.645 10.5386C115.586 4.13987 119.127 -1.58589 126.528 0.400127C131.44 1.71775 134.061 5.42768 138.535 7.5963C146.502 2.06376 152.548 -0.868546 157.351 9.62122C158.786 12.7484 161.194 9.13411 164.342 10.133C173.442 13.0209 173.394 21.6491 171.332 30.2335C171.075 45.3684 161.596 57.4029 151.173 67.4694C147.053 71.4327 142.305 74.6898 137.124 77.1095L136.999 77.2614C133.811 81.0905 134.37 82.8 129.603 85.8752L126.496 86.6235C120.164 84.6093 117.182 87.5028 113.319 80.8152C100.174 79.653 88.3077 75.412 77.6714 67.4999C70.5121 62.1731 61.6968 53.2584 60.3823 44.2215C56.1656 38.3593 53.4401 28.9672 61.9098 24.6599C62.6655 24.2749 66.8943 24.5012 68.0359 24.4967C68.1726 22.792 68.3294 21.0889 68.5143 19.3885C69.672 9.14697 75.7097 8.7848 84.2397 10.2702C89.9558 11.2659 91.1215 6.30094 94.9885 3.4335C102.98 -2.49103 109.978 4.28636 114.645 10.5386Z" fill="#D8C459"/>
<path d="M114.645 10.5386C115.586 4.13987 119.127 -1.58589 126.528 0.400127C131.44 1.71775 134.061 5.42768 138.535 7.5963C146.502 2.06376 152.548 -0.868546 157.351 9.62122C158.786 12.7484 161.194 9.13411 164.342 10.133C173.442 13.0209 173.394 21.6491 171.332 30.2335C171.22 13.0787 157.014 6.97151 148.464 22.6883C138.302 17.6303 137.888 24.9042 132.348 30.1969C127.918 28.4608 124.381 27.1069 119.509 28.8832C115.775 30.2451 115.381 34.7212 112.635 33.3166C109.97 31.8667 109.259 30.9211 106.151 31.9808C103.181 32.9931 101.613 39.9548 98.3651 37.7501C91.6843 33.219 89.3769 31.7393 82.081 36.8077C72.9562 32.3449 62.762 32.3722 60.3823 44.2215C56.1656 38.3593 53.4401 28.9672 61.9098 24.6599C62.6655 24.2749 66.8943 24.5012 68.0359 24.4967C68.1726 22.792 68.3294 21.0889 68.5143 19.3885C69.672 9.14697 75.7097 8.7848 84.2397 10.2702C89.9558 11.2659 91.1215 6.30094 94.9885 3.4335C102.98 -2.49103 109.978 4.28636 114.645 10.5386Z" fill="#CE8A3F"/>
<path d="M112.792 78.9546C112.909 78.6343 113.033 78.3164 113.162 78.0005C115.14 73.1379 117.704 76.5289 121.471 75.1456C122.399 74.8052 122.717 72.7637 124.498 72.0114C126.652 71.9745 127.983 73.4425 129.53 74.8322L131.99 72.3458C133.128 72.3534 134.603 72.302 135.681 72.5544C136.919 74.2925 137.244 74.8997 137.124 77.1096L136.999 77.2615C133.811 81.0905 134.37 82.8001 129.603 85.8752L126.495 86.6235C120.164 84.6093 117.182 87.5028 113.319 80.8153L112.792 78.9546Z" fill="#18271F"/>
<path d="M126.282 72.5739C127.271 66.8404 126.206 61.7865 126.934 58.3223L127.311 58.3396C129.301 63.9108 127.938 67.5417 128.807 71.8144L129.486 71.9482C132.557 69.8673 131.456 60.7597 132.493 57.9803L132.276 59.3732L132.903 59.6754C133.349 62.6007 133.651 65.3531 132.895 68.253C132.529 69.6463 131.99 70.8945 131.99 72.3457L129.53 74.8321C127.983 73.4424 126.652 71.9744 124.498 72.0113C122.717 72.7636 122.399 74.8051 121.471 75.1455C117.704 76.5288 115.14 73.1378 113.162 78.0004C113.033 78.3163 112.909 78.6342 112.792 78.9545L111.807 77.4716L112.068 76.6148C117.121 71.853 117.825 75.4646 120.349 74.734L120.341 74.3522C119.155 72.5088 116.418 70.919 114.211 71.3141C114.235 70.4589 114.798 70.1494 115.509 69.3529C117.531 71.1449 119.015 72.5551 121.382 73.925C118.54 70.8206 113.093 63.693 112.595 59.5344C114.424 59.8579 117.041 66.0278 120.241 68.9571C118.894 65.6232 118.01 63.1147 116.944 59.6803L117.145 59.5171C119.489 62.9595 120.341 66.4611 122.841 69.8255L122.954 69.9758C122.665 66.9907 120.819 59.6919 121.499 57.6902L121.961 57.8312C123.464 61.6563 125.024 68.2904 126.282 72.5739Z" fill="#C87922"/>
<path d="M131.99 72.3456C133.53 70.5231 134.229 69.4943 135.255 67.3515C136.235 65.298 137.473 59.4664 138.945 58.1647L139.447 58.1643C140.07 61.2615 137.626 67.495 137.031 70.7413C137.003 70.8981 135.87 72.3259 135.681 72.5542C134.603 72.3018 133.128 72.3532 131.99 72.3456Z" fill="#C87922"/>
<path d="M158.782 127.807C158.613 116.329 164.623 106.407 172.027 98.1117C185.2 83.3565 197.006 94.6355 211.67 94.8987C209.516 97.828 206.923 101.585 206.244 104.95C203.591 118.067 207.836 130.463 194 138.798C187.817 142.523 184.662 145.06 176.835 143.803C173.535 147.065 162.822 146.44 159.313 144.313L159.072 143.244C156.652 138.298 156.27 132.744 158.782 127.807Z" fill="#D8C459"/>
<path d="M158.782 127.807C160.961 126.059 162.308 125.083 164.933 126.799C165.998 128.526 165.471 129.169 165.857 131.18C168.727 129.859 169.342 128.224 172.204 129.016C173.221 130.034 173.816 131.397 173.868 132.833C173.925 134.613 172.156 136.53 171.051 137.895C176.55 137.209 178.958 137.465 176.835 143.802C173.535 147.065 162.822 146.44 159.313 144.312L159.072 143.243C156.652 138.298 156.27 132.744 158.782 127.807Z" fill="#5CAC56"/>
</svg>
