<svg width="250" height="250" viewBox="0 0 250 250" fill="none" xmlns="http://www.w3.org/2000/svg">
<g clip-path="url(#clip0_119_541)">
<path d="M143.412 139.626C144.997 141.49 148.127 145.21 150.43 146.288C151.154 146.909 151.639 147.139 151.962 147.943L152.157 149.098L152.946 148.5C153.704 148.784 158.04 151.594 159.272 152.286C162.085 153.488 163.81 153.951 166.787 154.716L170.082 155.083C175.104 155.342 179.08 154.035 183.545 151.973C183.102 153.5 182.238 156.736 181.519 158.063C180.868 159.906 180.523 160.695 179.639 162.443C178.323 165.467 176.466 169.398 174.417 172.023C166.843 181.728 158.204 190.602 150.731 200.409C150.202 201.105 147.502 204.693 147.018 205.042C145.625 207.062 143.907 209.167 142.34 211.062C134.73 220.27 127.605 230.049 122.149 240.7C121.102 242.744 120.742 248.438 118.599 249.64C117.053 249.257 117.161 248.247 116.804 246.755C118.376 246.233 118.206 245.48 118.451 244.057C118.137 243.53 117.418 241.704 116.958 240.822C115.992 238.933 115.941 236.26 114.834 233.889C114.823 231.651 113.897 226.888 113.786 223.55L114.023 223.66C114.392 222.876 114.275 219.54 114.279 218.44C114.644 216.495 114.297 214.421 114.744 212.116L115.083 212.078L115.369 213.591C115.573 211.439 115.505 208.682 115.665 206.423C115.94 202.552 116.285 198.741 116.65 194.877C116.817 190.793 119.746 183.51 121.32 179.774C123.974 173.172 126.516 167.473 129.349 161.036C134.042 153.376 138.332 147.014 143.412 139.626Z" fill="#4E8EAE"/>
<path d="M151.963 147.943L152.157 149.098L152.02 149.349C150.119 152.755 147.2 156.78 144.984 160.078C132.439 178.737 122.145 199.749 117 221.686L116.528 221.548C115.733 220.339 116.122 219.373 116.338 217.752C122.009 189.635 134.735 170.062 151.963 147.943Z" fill="#F9C672"/>
<path d="M114.279 218.44C114.644 216.495 114.297 214.421 114.744 212.116L115.083 212.077L115.369 213.591C115.449 214.972 115.519 215.981 115.731 217.344C116.231 217.731 116.007 217.635 116.338 217.752C116.122 219.373 115.733 220.339 116.528 221.548L117 221.686C116.119 227.505 116.671 231.447 117.404 237.236C117.304 238.25 117.194 239.876 116.958 240.822C115.992 238.932 115.941 236.26 114.834 233.888C114.823 231.651 113.897 226.888 113.786 223.549L114.023 223.66C114.392 222.876 114.275 219.54 114.279 218.44Z" fill="#EDC676"/>
<path d="M127.38 215.861C129.098 211.476 133.102 203.881 136.001 199.481C141.062 191.799 149.066 178.886 156.318 173.297C158.052 171.961 167.58 168.743 170.177 167.63C172.778 166.515 177.87 162.872 179.639 162.443C178.323 165.467 176.467 169.398 174.418 172.023C166.843 181.728 158.204 190.603 150.731 200.409C150.202 201.105 147.503 204.693 147.018 205.042C145.974 204.762 143.469 205.678 142.267 205.976C135.303 207.703 132.213 211.08 127.38 215.861Z" fill="#52A3B3"/>
<path d="M159.272 152.286C162.086 153.489 163.811 153.951 166.787 154.716C158.539 164.558 149.542 175.578 141.6 185.617C142.134 183.42 143.237 178.649 142.087 176.573L141.547 176.172C144.498 170.79 155.151 156.648 159.272 152.286Z" fill="#52A3B3"/>
<path d="M183.545 151.973C183.102 153.5 182.238 156.736 181.519 158.063L181.253 157.93C180.239 158.275 178.056 160.211 176.959 160.919C170.914 164.825 164.319 167.213 157.747 170.105C159.214 168.223 168.937 155.723 170.082 155.083C175.104 155.341 179.08 154.035 183.545 151.973Z" fill="#52A3B3"/>
<path d="M122.944 217.79C126.094 204.704 133.235 190.536 139.955 178.9C140.743 184.869 136.65 193.623 133.252 198.504C129.311 204.163 126.861 211.024 123.768 217.126C123.682 217.295 123.117 217.669 122.944 217.79Z" fill="#52A3B3"/>
<path d="M117.405 237.236C117.676 238.399 117.711 239.33 118.594 240.05L119.046 240.148L118.451 244.056C118.137 243.53 117.419 241.704 116.958 240.822C117.195 239.876 117.304 238.25 117.405 237.236Z" fill="#F3F6E8"/>
<path d="M175.311 64.2938C178.331 63.2887 180.64 62.0665 183.478 60.6658C181.617 70.1131 179.379 78.0644 174.884 86.6906C174.383 87.6521 172.773 90.9069 172.193 91.7228L171.266 93.4001C169.626 96.6209 167.836 99.9224 166.285 103.173C161.596 113.004 155.354 121.91 149.109 130.801C148.635 127.49 149.099 122.577 149.313 119.127L148.918 118.837C147.167 122.907 146.848 129.282 147.235 133.631L144.748 137.472L143.552 136.012L143.384 136.521L143.863 137.53L143.555 138.186L143.055 138.348C142.459 137.639 142.16 137.185 141.66 136.426L141.159 136.529C140.436 135.815 139.275 132.91 138.821 131.848C138.24 130.4 137.713 128.806 137.192 127.326C136.942 129.66 135.854 132.594 135.106 134.898C134.806 130.802 134.459 123.85 132.326 120.304C132.854 118.437 133.478 116.509 134.053 114.647C133.557 112.954 134.342 112.605 135.355 111.279C141.983 94.3357 148.669 83.2706 161.124 69.9921C161.618 69.4075 162.483 68.551 163.035 67.9716C163.961 66.8992 165.293 65.7989 166.371 64.842C168.884 64.8775 170.746 64.892 173.237 64.6849L173.34 64.607L175.311 64.2938Z" fill="#52A3B3"/>
<path d="M151.743 103.185C156.845 100.763 167.048 94.2718 171.266 93.4001C169.626 96.621 167.836 99.9225 166.285 103.173C161.596 113.004 155.354 121.911 149.109 130.802C148.634 127.49 149.099 122.577 149.313 119.128L148.918 118.837C147.167 122.908 146.847 129.283 147.235 133.631L144.748 137.472L143.552 136.012C143.006 134.634 140.697 130.204 139.856 128.353C140.888 126.619 142.505 122.429 143.43 120.434C145.865 115.182 148.767 108.1 151.743 103.185Z" fill="#52A3B3"/>
<path d="M148.919 118.838C147.836 118.211 146.928 117.671 146.505 116.45C147.655 114.261 153.007 114.828 153.255 117.12C152.071 118.981 150.994 118.214 149.313 119.128L148.919 118.838Z" fill="#F9C672"/>
<path d="M175.311 64.2938C178.331 63.2887 180.64 62.0665 183.478 60.6658C181.616 70.1131 179.379 78.0644 174.884 86.6906C174.383 87.6521 172.773 90.9069 172.193 91.7228C163.168 93.3803 160.37 95.185 153.042 100.417C154.265 97.6927 156.842 93.3591 158.404 90.6864C163.498 81.9753 169.273 72.3322 175.311 64.2938Z" fill="#52A3B3"/>
<path d="M173.34 64.6072L175.311 64.2939C169.274 72.3323 163.498 81.9754 158.405 90.6866C156.842 93.3592 154.265 97.6928 153.042 100.417C160.37 95.1851 163.168 93.3805 172.193 91.7229L171.266 93.4002C167.049 94.2719 156.845 100.763 151.743 103.185C148.767 108.1 145.865 115.182 143.43 120.434C142.506 122.429 140.888 126.619 139.856 128.353C139.317 127.081 139.084 126.251 138.698 124.915C142.832 116.584 146.009 108.18 150.671 99.7706C153.489 94.6872 157.574 88.2407 159.919 83.2959C160.416 82.2477 160.892 72.3277 161.124 69.9922C161.618 69.4077 162.483 68.5511 163.035 67.9717C163.961 66.8993 165.293 65.799 166.371 64.8421C168.885 64.8776 170.746 64.8922 173.238 64.6851L173.34 64.6072Z" fill="#447CAE"/>
<path d="M166.371 64.8421C168.884 64.8776 170.746 64.8921 173.237 64.6851C172.728 65.9457 164.19 77.5136 162.603 79.6587C162.989 76.9469 164.122 70.2784 163.035 67.9717C163.961 66.8993 165.293 65.799 166.371 64.8421Z" fill="#52A3B3"/>
<path d="M137.192 127.326C136.727 124.412 135.861 119.042 136.661 116.202C137.014 116.912 138.364 123.462 138.697 124.915C139.084 126.252 139.317 127.081 139.856 128.353C140.697 130.204 143.006 134.634 143.552 136.012L143.384 136.521L143.863 137.53L143.555 138.186L143.055 138.348C142.458 137.64 142.16 137.185 141.66 136.427L141.158 136.529C140.436 135.816 139.274 132.91 138.821 131.849C138.24 130.401 137.713 128.806 137.192 127.326Z" fill="#EDC676"/>
<path d="M134.053 114.647C133.557 112.954 134.342 112.605 135.355 111.279C137.397 111.228 138.73 111.09 139.16 113.468C138.041 116.163 136.246 115.582 134.053 114.647Z" fill="#F9C672"/>
<path d="M132.326 120.304C134.459 123.85 134.806 130.802 135.106 134.898C135.853 132.594 136.942 129.66 137.192 127.326C137.713 128.806 138.24 130.4 138.821 131.848C139.274 132.91 140.436 135.815 141.158 136.529C141.975 138.016 142.274 138.349 143.412 139.626C138.332 147.014 134.042 153.376 129.349 161.036C126.516 167.473 123.974 173.172 121.32 179.774C119.746 183.51 116.817 190.793 116.651 194.877L116.348 194.821C116.255 192.248 117.829 183.843 118.434 180.961L120.531 172.614C121.245 167.615 123.194 160.542 124.243 155.407C126.354 145.075 128.559 134.706 131.104 124.474C131.468 123.072 131.904 121.691 132.326 120.304Z" fill="#447CAE"/>
<path d="M131.104 124.474C132.148 126.384 133.75 137.159 132.986 139.286C129.194 149.84 125.124 160.293 121.774 171.017C121.551 171.731 121.117 172.173 120.531 172.614C121.245 167.615 123.194 160.542 124.243 155.407C126.354 145.075 128.559 134.706 131.104 124.474Z" fill="#52A3B3"/>
<path d="M138.821 131.849C139.275 132.91 140.436 135.816 141.159 136.529C141.975 138.016 142.274 138.349 143.412 139.626C138.332 147.014 134.042 153.376 129.349 161.036C128.736 161.217 128.387 161.832 128.041 162.318L127.594 162.219C127.643 161.228 128.283 160.699 127.917 159.651C128.321 157.573 130.638 151.936 131.479 149.821C133.852 143.8 136.299 137.809 138.821 131.849Z" fill="#52A3B3"/>
<path d="M127.917 159.651C128.283 160.699 127.643 161.228 127.594 162.219L128.041 162.318C128.386 161.832 128.736 161.217 129.349 161.036C126.516 167.474 123.974 173.172 121.32 179.774C121.394 173.958 125.483 165.244 127.917 159.651Z" fill="#6A9EBF"/>
<path d="M138.288 64.7517L139.339 64.655C135.726 76.4109 132.694 88.3374 130.253 100.392C128.685 107.925 117.12 177.751 118.266 180.646C118.31 180.757 118.378 180.856 118.434 180.961C117.83 183.843 116.256 192.248 116.348 194.821L116.651 194.877C116.285 198.741 115.941 202.552 115.666 206.423C115.505 208.682 115.573 211.439 115.369 213.591L115.083 212.078L114.744 212.116C114.297 214.421 114.644 216.495 114.279 218.44C114.275 219.54 114.392 222.876 114.023 223.66L113.786 223.55C113.28 216.479 113.251 208.577 113.052 201.422L114.036 200.412C114.046 198.138 114.336 194.944 114.511 192.627C114.701 189.39 114.942 186.155 115.235 182.925C116.542 178.296 117.385 165.548 117.719 160.462C118.147 159.763 118.404 158.272 118.534 157.413C122.528 131.086 125.96 104.328 133.603 78.7661C134.913 74.3843 136.531 68.8925 138.288 64.7517Z" fill="#F4C97F"/>
<path d="M114.036 200.412C114.025 205.502 113.804 213.564 114.279 218.44C114.275 219.54 114.392 222.876 114.023 223.66L113.786 223.55C113.28 216.479 113.251 208.577 113.052 201.422L114.036 200.412Z" fill="#9C9F93"/>
<path d="M140.484 58.885L141.167 58.8726C140.588 60.6772 139.823 62.8578 139.34 64.6548L138.288 64.7515L140.484 58.885Z" fill="#DAB98C"/>
<path d="M85.5989 51.8239C86.6204 51.7423 87.1543 51.9006 87.9557 52.5609C95.119 58.4648 104.189 88.8826 107.394 98.882C108.576 102.572 110.65 107.419 111.201 111.175C111.739 112.964 112.231 114.617 112.679 116.433C117.239 134.506 117.503 141.812 117.719 160.462C117.385 165.548 116.542 178.296 115.235 182.925C114.942 186.155 114.7 189.39 114.511 192.628C114.336 194.944 114.046 198.138 114.036 200.412L113.052 201.422C112.433 189.358 110.307 173.601 106.4 162.06C99.8704 142.771 91.0747 123.833 83.5072 104.947C80.337 97.0359 75.8394 77.7208 77.3081 69.764L77.3329 69.2182C77.6549 63.4339 80.2715 55.2927 85.2509 51.8903L85.5989 51.8239Z" fill="#447CAE"/>
<path d="M77.3081 69.7639C77.4151 82.1674 90.116 88.3532 92.9563 97.9539C98.0276 115.095 103.087 132.519 108.199 149.672C111.056 159.261 112.086 171.256 113.239 181.195C113.447 183.684 113.753 190.552 114.511 192.628C114.336 194.944 114.046 198.138 114.036 200.412L113.052 201.422C112.433 189.358 110.307 173.601 106.4 162.06C99.8704 142.771 91.0747 123.833 83.5072 104.947C80.337 97.0358 75.8394 77.7207 77.3081 69.7639Z" fill="#52A3B3"/>
<path d="M85.5991 51.8239C86.6206 51.7423 87.1545 51.9006 87.9559 52.5609C95.1192 58.4648 104.19 88.8826 107.394 98.882C108.577 102.572 110.65 107.419 111.201 111.175C109.964 113.296 108.362 133.843 107.486 138.776C104.174 127.567 101.068 116.231 97.7558 105.107C93.6111 91.19 87.5863 77.8802 86.6273 63.1285C86.4993 61.1626 86.3007 52.8132 85.5991 51.8239Z" fill="#52A3B3"/>
<path d="M112.679 116.433C117.239 134.506 117.503 141.812 117.719 160.462C117.385 165.548 116.542 178.296 115.235 182.925C114.271 181.3 114.072 176.716 114.005 174.685C113.608 162.684 111.182 151.629 108.01 140.088C110.52 134.072 111.56 127.979 111.883 121.505C111.972 119.72 112.174 118.147 112.679 116.433Z" fill="#52A3B3"/>
<path d="M85.2512 51.8901C84.9489 67.1536 85.9598 74.7912 90.0335 89.3455C86.2266 84.0814 82.5552 78.824 79.6445 73.0262C79.1521 72.0454 78.2068 69.6571 77.3333 69.2181C77.6552 63.4337 80.2718 55.2926 85.2512 51.8901Z" fill="#52A3B3"/>
<path d="M63.1433 113.955C77.2674 108.95 94.0174 163.655 96.6786 173.669L98.4829 178.732C100.714 185.706 102.955 192.339 104.862 199.412C107.421 208.906 109.41 218.538 112.55 227.848C113.083 229.428 114.068 232.536 114.835 233.888C115.941 236.26 115.992 238.932 116.958 240.822C117.418 241.704 118.137 243.53 118.451 244.056C118.206 245.48 118.377 246.233 116.804 246.755C116.587 245.547 115.798 242.939 115.45 241.651C113.942 237.602 110.896 232.002 108.783 228.183C105.686 223.004 103.311 217.357 99.5575 212.366C93.2106 203.926 86.168 196.551 79.8573 188.02C78.9686 186.937 78.2297 185.864 77.4232 184.723C75.8754 182.928 74.4622 180.39 73.0526 178.387C64.1972 165.805 60.9372 154.257 58.1627 139.382C57.8786 138.056 57.7149 136.907 57.5226 135.572C56.6109 132.969 56.9705 123.889 57.9959 120.994C59.0526 118.009 59.8372 115.649 62.7516 114.046L63.1433 113.955Z" fill="#447CAE"/>
<path d="M58.1626 139.382C61.6127 141.699 65.1783 146.914 68.8021 149.833C73.3624 153.507 79.4888 155.82 83.518 159.982C87.384 163.976 97.6751 197.277 100.987 204.704L100.698 204.404C94.6471 198.042 90.8165 189.685 81.9492 186.011C80.6746 185.484 78.7784 184.623 77.4231 184.723C75.8753 182.928 74.4621 180.39 73.0526 178.387C64.1971 165.805 60.9371 154.257 58.1626 139.382Z" fill="#52A3B3"/>
<path d="M57.5226 135.572C56.6109 132.969 56.9705 123.89 57.9959 120.994C59.0526 118.009 59.8372 115.65 62.7516 114.046C63.1809 115.554 65.1131 118.642 66.0015 120.271L72.5903 132.509C75.8296 138.651 81.0604 151.137 83.2143 157.885C77.2052 152.369 69.3403 148.169 63.6772 141.518C62.6033 140.256 58.7885 135.728 57.5226 135.572Z" fill="#52A3B3"/>
<path d="M63.1431 113.955C77.2672 108.95 94.0172 163.655 96.6784 173.669C96.2654 174.553 95.5323 180.173 95.321 181.577C87.3845 160.501 78.9696 138.054 66.5061 119.272C65.5756 117.87 64.1733 114.765 63.1431 113.955Z" fill="#52A3B3"/>
<path d="M98.4829 178.732C100.714 185.706 102.955 192.339 104.862 199.412C107.42 208.906 109.409 218.538 112.55 227.848C113.083 229.428 114.067 232.536 114.835 233.888C115.941 236.26 115.992 238.932 116.958 240.822C117.418 241.704 118.137 243.53 118.451 244.056C118.206 245.48 118.376 246.233 116.804 246.755C116.587 245.548 115.798 242.939 115.45 241.651C115.73 241.255 116.069 240.909 115.879 240.372C110.919 226.362 105.367 212.612 100.982 198.389C98.4347 190.124 95.3008 187.562 98.4829 178.732Z" fill="#52A3B3"/>
<path d="M79.8572 188.02C86.2674 189.538 97.4359 203.291 101.755 208.647C104.201 211.681 106.618 221.925 108.717 225.894C108.95 226.461 108.84 227.582 108.783 228.183C105.686 223.004 103.311 217.357 99.5574 212.366C93.2105 203.926 86.1679 196.551 79.8572 188.02Z" fill="#52A3B3"/>
<path d="M126.839 8.51147L127.522 9.50232C124.845 19.4341 122.553 33.6355 128.155 42.7257C131.076 47.4664 133.782 50.3298 137.651 54.1737C137.793 54.4045 137.672 54.2407 138.186 54.4718C139.751 53.6862 139.786 53.1298 140.241 51.5432C143.264 42.5807 150.542 26.3773 156.728 19.466L157.157 20.3492C151.824 29.0275 143.299 45.8446 142.079 55.7776C145.523 52.5665 149.818 48.6747 152.776 45.0463C157.229 39.5854 160.413 32.8869 163.777 26.7481C162.378 25.6245 161.081 24.5642 162.143 22.7208C164.123 21.3749 166.71 21.7308 168.254 23.5658C168.998 26.401 166.758 27.0868 164.51 27.4145C163.473 28.3778 161.737 33.0482 160.993 34.6567C156.535 44.3023 151.707 50.952 143.301 57.6214C152.504 57.1951 156.658 55.5778 163.186 48.5149C169.829 41.3264 174.597 32.8703 175.123 22.9454L174.749 22.8184C172.806 22.1401 171.722 21.6814 171.914 19.4256C175.352 13.6858 182.186 21.7008 176.294 23.3599C175.809 26.2112 176.007 28.6101 175.391 31.6068C173.49 40.8571 167.22 49.4375 159.802 55.1039C157.728 56.6878 154.681 57.8209 152.36 59.0491C166.199 56.981 171.826 54.48 181.8 44.1861C183.758 42.1653 185.585 39.3717 187.337 37.4788L187.743 37.9403C185.089 44.8092 175.723 54.8865 168.714 57.5438C164.482 59.1483 161.21 60.15 156.644 60.7889C158.715 61.1233 168.007 62.7981 169.368 62.0396C172.284 59.6986 178.11 55.4563 181.617 54.6798L182.375 54.6334C182.846 55.0791 182.92 55.0903 183.28 55.6163L183.653 55.6524C183.53 57.0305 183.203 58.8457 183.809 60.0533L183.478 60.6661C180.64 62.0668 178.331 63.289 175.311 64.2941L173.34 64.6073L173.237 64.6852C170.746 64.8923 168.884 64.8778 166.371 64.8423C156.171 63.5716 150.89 61.5511 141.167 58.873L140.484 58.8854C127.045 58.3654 117.159 53.7386 109.691 42.2375L110.253 41.8382C113.934 47.6086 122.767 54.8344 129.596 55.7825L129.895 55.5372C129.562 54.9138 129.801 55.1503 129.182 54.8232L130.491 54.0913C130.588 54.1052 135.072 55.7843 135.547 55.9556C120.019 40.6093 119.493 28.8914 126.839 8.51147Z" fill="#F9C672"/>
<path d="M181.617 54.6795L182.374 54.6331C182.846 55.0788 182.92 55.09 183.279 55.616L183.653 55.6521C183.53 57.0301 183.202 58.8454 183.809 60.053L183.478 60.6658C180.64 62.0665 178.331 63.2887 175.311 64.2938L173.34 64.607C173.605 64.3317 179.037 62.0999 179.915 61.7027L179.792 61.5502C178.456 61.6163 176.393 62.2218 174.655 62.4407L174.142 62.1269C172.307 62.2151 171.213 62.3188 169.368 62.0392C172.283 59.6983 178.11 55.4559 181.617 54.6795Z" fill="#52A3B3"/>
<path d="M183.279 55.616L183.653 55.6521C183.53 57.0301 183.202 58.8453 183.809 60.0529L183.478 60.6657C180.64 62.0665 178.331 63.2887 175.311 64.2937L173.34 64.607C173.605 64.3317 179.037 62.0998 179.915 61.7026L179.792 61.5501C178.456 61.6162 176.393 62.2217 174.655 62.4406L174.142 62.1268C174.557 61.8539 174.974 61.8588 175.531 61.7545C176.873 61.4861 178.347 60.9668 179.667 60.5484L183.153 59.5693C183.111 58.2277 183.206 56.9546 183.279 55.616Z" fill="#EDC676"/>
<path d="M181.617 54.6795L182.375 54.6331C182.846 55.0788 182.92 55.09 183.28 55.616C183.206 56.9546 183.111 58.2278 183.153 59.5694L179.667 60.5484C178.955 60.3559 179.172 60.4593 178.594 60.0682C178.95 58.1047 182.449 56.9759 181.617 54.6795Z" fill="#52A3B3"/>
<path d="M181.617 54.6794C182.449 56.9759 178.95 58.1047 178.594 60.0682C179.172 60.4593 178.955 60.3559 179.667 60.5484C178.347 60.9668 176.873 61.4862 175.531 61.7545C177.7 59.7058 179.956 57.1581 181.617 54.6794Z" fill="#447CAE"/>
<path d="M172.711 126.682C173.206 126.753 173.229 126.687 173.618 126.919C171.392 133.633 164.606 141.068 159.192 145.545C161.994 145.441 165.225 145.635 167.372 143.679C169.635 141.21 171.587 139.121 174.008 136.786L174.56 136.211C176.942 133.655 181.022 129.952 183.712 127.955L184.307 127.432C185.383 127.141 184.9 127.068 185.815 127.562C187.768 130.853 185.219 145.186 184.176 149.18L184.033 149.709C180.505 150.788 180.874 151.49 176.262 152.094C173.718 152.414 171.341 152.626 168.783 152.384C165.832 151.683 163.855 151.177 160.975 150.192C159.618 149.555 157.601 148.363 156.235 147.611C154.933 147.962 154.981 147.871 154.059 147.061C154.505 145.782 154.701 144.646 155.715 143.96C160.393 143.634 170.62 130.85 172.711 126.682Z" fill="#52A3B3"/>
<path d="M172.711 126.682C173.206 126.753 173.229 126.687 173.618 126.919C171.392 133.633 164.606 141.068 159.192 145.545C161.994 145.441 165.225 145.635 167.372 143.679C169.635 141.21 171.587 139.121 174.008 136.786L174.56 136.211C177.138 135.977 177.887 135.823 179.173 138.284L179.328 138.562C179.012 140.354 178.804 140.66 177.205 141.538C174.414 143.047 171.174 149.43 168.783 152.384C165.832 151.683 163.855 151.177 160.975 150.192C159.618 149.555 157.601 148.363 156.235 147.611C154.933 147.962 154.981 147.871 154.059 147.061C154.505 145.782 154.701 144.646 155.715 143.96C160.393 143.634 170.62 130.85 172.711 126.682Z" fill="#52A3B3"/>
<path d="M172.711 126.682C173.206 126.753 173.229 126.687 173.618 126.919C171.392 133.633 164.606 141.068 159.192 145.545C161.994 145.441 165.225 145.635 167.372 143.679C168.498 144.009 169.275 143.421 170.408 142.896L171.311 144.113C168.52 145.97 166.9 146.525 163.7 147.586L160.975 150.192C159.618 149.555 157.601 148.363 156.235 147.611C154.933 147.962 154.981 147.871 154.059 147.061C154.505 145.782 154.701 144.646 155.715 143.96C160.393 143.634 170.62 130.85 172.711 126.682Z" fill="#F9C672"/>
<path d="M156.234 147.611C158.565 147.2 161.077 147.789 163.7 147.586L160.974 150.192C159.617 149.556 157.601 148.363 156.234 147.611Z" fill="#F3F6E8"/>
<path d="M174.56 136.211C177.138 135.977 177.887 135.824 179.173 138.284L179.328 138.562C179.012 140.355 178.804 140.661 177.205 141.538L175.514 140.469L174.859 139.741C174.437 138.897 174.227 137.733 174.008 136.786L174.56 136.211Z" fill="#F9C672"/>
<path d="M174.008 136.786C174.227 137.733 174.438 138.897 174.859 139.741C173.261 141.373 171.5 141.915 170.408 142.896C169.275 143.421 168.498 144.009 167.372 143.679C169.635 141.21 171.587 139.121 174.008 136.786Z" fill="#52A3B3"/>
<path d="M174.859 139.741L175.515 140.469C174.026 141.872 172.962 142.902 171.311 144.113L170.408 142.896C171.5 141.915 173.262 141.373 174.859 139.741Z" fill="#EDC676"/>
<path d="M179.328 138.562L180.081 138.973C177.657 143.776 174.779 147.575 171.944 152.06C173.116 152.032 175.18 151.913 176.262 152.094C173.718 152.414 171.341 152.627 168.782 152.384C171.173 149.43 174.413 143.048 177.205 141.538C178.804 140.661 179.012 140.355 179.328 138.562Z" fill="#447CAE"/>
<path d="M174.56 136.211C176.942 133.655 181.022 129.952 183.712 127.955C182.68 132.31 179.91 134.838 179.173 138.284C177.887 135.824 177.138 135.977 174.56 136.211Z" fill="#52A3B3"/>
<path d="M184.307 127.433C184.792 129.562 181.145 136.803 180.081 138.973L179.328 138.562L179.173 138.284C179.91 134.838 182.68 132.31 183.712 127.955L184.307 127.433Z" fill="#447CAE"/>
<path d="M166.701 119.414L167.324 119.844C164.904 123.411 163.39 124.846 161.244 128.812C158.76 133.4 157.591 139.897 155.715 143.96C154.701 144.646 154.505 145.782 154.059 147.061C153.501 147.473 153.731 147.38 153.041 147.444C151.974 146.774 151.642 146.628 150.43 146.288C148.128 145.21 144.997 141.49 143.412 139.626C142.274 138.349 141.975 138.016 141.159 136.529L141.66 136.426C142.16 137.185 142.459 137.64 143.055 138.348L143.555 138.186L143.863 137.53L143.384 136.521L143.552 136.012L144.749 137.472L147.235 133.631C146.848 129.283 147.167 122.908 148.918 118.837L149.313 119.128C149.099 122.577 148.635 127.49 149.109 130.802C148.162 133.291 152.178 141.214 153.402 143.434C155.282 136.718 157.861 130.206 162.06 124.517C163.172 123.011 165.298 121.293 166.413 119.805L166.701 119.414Z" fill="#F9C672"/>
<path d="M150.43 146.288C151.642 146.628 151.974 146.774 153.041 147.444C153.731 147.38 153.501 147.473 154.059 147.061C154.981 147.871 154.932 147.962 156.234 147.611C157.601 148.363 159.618 149.556 160.975 150.192C163.855 151.177 165.832 151.683 168.782 152.384C171.341 152.626 173.718 152.414 176.262 152.094C180.874 151.49 180.505 150.788 184.033 149.709C185.181 149.22 187.593 147.855 188.816 147.224L189.383 147.536C187.394 149.523 185.168 150.459 183.545 151.973C179.08 154.035 175.104 155.342 170.082 155.083L166.787 154.715C163.81 153.951 162.085 153.488 159.272 152.286C158.04 151.594 153.704 148.784 152.946 148.5L152.157 149.098L151.963 147.943C151.639 147.139 151.154 146.909 150.43 146.288Z" fill="#EDC984"/>
<path d="M138.533 22.2651C139.528 24.2741 138.74 23.2081 139.048 25.2401C137.6 32.2133 136.48 45.2559 140.241 51.543C139.786 53.1296 139.751 53.686 138.186 54.4715C137.672 54.2405 137.793 54.4042 137.651 54.1735C137.719 51.8832 136.338 49.1032 136.002 46.8468C134.614 37.525 135.325 30.8517 138.533 22.2651Z" fill="#F9C672"/>
<path d="M113.001 24.5781C114.309 28.8814 116.066 32.9285 117.52 37.0792C120.603 45.884 122.823 49.0063 130.491 54.0912L129.182 54.8232C120.985 50.1788 119.123 45.4623 116.086 36.773C114.773 33.0813 113.529 29.3656 112.353 25.6281L113.001 24.5781Z" fill="#EDC676"/>
<path d="M110.639 12.45C113.052 12.2899 116.199 12.8711 116.403 15.767C115.938 16.8679 115.826 16.8976 114.868 17.6798C110.506 18.4666 106.575 16.4028 110.639 12.45Z" fill="#F9C672"/>
<path d="M183.653 55.6521C189.476 54.6871 190.576 61.6081 186.915 62.4049C185.307 62.0393 184.773 61.3925 183.809 60.053C183.203 58.8454 183.53 57.0302 183.653 55.6521Z" fill="#F9C672"/>
<path d="M187.337 37.4786C186.622 36.3543 185.983 35.6066 185.844 34.3011C187.54 29.4169 193.419 34.4651 191.97 38.011C190.556 39.1568 189.233 38.7832 187.743 37.94L187.337 37.4786Z" fill="#F9C672"/>
<path d="M141.598 9.1779C145.387 8.95233 149.639 10.0551 146.498 14.6785C143.572 14.6327 138.868 12.6868 141.598 9.1779Z" fill="#F9C672"/>
<path d="M158.097 12.1062C161.265 12.0611 164.959 14.0224 162.478 17.5862C158.669 17.7784 154.872 16.1491 158.097 12.1062Z" fill="#F9C672"/>
<path d="M109.691 42.2373C107.754 43.2361 104.594 43.5987 104.299 40.7305C105.331 38.5456 111.527 36.9905 112.226 39.3928C111.754 40.6398 111.279 40.9048 110.253 41.838L109.691 42.2373Z" fill="#F9C672"/>
<path d="M128.314 4.39656C126.798 3.8405 125.481 3.01853 125.763 1.14812C127.567 -2.107 132.587 0.40225 131.641 3.98391C130.594 4.68065 130.418 4.50601 128.989 4.57271L128.314 4.39656Z" fill="#F9C672"/>
<path d="M166.701 119.414C165.816 118.367 165.726 118.321 165.402 117.029C166.345 114.777 170.123 116.865 170.948 118.71C170.87 121.332 168.834 120.47 167.324 119.844L166.701 119.414Z" fill="#F9C672"/>
<path d="M172.711 126.683C172.061 125.863 171.835 125.695 171.635 124.653C172.798 121.402 178.127 123.019 176.058 126.599C174.962 127.216 174.872 127.382 173.618 126.919C173.229 126.687 173.206 126.753 172.711 126.683Z" fill="#F9C672"/>
<path d="M188.816 147.224C189.085 146.318 188.66 145.668 188.317 144.817C188.651 143.8 188.343 144.162 189.205 143.642C191.1 143.723 192.333 145.229 192.93 146.904C192.805 147.941 193.033 147.532 192.245 148.183C190.582 148.059 190.357 147.314 189.382 147.536L188.816 147.224Z" fill="#F9C672"/>
<path d="M138.533 22.2652C139.879 19.1995 141.14 16.1488 143.084 13.4058C141.992 17.5408 140.137 20.9481 139.048 25.2401C138.74 23.2081 139.528 24.2741 138.533 22.2652Z" fill="#EDC676"/>
<path d="M112.353 25.6279C111.864 23.0216 111.705 21.4226 112.046 18.719C112.424 19.43 112.847 23.481 113.001 24.578L112.353 25.6279Z" fill="#DAB98C"/>
<path d="M128.314 4.39673L128.989 4.57288C128.599 5.85267 127.784 8.28492 127.523 9.50225L126.839 8.5114C127.238 7.09639 127.785 5.76839 128.314 4.39673Z" fill="#EDC676"/>
<path d="M156.728 19.4659C157.405 18.6321 157.597 18.0324 158.375 17.9363C158.312 18.959 157.848 19.4623 157.157 20.3491L156.728 19.4659Z" fill="#DAB98C"/>
</g>
<defs>
<clipPath id="clip0_119_541">
<rect width="250" height="250" fill="white"/>
</clipPath>
</defs>
</svg>
