<svg width="250" height="250" viewBox="0 0 250 250" fill="none" xmlns="http://www.w3.org/2000/svg">
<g clip-path="url(#clip0_119_611)">
<path d="M55.6243 92.1886C54.0782 85.2064 53.9774 78.5908 58.6758 72.6496C65.108 64.5184 76.6125 61.4806 86.3411 64.8097C90.7151 66.3056 93.3279 68.6036 96.675 71.6741C98.9687 70.4695 101.162 69.399 103.613 68.4923C121.948 61.7196 135.422 78.3813 133.962 95.7632C133.732 98.49 133.097 100.438 132.25 103.056C134.852 104.791 136.099 106.677 138.436 108.572C138.512 109.659 139.51 111.08 140.142 112.022C141.667 115.502 141.631 119.312 142.607 122.104C142.162 125.224 142.312 126.916 141.602 130.288C138.633 138.269 134.328 142.986 125.438 144.207L125.061 144.724C123.86 144.292 118.216 144.707 116.449 144.691C116.193 149.156 113.46 156.043 109.256 158.076C107.515 159.12 107.997 160.037 108.087 162.073C107.884 161.019 107.91 159.988 107.275 159.392C101.816 161.363 99.2767 162.485 93.4179 162.783C82.3983 163.337 70.1891 159.359 67.1768 147.444C66.384 144.308 66.3886 141.572 66.3251 138.347C62.96 138.675 59.5501 139.005 56.3268 137.801C44.7231 133.453 37.2872 118.301 41.5351 106.516C44.2311 99.0334 48.8051 95.4817 55.6243 92.1886Z" fill="#B7F2F9"/>
<path d="M87.6545 98.4148C90.997 98.4835 91.2517 99.9926 92.4953 102.667C97.498 99.0302 99.9361 99.4459 99.2588 106.12C100.984 107.207 103.19 108.765 102.693 110.988C101.542 112.219 99.8464 112.648 98.1737 113.531C96.3874 115.659 98.8421 116.713 95.1235 119.332C92.6743 119.705 91.4883 118.298 89.9066 116.749C88.1891 117.61 86.7366 118.137 84.7955 117.879C83.0697 116.661 83.7896 114.972 84.4151 113.23L85.0796 111.378C83.419 110.432 80.6759 109.286 80.9764 107.109C82.1568 105.466 84.2298 105.063 86.1055 104.638C85.8119 101.675 85.5706 100.637 87.6545 98.4148Z" fill="#8EC6F2"/>
<path d="M149.831 88.8791C143.929 84.9969 138.688 80.1915 134.312 74.6463C125.529 63.5134 122.792 51.4737 124.727 37.4667C125.447 32.2456 131.405 -0.85525 136.858 0.398472C147.526 10.6508 151.815 25.7577 155.137 39.6468L155.605 40.2589L156.113 40.02C157.825 35.0738 159.334 30.5401 164.411 27.9836C167.763 26.2781 171.674 26.0588 175.193 27.378C179.144 28.8183 181.897 31.46 184.503 34.6287C189.443 33.4175 194.209 32.9625 198.818 35.7875C202.31 37.9545 204.746 41.4767 205.535 45.5128C206.579 50.7634 205.358 54.9403 202.801 59.4413C211.689 75.8771 200.72 84.5059 184.611 83.6973C183.482 85.0362 182.388 86.411 181.082 87.5502C173.167 94.4407 161.808 91.6746 156.034 83.5926C155.815 83.2849 155.802 83.3045 155.51 83.0655C151.468 89.7892 142.263 104.67 140.142 112.022C139.51 111.08 138.511 109.659 138.436 108.572C141.385 101.665 145.549 95.0135 149.831 88.8791Z" fill="#B7F2F9"/>
<path d="M149.831 88.8791C143.929 84.9969 138.688 80.1915 134.312 74.6463C125.529 63.5134 122.792 51.4737 124.727 37.4667C125.447 32.2456 131.405 -0.85525 136.858 0.398472C147.526 10.6508 151.815 25.7577 155.137 39.6468C151.373 40.5961 151.085 39.6599 146.97 41.6731C136.318 50.8616 138.508 63.294 150.869 69.4775C151.69 69.7329 152.836 69.8737 153.049 70.6462C153.929 73.8574 153.792 79.085 154.918 82.1195L155.615 82.6891L155.51 83.0655C151.468 89.7892 142.263 104.67 140.142 112.022C139.51 111.08 138.511 109.659 138.436 108.572C141.385 101.665 145.549 95.0135 149.831 88.8791Z" fill="#52A3B3"/>
<path d="M136.859 0.398438C147.527 10.6508 151.815 25.7576 155.137 39.6468C151.373 40.5961 151.085 39.6599 146.97 41.673C144.843 32.0721 143.677 22.9818 140.161 13.5641C139.304 11.2629 136.574 2.50325 136.859 0.398438Z" fill="#56C1C2"/>
<path d="M150.869 69.4778C151.69 69.7331 152.836 69.8739 153.049 70.6464C153.929 73.8576 153.792 79.0853 154.918 82.1198C154.218 83.6975 152.263 85.6976 151.065 87.0332C152.028 80.4699 150.505 74.8364 150.869 69.4778Z" fill="#56C1C2"/>
<path d="M173.642 50.3445C174.909 50.4361 175.098 50.3805 176.139 51.153C178.025 55.2939 178.405 52.2234 181.115 53.7652C181.478 55.2251 180.097 56.3577 180.316 56.7473C181.122 58.1778 182.032 58.1254 182.297 59.9487C181.59 61.0715 182.061 60.718 180.945 61.1762C179.995 61.0388 179.282 60.7998 178.45 61.209C177.927 62.9013 177.832 63.7361 176.594 64.9963C173.648 64.3777 174.021 62.5478 172.267 62.0306C171.579 61.8309 170.467 62.7049 168.594 61.7164C167.363 59.4937 169 59.9029 169.589 57.4544C169.196 56.8291 169.062 56.6786 168.565 56.1614L168.1 55.6802C167.956 54.4756 167.89 55.0778 168.548 53.8536C170.349 53.0352 169.904 54.1417 171.704 53.7128C172.323 52.0401 172.414 51.6048 173.642 50.3445Z" fill="#8EC6F2"/>
<path d="M125.437 144.207L127.595 144.312C128.027 144.803 127.958 144.57 128.023 144.897C125.231 157.235 119.571 188.002 120.848 200.303C121.401 205.61 135.556 231.545 139.441 236.753C140.109 237.647 143.854 243.725 144.26 244.74L143.67 245.523C133.912 233.561 129.732 225.407 122.612 212.225C100.503 230.992 63.5857 211.813 47.832 193.606C44.4908 189.747 40.4167 184.873 38.7754 179.979C38.9859 177.782 42.4862 177.491 44.4276 177.016C67.1828 171.448 93.2599 177.756 110.792 193.39C113.493 195.799 115.895 199.724 118.079 201.547C113.375 188.513 109.37 175.933 108.087 162.073C107.997 160.037 107.514 159.121 109.256 158.076C113.46 156.043 116.193 149.156 116.449 144.691C118.216 144.708 123.86 144.292 125.061 144.724L125.437 144.207Z" fill="#52A3B3"/>
<path d="M38.7754 179.979C38.9859 177.782 42.4862 177.491 44.4276 177.016C67.1828 171.448 93.2599 177.756 110.792 193.39C113.493 195.799 115.895 199.724 118.079 201.547C118.733 202.333 120.288 206.791 120.861 208.189C112.478 202.886 96.8879 196.513 87.592 192.925C82.4926 190.958 42.273 178.761 38.7754 179.979Z" fill="#56C1C2"/>
<path d="M142.607 122.105C149.697 116.936 155.298 113.859 164.28 113.806C174.526 113.744 204.592 114.723 211.391 120.903C210.979 124.857 207.653 127.987 204.798 130.678C185.498 148.852 157.569 155.271 132.387 147.045C131.042 146.606 129.117 145.748 128.024 144.897C127.958 144.57 128.027 144.802 127.595 144.311L125.438 144.207C134.328 142.986 138.633 138.269 141.602 130.288C142.312 126.916 142.161 125.224 142.607 122.105Z" fill="#56C1C2"/>
<path d="M142.606 122.105C149.697 116.936 155.298 113.859 164.28 113.806C174.526 113.744 204.592 114.723 211.391 120.903C194.752 123.83 174.221 122.592 157.36 125.522C152.289 126.403 146.512 128.553 141.602 130.288C142.312 126.916 142.161 125.224 142.606 122.105Z" fill="#52A3B3"/>
<path d="M143.67 245.523L144.26 244.74C145.504 246.596 146.754 248.308 147.641 250.364L143.67 245.523Z" fill="#287273"/>
</g>
<defs>
<clipPath id="clip0_119_611">
<rect width="250" height="250" fill="white"/>
</clipPath>
</defs>
</svg>
