<svg width="24" height="24" viewBox="0 0 24 24" fill="none" xmlns="http://www.w3.org/2000/svg">
<path d="M19.1 21.9L2.10001 4.9C1.91668 4.71667 1.82501 4.48333 1.82501 4.2C1.82501 3.91667 1.91668 3.68333 2.10001 3.5C2.28335 3.31667 2.51668 3.225 2.80001 3.225C3.08335 3.225 3.31668 3.31667 3.50001 3.5L20.5 20.5C20.6833 20.6833 20.775 20.9167 20.775 21.2C20.775 21.4833 20.6833 21.7167 20.5 21.9C20.3167 22.0833 20.0833 22.175 19.8 22.175C19.5167 22.175 19.2833 22.0833 19.1 21.9ZM14 11.15L12 9.15V5C12 4.45 12.196 3.979 12.588 3.587C12.9793 3.19567 13.45 3 14 3H16C16.55 3 17.021 3.19567 17.413 3.587C17.8043 3.979 18 4.45 18 5C18 5.55 17.8043 6.02067 17.413 6.412C17.021 6.804 16.55 7 16 7H14V11.15ZM10 21C8.90001 21 7.95835 20.6083 7.17501 19.825C6.39168 19.0417 6.00001 18.1 6.00001 17C6.00001 15.9 6.39168 14.9583 7.17501 14.175C7.95835 13.3917 8.90001 13 10 13C10.3833 13 10.7373 13.0457 11.062 13.137C11.3873 13.229 11.7 13.3667 12 13.55V12L14 14V17C14 18.1 13.6083 19.0417 12.825 19.825C12.0417 20.6083 11.1 21 10 21Z" fill="currentColor"/>
</svg>
