<svg width="100" height="100" viewBox="0 0 100 100" fill="none" xmlns="http://www.w3.org/2000/svg">
<g clip-path="url(#clip0_233_160)">
<path d="M57.8929 0.294256C59.0502 -0.594186 60.6067 0.71104 60.9368 1.79816C63.3605 9.75336 59.8172 21.8679 57.1741 29.3763L57.678 29.5667L57.7767 29.3773C58.5756 27.8184 59.1177 26.0418 59.8382 24.388C62.4027 18.4888 65.2439 12.3461 69.6097 7.54523C70.0662 7.04295 71.5342 5.72882 72.1888 5.62433C76.7113 4.90299 74.3499 12.1138 73.9075 14.2835C75.2398 13.1021 78.768 9.65648 80.9349 11.6888C81.4553 12.1781 81.3284 13.8939 81.1946 14.5482C79.4468 21.6625 72.1105 29.5819 67.0794 34.5521C69.0678 33.5352 70.9403 32.1482 72.8538 30.9759C77.3338 28.2218 82.0728 25.7034 87.1771 24.3226C88.7644 23.8927 91.7926 23.1111 92.6878 25.0853C93.5043 26.8883 91.1053 28.0576 90.7308 29.4359C91.9381 29.7588 95.0081 28.5212 96.1692 30.3792C96.4563 30.8372 96.4663 31.5637 96.2845 32.0618C95.1413 35.1832 89.5897 38.0604 86.7415 39.5579C85.7819 40.0629 83.6613 40.9524 82.7161 41.2972C85.7516 41.2968 98.7564 40.2462 99.9905 45.0091C100.104 45.4511 99.1007 46.4997 98.7405 46.7278C92.2168 50.8625 81.4076 50.0887 73.9261 49.8685C70.8514 49.7779 67.5761 48.9993 64.5442 48.8968L64.3538 49.2054C68.2186 50.4359 72.449 51.1612 76.3548 52.6068C82.1634 54.7558 90.3226 57.2831 94.1624 62.5169C94.8008 63.3893 94.4372 64.78 93.3655 65.1761C89.6453 66.5522 85.2436 64.5916 81.6429 63.8265C79.1871 63.0232 76.9767 61.9862 74.594 61.0765C76.7663 62.5921 80.0896 64.217 82.014 65.8519C84.5357 67.6845 86.813 69.5658 88.9603 71.8333C90.9719 73.958 93.1422 77.8757 88.1292 77.3919C86.139 77.1997 84.4965 76.5769 82.6204 75.929C82.9307 76.4975 83.2588 77.1197 83.5638 77.681C86.4846 83.0579 83.7044 84.7099 78.8411 81.7249C70.4428 76.571 63.9112 68.2691 58.4271 60.2435C58.1612 60.44 57.5681 60.8517 57.3685 61.0677L57.4466 61.2581C58.3347 63.3874 60.4039 66.6842 61.6487 68.7308C63.6789 72.0703 73.5238 91.6562 68.3128 93.7093C64.4714 93.8103 60.6823 86.1411 59.0755 83.1653C59.7532 87.466 61.2039 94.91 58.6751 98.9886C57.095 101.538 53.9615 96.5187 53.4105 95.1429C49.396 85.1423 49.2874 74.2959 49.3997 63.682L48.0442 63.7366C46.5444 73.5996 44.8247 83.58 40.3519 92.6048C37.7801 97.7922 33.6095 98.3632 33.7825 91.8568C34.0483 81.9091 38.6241 71.3139 43.0862 62.4847L41.5062 61.7767C40.3648 63.2434 38.9041 65.7998 37.7288 67.473C34.499 72.1365 31.2747 76.3178 27.2923 80.43C25.9137 81.8521 16.5661 90.8489 16.5374 83.803C16.6605 82.7245 17.0962 81.3711 17.5706 80.4153C21.9312 71.6296 30.2934 64.4739 37.5823 58.2825L37.4671 58.3245C34.865 59.2927 32.8153 60.6762 30.0599 62.055C22.7906 65.6931 14.05 70.5168 5.69463 69.9183C4.71386 69.8479 3.60447 68.4514 4.07842 67.4105C5.56402 64.1602 9.15081 62.4214 12.1595 60.8138C12.7016 60.5777 13.2065 60.4377 13.5364 59.9759C13.1423 59.7352 12.7619 59.8955 12.1966 59.9642C9.73367 60.1648 4.65884 60.5978 2.48467 59.2396C-0.789744 57.1921 3.19059 54.8333 5.1292 53.9134C9.16861 51.9954 13.3792 51.2336 17.7503 50.3948C18.8097 50.3849 19.9211 50.2141 20.9769 50.0804C19.9157 49.9312 18.7191 49.8546 17.6419 49.762C15.2574 49.601 -0.668416 47.512 0.0217801 43.9466C1.0777 38.4911 16.2865 41.2382 20.5472 41.2689C14.4497 39.6173 8.04871 37.5385 2.74834 33.8655C1.80846 33.188 0.611164 31.8633 0.534475 30.6546C0.392022 28.3641 4.6229 28.5372 6.096 28.4759C5.04733 27.4046 3.8717 25.7754 4.70635 24.2611C5.3716 23.0411 8.26642 23.4341 9.40069 23.7064C16.6609 25.4516 23.1649 29.8567 29.1536 34.1507C31.4524 35.7994 33.4054 37.6956 35.681 39.2611L36.6663 37.8802C36.8152 37.7184 36.9654 37.5593 37.1175 37.4036C36.9653 37.5594 36.8143 37.7183 36.6653 37.8802C31.0545 32.5864 19.2543 19.0961 17.972 11.1116C17.9007 10.6595 18.0091 9.23921 18.43 9.00226C22.3322 6.80491 29.1631 15.5632 30.679 17.4691C31.4316 18.6264 32.5227 20.4394 33.4661 21.3548L31.7073 17.5169C30.6801 14.759 28.9976 10.3822 30.0745 7.54426C31.2782 4.3731 35.2861 8.77885 36.2337 9.81379C36.0642 7.6837 34.97 0.648852 38.1605 0.218084C38.8702 0.122248 40.0346 0.771242 40.4876 1.34015C45.3849 7.45324 46.7775 17.7235 47.9261 25.262C48.1789 26.9272 48.1969 28.9757 48.3587 30.7786L48.4388 31.5345L48.5149 32.0071C49.0159 32.3198 49.6116 32.2285 50.2356 32.221L50.3216 31.7552C50.7287 29.3131 50.8314 25.2268 51.0989 22.7415C51.5287 18.7255 52.0575 14.8735 52.9974 10.8665C53.9854 7.40654 54.9038 2.5901 57.8929 0.294256ZM55.1829 33.7083C55.3429 33.7996 55.4948 33.8955 55.636 33.9984C55.4948 33.8955 55.3429 33.7996 55.1829 33.7083Z" fill="white"/>
<path d="M48.3749 30.3052L48.457 30.8102C48.9936 31.1445 49.6314 31.0468 50.2998 31.0388C52.0719 31.4051 54.604 31.864 56.0821 32.9388L56.4983 32.9555C61.7497 36.2226 65.0171 40.6352 65.3551 46.9184C65.3856 47.4916 65.3073 48.4753 65.6205 48.8643L65.4162 49.194C64.4786 54.7524 63.1247 57.0133 59.0706 60.9929C58.7861 61.2029 58.1502 61.6422 57.9363 61.8732L57.816 61.9182C54.0025 63.359 54.0369 63.8405 49.4042 64.6676L47.9529 64.7267C46.3297 64.2428 44.3151 63.8001 42.6442 63.3884L40.9523 62.6314C35.7487 59.3256 32.5596 55.6836 32.0307 49.2026C31.685 44.9448 32.6952 42.2138 34.7156 38.5642L35.7697 37.0883C38.3247 34.3167 41.3094 32.3733 45.0179 31.4678C46.1273 31.1968 47.2998 31.2667 48.1763 30.9032L48.3749 30.3052Z" fill="#FDDC59"/>
<path d="M57.6464 48.7918C58.6862 48.7524 61.1545 48.5595 60.8994 50.1859C60.4803 50.7751 60.1414 50.8803 59.5047 51.1877C58.3384 51.4196 56.0734 51.4016 56.2196 49.7363C56.5353 49.1718 57.0489 49.0377 57.6464 48.7918Z" fill="#FBA978"/>
<path d="M40.6783 45.9293C41.1991 45.8751 41.6699 45.8374 42.1925 45.8806C43.2233 45.9687 44.1703 46.4861 44.7999 47.3061C45.178 47.7997 45.2065 48.0241 45.128 48.5501L44.8284 48.6694C44.0116 48.4617 43.8047 47.5759 42.6722 47.1328C40.0898 46.7962 39.4442 48.9125 38.3135 48.6839C38.5186 47.2523 39.5316 46.5892 40.6783 45.9293Z" fill="#533415"/>
<path d="M54.9194 45.2467C56.537 45.0898 59.8203 45.5179 59.287 47.8297L58.9464 47.9855C58.1385 47.2634 57.6962 46.839 56.7474 46.2802C53.5871 46.1778 54.5145 48.1437 52.5884 48.2403C51.9838 46.8816 53.9724 45.707 54.9194 45.2467Z" fill="#533415"/>
<path d="M38.4138 49.9046C40.0528 49.8149 40.3452 49.6637 41.6953 50.5269C41.9628 51.0304 41.945 50.8165 41.7988 51.307C41.3511 51.8166 40.9391 51.8968 40.306 52.114C39.3055 52.1889 37.0994 52.3399 37.0762 50.8924C37.4293 50.3351 37.8324 50.1981 38.4138 49.9046Z" fill="#FBA978"/>
<path d="M50.4573 48.6616C50.8069 48.8401 50.8051 48.8948 51.0173 49.2178C51.1975 50.4835 50.1595 51.1861 49.0234 51.3401C48.2155 51.4496 47.6395 50.8589 47.0688 50.37C46.7905 49.7466 46.91 49.5155 47.092 48.9908C47.8624 48.935 48.0568 49.886 49.0859 50.1724C49.7868 49.8238 50.0132 49.2901 50.4573 48.6616Z" fill="#533415"/>
</g>
<defs>
<clipPath id="clip0_233_160">
<rect width="100" height="100" fill="white"/>
</clipPath>
</defs>
</svg>
