<svg width="100" height="100" viewBox="0 0 100 100" fill="none" xmlns="http://www.w3.org/2000/svg">
<path d="M38.8699 2.00036C39.4706 1.98471 40.3288 2.47602 40.6883 2.9281C46.2714 9.948 48.0186 26.5353 48.0311 34.8392C48.6295 34.7953 49.1185 34.8256 49.6121 34.5131C50.9309 25.5091 51.3842 9.98848 57.991 2.432C58.1827 2.21205 58.9744 2.1036 59.2752 2.21716C61.7111 3.13978 61.4751 6.34169 61.6405 8.46228C62.2675 18.2314 57.9235 26.7232 54.9559 35.6449C54.9856 35.6551 55.0151 35.6658 55.0448 35.6761C55.6904 34.851 56.2571 34.0315 56.8328 33.1449C61.3704 26.1553 66.0483 19.0371 72.5223 13.6615C73.91 12.5085 76.9105 9.97876 78.8328 11.1078C80.1659 11.8909 79.4819 14.6727 79.0106 15.8275C77.8269 18.733 75.8941 21.3464 74.1424 23.9486C76.6663 21.8655 81.1214 19.0325 84.4754 18.681C85.833 18.5392 86.9129 19.6037 86.6209 20.9603C85.7309 25.0947 80.9384 29.1529 77.908 31.7045C76.2425 33.0378 74.5588 34.3491 72.8563 35.6371C73.6354 35.2726 77.1572 33.6504 77.6004 33.3246C79.0864 32.7688 96.4997 25.6721 94.0028 32.8656C93.2131 35.1408 86.4095 39.0063 83.7889 40.1302C82.5083 40.7012 78.8571 42.0885 78.034 42.6742C80.0037 42.2452 82.3625 41.5953 84.2918 41.3461C88.2772 40.8117 92.4758 40.3225 96.4735 40.8646C97.5868 41.0157 99.9521 41.5324 99.9979 42.9623C100.066 45.0608 97.687 46.1119 96.1287 46.8558C97.5287 47.6235 100.239 48.6989 99.0516 50.6517C98.1386 52.1517 95.6939 52.6907 94.076 53.1C87.2978 54.4458 79.8038 53.8117 73.0028 52.8705C70.4896 52.5229 67.9165 51.7946 65.4139 51.5795H65.4129L65.1444 53.1302C65.3216 53.331 65.2324 53.3119 65.4149 53.3295C70.2339 54.5934 96.0474 63.6692 94.4451 69.8295C94.329 70.2823 94.0195 70.6612 93.5975 70.8646C90.7552 72.2135 84.466 69.8238 81.5711 68.8295C79.8248 67.9989 77.7934 66.9716 76.0418 66.2328C77.3152 67.3764 79.7769 69.1224 80.6756 70.1703C81.8716 71.2703 87.491 76.4764 84.3533 78.1146C82.9321 78.8564 80.0357 77.9274 78.5848 77.2748C80.1483 79.4488 82.5471 82.6611 82.2674 85.5033C82.1371 86.8194 80.9258 87.3643 79.7791 86.8959C71.1823 83.3801 61.9836 71.6564 57.7098 63.7211L55.9813 64.557C58.9712 71.784 63.4262 80.311 64.4832 88.182C64.849 90.2134 66.1047 98.3036 61.8699 96.6722C61.5762 96.5585 60.7935 95.8105 60.5789 95.5599C55.9887 90.1657 54.2121 82.9482 52.5379 76.2523C52.275 74.61 51.6584 71.7277 51.2254 70.1674C51.2026 70.0187 51.1805 69.8494 51.159 69.6654C51.1805 69.8495 51.2026 70.0187 51.2254 70.1674L50.8865 70.3412C51.026 72.244 51.3171 76.949 51.6805 78.7025C52.2152 83.443 52.0383 92.2645 50.1844 96.7211C49.9355 97.3034 49.2742 98.2789 48.6219 98.3968C45.6036 98.9421 44.4748 93.3366 43.952 91.4672C42.158 96.6709 37.9911 100.312 37.1043 92.3568C36.358 85.6613 38.3624 76.3436 40.5311 69.8715C39.9109 70.706 39.4657 71.7891 38.9735 72.7123C36.305 77.7164 33.4133 82.5242 29.6834 86.8148C26.115 90.9196 20.6846 94.6319 22.3865 85.6908C21.678 86.1346 20.9309 86.6932 20.1912 87.0619C15.6409 89.3291 15.4254 86.2978 16.7547 82.723C17.8671 79.7317 19.4806 77.5077 21.2635 74.9388C22.1633 73.7658 22.8629 72.8479 23.8758 71.7728C22.2456 72.5238 21.0106 73.5487 19.3358 74.3109C17.6907 75.2975 6.45942 80.9327 6.72639 75.9593C6.84303 73.7868 10.3033 70.5719 12.1698 69.1801C15.278 66.1775 24.6617 61.4873 28.8709 59.6986C30.0182 59.211 35.2611 57.2572 35.6297 56.7474C34.5025 56.3084 12.6521 63.0569 4.68147 59.432C3.95 59.0993 3.02797 58.4715 2.78596 57.6605C2.65357 57.217 2.76102 56.7794 3.01448 56.4017C4.69253 53.9029 10.7152 52.5489 13.534 51.9818C16.2288 51.4244 19.0845 51.4457 21.66 50.8607C19.614 50.7705 17.5668 50.7021 15.5194 50.6547C14.4725 50.4329 13.3517 50.5001 12.0643 50.2865C9.73131 49.8991 -2.12845 48.4614 0.334791 44.309C1.3206 42.6484 5.56636 42.2739 7.72346 41.9896C6.07406 41.0193 3.81224 39.7965 2.89241 38.0609C2.38553 37.1044 2.81944 35.8599 3.9178 35.5883C11.7464 33.6511 20.6487 37.5659 27.869 40.3597C30.539 41.393 33.1803 42.9137 35.786 44.0531L36.4813 42.7123C36.375 42.6587 36.2691 42.6048 36.1639 42.5492C29.5373 39.0012 14.1583 29.2879 11.1004 21.9037C10.9288 21.4082 10.8825 20.5802 11.2117 20.1478C12.7935 18.0713 16.1054 19.8198 17.9998 20.6732C20.1162 21.6266 22.2653 23.029 24.2293 24.3236C23.2604 22.8393 11.6901 8.18124 20.4178 9.6029C21.7759 9.8241 24.2924 11.9023 25.4315 12.9496C32.778 19.7063 37.4023 28.344 42.078 36.9955L43.2449 36.2386C42.6496 34.9559 41.9508 32.7242 41.4578 31.3138C39.1175 24.618 36.9863 17.2774 36.3563 10.2064C36.1795 8.22153 35.9838 4.13204 37.3846 2.62146C37.7996 2.17402 38.2799 2.01584 38.8699 2.00036ZM65.1082 47.4584H65.1092H65.1082Z" fill="white"/>
<path d="M49.6003 33.8594C50.0887 34.2372 52.491 34.3469 53.3008 34.5228C59.4003 35.8435 64.1753 40.6129 65.5295 46.7351C65.9049 48.3793 66.0234 49.9552 65.9742 51.6425L65.6953 53.2583C65.8794 53.4679 65.7864 53.4483 65.976 53.4666L65.5933 53.6145C63.5429 59.5782 62.9123 60.3109 57.9914 64.2946L56.1999 65.1651C54.1732 65.7218 52.8358 66.0352 50.7291 66.296L50.3309 66.2568C41.393 66.92 33.6277 58.446 33.9341 49.7416C34.0095 47.5999 34.6348 45.8083 35.2724 43.8004L35.9932 42.4035C38.1257 39.3381 38.7968 38.6224 41.7923 36.4461L43.0016 35.6575C44.6411 35.1256 46.2949 34.6394 47.9613 34.1994C48.5817 34.1536 49.0885 34.1853 49.6003 33.8594Z" fill="#FDDC59"/>
<path d="M56.5987 45.4074C57.5995 45.2743 58.609 45.5553 59.3952 46.1851C60.519 47.085 61.0185 48.5563 60.672 49.9538C60.3273 51.3515 59.1999 52.4206 57.7859 52.6926C56.5618 52.9279 55.3042 52.5312 54.4372 51.6376C53.4663 50.6366 53.1415 49.174 53.5982 47.8566C54.0555 46.5392 55.2163 45.5918 56.5987 45.4074Z" fill="#533415"/>
<path d="M41.7786 45.4697C43.3753 45.1003 45.0245 45.8286 45.8265 47.2576C46.6287 48.6867 46.3913 50.4733 45.2439 51.6435C44.7776 52.119 44.1912 52.4594 43.547 52.6286C42.2599 52.9665 40.8907 52.5851 39.9638 51.6307C39.0372 50.6761 38.6963 49.2966 39.0721 48.0204C39.448 46.7444 40.4823 45.7697 41.7786 45.4697Z" fill="#533415"/>
<path d="M58.3751 53.3551C59.4445 53.297 60.2974 53.399 61.1118 54.1221C61.3791 54.7257 61.3598 54.4704 61.2085 55.0832C60.8198 55.6388 60.3836 55.7568 59.7681 56.0215C59.4902 56.0257 59.2123 56.0206 58.9344 56.006C57.851 55.9481 57.4148 55.7922 56.6638 54.9515C56.5073 54.3767 56.4915 54.6211 56.7676 54.0276C57.3533 53.5258 57.6241 53.5165 58.3751 53.3551Z" fill="#FBA978"/>
<path d="M40.1365 53.3267C41.2259 53.3323 43.3269 53.4981 42.8809 55.0572C42.4016 55.6113 42.1003 55.6844 41.4375 55.9531C40.1131 56.0409 39.2926 56.0512 38.329 54.9915C38.058 53.7003 39.1058 53.5931 40.1365 53.3267Z" fill="#FBA978"/>
<path d="M51.8147 51.8457C53.6264 53.11 50.2772 56.3554 47.8564 53.6285C47.638 53.1003 47.4007 52.4692 47.7284 51.9373C48.5997 52.049 49.1898 53.814 50.4835 53.5817C51.1413 53.1399 51.4148 52.5334 51.8147 51.8457Z" fill="#533415"/>
<circle cx="41.677" cy="47.9485" r="1.32009" fill="white"/>
<circle cx="56.0095" cy="47.9485" r="1.32009" fill="white"/>
</svg>
