<svg width="100" height="100" viewBox="0 0 100 100" fill="none" xmlns="http://www.w3.org/2000/svg">
<path d="M28 67.4328C28.2059 66.488 28.1752 65.3454 28.262 64.353C29.426 51.0372 36.5205 36.4891 47.621 28.7459C50.3152 26.8661 60.8268 21.7313 63.2182 25.1424C65.3264 28.1488 63.6796 34.6253 62.9374 38.0387C65.1738 36.5211 69.7429 35.6812 72.0367 37.414C73.1732 41.3684 71.3091 45.7551 69.3706 49.1615C67.1672 53.0316 63.1059 59.3195 60.2164 62.5452C56.6104 66.5722 48.2326 72.8771 43.2264 74.7717C43.3522 74.3835 44.7108 72.8906 45.2174 71.8542C40.7252 73.3947 39.0711 77.1301 33.4338 74.3786C32.7009 73.9831 32.3339 73.5339 31.8069 72.9064C31.8068 71.9689 31.9905 70.9509 31.9874 69.8327C30.9405 69.0734 29.1583 68.048 28 67.4328Z" fill="#F4BB56"/>
<path d="M60.5036 31.5906C62.74 30.073 67.3091 29.2332 69.6029 30.966C70.7394 34.9203 68.8753 39.307 66.9368 42.7134C64.7334 46.5835 60.6721 52.8715 57.7826 56.0972C54.1766 60.1241 45.7988 66.4291 40.7926 68.3236C40.9184 67.9354 42.277 66.4425 42.7836 65.4061C38.2914 66.9466 36.6373 70.682 31 67.9305C31.4702 67.651 32.0751 67.4325 32.5053 67.203C37.8788 64.3392 45.9917 56.6836 49.9224 51.9846C51.6265 49.9418 53.1561 47.7596 54.4952 45.4612C57.4762 40.3752 58.5871 36.9363 60.5036 31.5906Z" fill="#F3A62C"/>
</svg>
