<svg width="100" height="100" viewBox="0 0 100 100" fill="none" xmlns="http://www.w3.org/2000/svg">
<path d="M36.1405 15.0532C46.255 10.9634 57.5759 10.983 67.6759 15.1082C81.0998 20.7131 92.3054 31.8405 97.9075 45.2233C99.6743 49.4448 101.331 55.1676 98.3923 59.1883C94.5651 61.4956 89.0922 61.2845 84.597 61.3071C88.093 64.2726 93.9187 68.4493 95.0014 73.1704C95.295 74.4433 93.1161 77.0532 92.2003 77.9705C76.2294 93.9548 43.6646 91.608 27.5081 77.0854C26.7793 76.4304 25.2406 74.8564 24.7213 74.1301C20.1779 68.9685 15.9386 60.9817 12.531 54.9365C9.78165 50.0584 8.26449 45.2149 4.20133 40.8974C2.94139 39.5586 0.865368 36.6311 0 35.0648C1.81019 33.7721 6.97062 31.2526 9.19369 30.0548C13.9377 27.4712 18.6284 24.7922 23.2634 22.0192C26.5697 19.4622 32.3197 16.7539 36.1405 15.0532Z" fill="#F4D6D9"/>
<path d="M23.2634 22.019C25.1126 23.0921 24.2817 23.6451 26.9441 23.7953L27.2161 23.6055C29.3463 23.514 53.035 22.1899 48.1832 29.802C47.4091 31.0164 35.1693 33.4536 31.961 34.4089C29.5599 34.6988 25.522 36.1281 22.9946 36.7444C18.8725 37.7491 15.37 38.1876 11.1299 38.2396L11.3303 38.5381C13.1289 41.1746 16.5756 43.9092 18.9336 47.0734L17.9791 47.0841C17.8466 47.896 18.5913 50.3342 18.8092 51.2321C19.7968 55.3024 20.897 61.5681 23.4312 65.0156C24.264 66.3663 26.9735 71.1368 26.7181 72.5489C26.0346 73.0528 25.3685 73.5801 24.7213 74.1299C20.1779 68.9683 15.9386 60.9816 12.531 54.9363C9.78164 50.0582 8.26449 45.2148 4.20133 40.8972C2.94139 39.5584 0.865368 36.631 0 35.0647C1.81019 33.7719 6.97062 31.2524 9.19369 30.0546C13.9377 27.4711 18.6284 24.792 23.2634 22.019Z" fill="#E79EAF"/>
<path d="M11.1299 38.2397C15.37 38.1876 18.8724 37.7491 22.9946 36.7444C25.522 36.1281 29.5598 34.6989 31.9609 34.4089C30.6393 35.1669 30.277 35.6175 29.2498 36.686L29.5598 36.8501C33.1094 38.7004 49.7749 43.2092 49.5282 47.6482C47.0781 49.5138 28.7348 43.3975 24.8039 42.4797C23.1979 42.1047 19.1514 41.4919 17.5414 41.107C17.7075 40.6468 17.5982 40.8603 17.8656 40.4647C17.0364 40.1442 16.1968 39.85 15.3487 39.582L15.4594 39.3932L16.4697 39.2993L16.0099 39.2803C14.8125 39.2256 13.4461 39.0657 12.253 38.9241C16.2036 42.9276 17.0924 41.9422 21.5129 44.3013C27.0814 47.273 33.7321 51.0678 38.0136 55.6948C38.0699 56.0791 38.1163 56.3935 38.1521 56.6381C37.7478 57.5336 38.0713 57.2198 37.1254 57.5845C34.0278 57.3547 30.6929 53.9054 28.8571 54.2739C29.1108 56.77 44.4413 68.7007 44.3589 72.1015C40.143 73.358 24.889 63.0712 23.8039 63.0671C23.1742 63.7604 23.3064 64.0689 23.4311 65.0156C20.897 61.5682 19.7967 55.3024 18.8091 51.2322C18.5912 50.3342 17.8465 47.896 17.979 47.0842L18.9335 47.0734C16.5755 43.9092 13.1289 41.1746 11.3303 38.5382L11.1299 38.2397Z" fill="#EEB8C4"/>
<path d="M36.1403 15.0532C38.2036 15.982 37.7466 15.9871 40.023 16.4725C36.7102 18.266 29.6095 21.0164 27.0982 22.977C27.0796 23.4844 27.0039 23.2851 27.2159 23.6056L26.9439 23.7955C24.2815 23.6453 25.1124 23.0923 23.2632 22.0192C26.5695 19.4622 32.3195 16.7539 36.1403 15.0532Z" fill="#EEB8C4"/>
</svg>
