<svg width="100" height="100" viewBox="0 0 100 100" fill="none" xmlns="http://www.w3.org/2000/svg">
<path d="M49.8924 20.6689C48.9891 16.6549 50.4334 7.42432 52.5903 3.77898C55.8059 -1.65531 61.2676 -0.434981 65.8015 2.49229C72.2038 6.62569 74.5101 12.2115 75.9956 19.4979C76.6529 22.7706 76.8787 26.1153 76.6671 29.4466C77.0266 29.3305 77.4199 28.5857 77.6783 28.2658C78.7698 26.9149 80.5479 24.289 82.0713 23.4091C86.5551 20.8191 91.3716 25.0201 92.3982 29.0709C94.9601 39.1793 90.8316 50.6401 83.276 57.5588C82.3534 58.3935 78.3883 61.1547 79.2084 62.6335C80.907 65.6968 85.8678 66.1384 85.5802 70.5677C84.7431 71.8415 83.4751 72.9492 83.7173 74.1818C84.1847 76.5584 85.9061 80.1227 86.3936 82.2882C86.0654 83.1629 85.8441 83.6057 85.2754 84.3591C83.1788 83.4819 80.6269 82.384 78.4739 81.6707C78.2144 81.2982 74.6856 78.0627 74.1032 77.6078C73.4653 77.1079 72.0685 76.3558 71.2969 75.6084C70.7341 76.6409 70.1068 77.6357 69.4185 78.5892C64.2634 85.7166 49.586 98.4222 40.546 99.8549C38.4158 100.196 35.9814 99.9932 34.2113 98.6272C31.5649 96.5976 30.7578 93.1837 30.2246 90.0731C29.3531 84.9899 32.4523 78.3441 35.4539 74.2958C27.6977 77.9863 13.9383 77.1103 8.36929 69.6226C7.72439 68.7552 7.46447 67.6221 7 66.7134V63.3711C7.21527 62.9635 7.42734 62.0937 7.62955 61.6084C10.4773 54.777 18.6796 49.712 25.7319 48.6202C22.3714 45.0219 18.4162 37.9103 17.8619 32.9569C17.6333 29.5316 17.5829 24.8849 19.5825 21.9356C20.9112 19.9758 23.3485 21.654 24.6296 22.7898C23.2744 20.3401 22.199 17.4301 23.3491 14.6808C23.8328 13.5243 24.7575 12.8591 25.6942 12.0924C28.1603 11.8022 29.713 11.6749 32.144 12.2515C37.6511 13.5575 42.6819 16.205 47.4349 19.2137C48.1073 19.6394 49.0565 20.5479 49.7511 20.8227L49.8924 20.6689Z" fill="#F4BB56"/>
<path d="M25.6941 12.0923C28.1602 11.8021 29.713 11.6748 32.144 12.2514C37.651 13.5574 42.6819 16.2049 47.4348 19.2136C48.1073 19.6393 49.0565 20.5478 49.751 20.8226L49.8924 20.6688C49.8989 20.7024 49.9055 20.7361 49.9119 20.7698C51.0069 31.0557 54.7916 40.7708 58.41 50.378C58.5733 50.8123 58.6294 51.2284 58.5654 51.687C56.3555 49.1563 53.4945 45.461 50.362 43.9724C49.9642 43.7832 49.2095 44.488 49.4206 44.8532C50.8967 47.4021 54.2298 49.7702 55.3821 52.5095C54.0158 52.552 52.5457 51.2442 51.5483 51.613C49.5725 50.2142 45.2109 47.288 42.5157 48.4502C42.1073 48.6261 42.0746 49.0956 41.985 49.5008L41.9184 48.8045C41.0601 48.1494 31.917 47.8885 30.4904 48.0669C29.487 48.1918 26.7205 48.3665 25.7319 48.6201C22.3713 45.0218 18.4162 37.9102 17.8618 32.9568C17.6332 29.5315 17.5828 24.8848 19.5824 21.9355C20.9111 19.9757 23.3484 21.6539 24.6296 22.7897C23.2743 20.34 22.1989 17.43 23.349 14.6807C23.8327 13.5242 24.7574 12.859 25.6941 12.0923Z" fill="#F3A62C"/>
<path d="M76.6675 29.4464C77.027 29.3303 77.4203 28.5855 77.6787 28.2656C78.7702 26.9147 80.5483 24.2888 82.0717 23.4089C86.5555 20.8189 91.372 25.0199 92.3986 29.0707C94.9605 39.1791 90.832 50.6399 83.2764 57.5586C82.3537 58.3933 78.3887 61.1545 79.2088 62.6333C80.9074 65.6966 85.8682 66.1382 85.5806 70.5675C84.7435 71.8413 83.4755 72.949 83.7177 74.1815C84.1851 76.5582 85.9065 80.1225 86.394 82.288C86.0657 83.1627 85.8445 83.6055 85.2758 84.3588C83.1792 83.4817 80.6272 82.3838 78.4743 81.6705C78.2148 81.298 74.686 78.0625 74.1035 77.6075C73.4656 77.1077 72.0689 76.3556 71.2973 75.6082C71.3644 75.4906 71.3893 75.4287 71.4465 75.311C74.8074 68.4165 73.7755 63.0883 71.1895 56.1501C73.7749 48.415 75.9036 40.9988 76.4319 32.8063C76.4807 32.0492 76.7989 30.0368 76.6675 29.4464Z" fill="#F3A62C"/>
<path d="M62.9374 58.3336C62.9318 57.5014 62.9476 55.8406 62.8 55.0447C62.2596 52.5541 59.8247 51.0461 58.7488 48.7265C57.3996 45.8173 57.0625 43.3971 60.2472 41.7581C60.5257 43.3995 60.7764 45.4692 61.5608 46.8825C63.5145 50.3704 66.8979 51.9463 66.3875 56.5309C65.7718 62.0617 60.1233 61.6978 56.1065 63.4253C54.4834 64.0707 51.8264 66.5347 50.0721 66.326C48.3017 66.1149 49.6386 62.5385 51.0524 62.2291C51.2695 62.1818 52.9647 61.1106 53.1193 61.0087C50.1899 59.5189 47.0924 59.4546 43.8816 59.8647C42.5916 60.0297 41.177 60.4021 39.8908 60.4482C38.4822 59.7167 40.1988 57.2139 41.7027 56.816C46.4255 55.5688 51.683 56.4617 55.9943 58.6794C56.3276 58.8505 56.5711 58.8941 56.9097 58.7667C56.7753 57.0792 51.0526 53.4543 49.3584 53.0612C46.3676 52.3672 43.7302 52.4958 41.9847 49.5005C42.0743 49.0953 42.107 48.6258 42.5154 48.4499C45.2106 47.2877 49.5722 50.2139 51.548 51.6127C52.5455 51.2439 54.0155 52.5517 55.3818 52.5092C54.2295 49.7699 50.8964 47.4017 49.4203 44.8529C49.2092 44.4877 49.9639 43.7828 50.3617 43.9721C53.4942 45.4607 56.3552 49.156 58.5651 51.6867C60.2589 54.0378 61.4847 55.843 62.9374 58.3336Z" fill="#E56901"/>
</svg>
