<svg width="100" height="100" viewBox="0 0 100 100" fill="none" xmlns="http://www.w3.org/2000/svg">
<path d="M29.6265 87.0926C29.3084 85.0416 29.4662 82.5801 29.4067 80.4389C29.2231 73.613 29.58 66.4993 33.4152 60.788C38.9262 52.5776 49.2991 48.7528 52.4076 38.4329C54.4869 31.5283 52.1154 25.9191 49.0379 19.6944C47.0596 15.6925 40.0021 6.87401 42.5494 1.81446C46.5294 -3.67548 57.6109 4.78106 60.5953 7.56539C70.0165 16.3622 73.6862 29.0691 74.7775 42.1474C76.293 58.6968 69.9001 73.1427 60.6367 85.6257C54.1998 94.2993 43.1442 102.105 32.5359 99.4855C30.5162 99.435 25.6698 98.6891 25 96.1775C25.1733 94.4773 27.6146 92.5495 28.9645 90.9639C29.2179 89.7394 29.4196 88.3439 29.6265 87.0926Z" fill="#F1C9CF"/>
<path d="M29.6265 87.0926C30.1774 86.0352 29.7248 82.7714 29.9886 81.4072C30.0274 85.2457 30.6481 89.9376 28.3852 92.8093C29.2024 93.6749 30.8317 93.7556 30.9842 93.9801C32.3963 96.0522 32.4532 98.1592 34.5712 99.3186L32.5359 99.4854C30.5162 99.435 25.6698 98.6891 25 96.1774C25.1733 94.4772 27.6146 92.5494 28.9645 90.9639C29.2179 89.7394 29.4196 88.3438 29.6265 87.0926Z" fill="#E79EAF"/>
<path d="M43.6885 74.553C44.994 80.0375 39.4724 82.9662 41.3688 89.5039L44.6853 84.9765L45.0557 86.2655C44.4119 89.377 42.339 91.6131 40.4779 94.1131C38.2464 95.7008 38.017 96.0995 35.3886 96.6731L33.9244 95.517C33.5893 91.0526 41.0954 79.8267 43.6885 74.553Z" fill="#EEB8C4"/>
<path d="M38.3702 74.9624C37.4788 82.4996 30.5707 90.938 27.228 94.215C27.228 95.1709 27.748 97.2463 29.8279 97.9018C32.4277 98.721 38.3702 96.2632 40.2272 95.0343C42.0843 93.8054 41.3414 90.5284 40.2272 91.7573C39.113 92.9862 36.8846 94.215 35.0275 94.215C33.1705 94.215 33.9133 94.215 36.8846 90.5284C39.2616 87.5791 40.1034 80.0145 40.2272 76.6009C39.9796 72.9142 39.2616 67.4252 38.3702 74.9624Z" fill="#E79EAF"/>
</svg>
