<svg width="100" height="100" viewBox="0 0 100 100" fill="none" xmlns="http://www.w3.org/2000/svg">
<g clip-path="url(#clip0_233_43)">
<path d="M53.7045 0.604528C54.3748 -0.23226 55.9167 -0.221838 56.4985 0.770544C59.2573 5.47663 58.6534 12.8275 58.0014 17.9356C57.9055 18.7056 57.7989 19.4743 57.6811 20.2412C58.6359 18.0933 59.074 15.7045 59.8451 13.4912C61.2573 9.43985 62.7316 5.30491 65.392 1.88187C66.819 0.0459099 69.1667 -0.603535 70.0151 2.1348C70.3207 3.1845 70.2925 4.72555 70.2397 5.8809C71.4412 4.89134 73.474 3.01817 74.8998 4.6807C75.6509 5.5565 75.6758 6.92687 75.4916 8.01371C73.9515 15.7744 69.1286 23.229 64.6069 29.5703C63.3034 31.3985 61.0821 33.77 60.0776 35.4766V35.4776C60.6009 35.9478 60.8374 36.2036 61.4946 36.4971C65.0389 32.5544 85.832 13.3045 90.3696 18.1143C91.8503 21.7048 84.546 27.8347 82.0707 29.96C80.6256 30.9935 79.1243 32.0341 77.7641 33.1709C79.2315 32.5439 80.371 31.9898 81.7895 31.2559C83.9111 30.5745 95.2303 26.058 92.269 32.6446C91.9166 33.4281 89.8814 35.2721 89.103 35.9912C91.3752 35.4866 97.5846 34.2013 99.1615 37.1748C99.3231 37.6556 98.953 38.8049 98.6381 39.1299C93.7334 44.1925 85.4481 45.4005 78.933 46.9834C75.3993 47.8418 70.2964 47.5924 67.2416 48.459C67.2516 49.1866 67.2562 49.518 67.1557 50.2471C76.3363 50.4356 91.2807 51.1492 99.0131 56.8975C99.8099 57.5867 100.049 59.0855 99.0483 59.6973C94.7651 62.3149 88.8842 60.8539 84.2885 60.5147C78.3119 60.0736 72.3419 57.0567 66.8842 56.1446C66.9219 56.1728 66.9593 56.2013 66.9975 56.2286C68.7165 57.4489 71.3169 57.9889 73.2895 58.7774C77.8025 60.5816 93.0725 66.8916 94.1264 71.8692C94.2422 72.4159 94.209 73.2473 93.8432 73.7041C93.3709 74.2938 92.4683 74.3968 91.7621 74.4248C89.7153 74.5064 87.6338 73.9722 85.6928 73.376C86.9227 74.8919 90.4194 79.3882 88.352 80.5205C84.0058 82.9006 72.7849 73.7308 70.3979 71.7911C68.7891 70.282 66.9024 68.4491 65.1801 67.1114C66.5422 68.815 68.4121 72.2995 69.3569 73.3487C71.8929 77.8321 75.1666 83.3246 76.1254 88.4161C77.2362 94.3148 73.2318 92.5742 70.3383 90.2364C70.7874 92.336 71.3874 98.6178 67.1254 95.7803C64.8148 94.2417 61.9053 89.6675 60.6957 87.0762C59.9948 85.6132 59.3947 84.1973 58.7641 82.7022C58.7009 87.9882 59.6659 94.646 56.6342 99.3975C55.9495 100.471 54.2568 99.9447 53.7016 99.1133C49.319 92.5489 49.8253 81.617 50.019 74.1787C50.2856 71.0861 50.5363 67.9916 50.7719 64.8965C49.4346 67.9788 49.2727 70.4884 48.2016 73.4717C46.5819 78.8265 42.7396 90.9539 37.7914 94.3789C37.4908 94.5935 36.2608 95.1167 35.934 94.8282C31.6896 91.079 37.828 77.2018 39.1049 74.1875C37.8952 75.8963 37.0537 77.867 35.9194 79.6426C33.3999 83.586 30.1016 88.4839 26.1733 91.169C25.669 91.5223 24.5894 91.9854 23.9897 91.7315C21.1575 90.5311 23.3846 84.9553 23.978 83.0577C22.4914 84.0383 20.4605 85.3098 18.6557 85.3164C18.3778 85.3447 17.3111 85.2016 17.183 84.878C14.7238 78.6624 28.5196 67.3287 31.4692 64.6211C33.3554 62.9306 37.2344 60.2303 39.4135 58.6231C39.0906 58.1273 38.9513 57.9667 38.5444 57.5352C36.2795 58.5817 34.253 60.1496 31.7856 61.503C25.1645 65.1344 15.5015 71.034 7.70354 70.25C7.30971 70.201 6.4131 69.7468 6.29338 69.3418C5.12058 65.3739 14.18 60.9241 16.5776 59.6162C12.0263 60.3085 4.93061 62.0444 0.542405 59.4571C0.262533 59.2598 0.0199503 58.9207 0.00334217 58.5782C-0.135566 55.7032 4.08986 54.2471 6.27678 53.4551C13.0957 50.9853 20.3005 50.119 27.5053 49.7754C30.2826 49.6428 33.0786 49.7882 35.8832 49.6319C35.9241 49.0791 35.9733 48.9077 35.8207 48.3887L35.4106 48.2637C32.3348 47.5528 29.0714 47.4667 25.9574 46.8643C20.8659 45.8794 5.77689 42.5637 3.05412 38.2305C2.71335 37.6883 2.49183 37.0218 2.66936 36.3809C2.81192 35.8666 3.26107 35.5303 3.70354 35.2774C9.01215 32.2429 23.7715 37.6782 29.0141 39.8555C31.5015 40.8886 34.1251 42.4986 36.724 43.1309C36.7887 43.1468 36.8535 43.1618 36.9184 43.1768L37.7026 41.5791C36.8278 41.2296 35.0844 40.0674 34.2045 39.5391C28.1541 35.8791 22.626 31.59 17.5209 26.6534C15.7281 24.7531 11.0987 20.2096 13.1098 17.4795C13.8115 16.5273 17.4386 17.5718 18.3832 18.0323C27.1382 22.2987 34.364 30.0557 40.6684 37.2569C39.7655 34.7036 38.0409 32.511 36.7826 29.9043C33.5077 23.1192 28.5654 14.3204 28.8266 6.63871C28.8736 5.97323 29.3064 4.94126 29.8842 4.62308C32.8414 2.99451 36.4585 9.45789 37.6889 11.3741L39.0473 14.1114C38.816 11.9596 38.7348 10.206 38.6723 8.03617C38.7187 6.36489 38.7605 5.35244 39.1176 3.71488C39.7548 0.793672 42.0523 0.69209 43.6215 3.03812C47.0339 8.14034 47.9892 14.7536 49.1723 20.6836C49.3911 14.8658 49.862 5.40197 53.7045 0.604528Z" fill="white"/>
<path d="M37.2385 41.3089C41.9471 33.7848 49.633 30.2513 58.1177 33.9509C58.8784 34.2826 59.6086 34.6533 60.3751 34.9761C60.9165 35.4643 61.1607 35.7303 61.8403 36.0349C65.8178 40.2367 67.2315 42.534 67.7836 48.4485C67.7939 49.2036 67.7982 49.5473 67.6943 50.304C65.2421 65.2487 49.1311 69.9722 39.0073 58.9958C38.6734 58.4813 38.5302 58.3156 38.1094 57.8678C38.0756 57.7144 37.1627 55.8322 37.0209 55.5168C36.0526 53.3619 35.7351 51.9669 35.3577 49.6658C35.3999 49.0919 35.4501 48.9143 35.2923 48.3755L34.8682 48.2453L35.2163 48.1626C35.5631 47.8112 36.1578 44.0246 36.428 42.9666L37.2385 41.3089Z" fill="#FDDC59"/>
<path d="M49.6588 47.2319C49.9855 47.3194 50.328 47.1245 50.3489 46.7869C50.3858 46.1906 50.2476 45.5917 49.9445 45.0666C49.5384 44.3632 48.8695 43.85 48.085 43.6398C47.3005 43.4296 46.4646 43.5396 45.7612 43.9457C45.2361 44.2489 44.817 44.6985 44.5508 45.2333C44.4001 45.5361 44.5992 45.8762 44.926 45.9637V45.9637C45.2527 46.0513 45.5812 45.8478 45.7709 45.5677C45.9253 45.3396 46.1306 45.1469 46.3737 45.0065C46.7957 44.7629 47.2972 44.6968 47.7679 44.823C48.2386 44.9491 48.64 45.2571 48.8836 45.6791C49.024 45.9222 49.1054 46.1917 49.1251 46.4664C49.1493 46.8038 49.3321 47.1443 49.6588 47.2319V47.2319Z" fill="#533415"/>
<path d="M60.0118 50.0058C60.3386 50.0933 60.6811 49.8984 60.7019 49.5608C60.7388 48.9646 60.6007 48.3656 60.2975 47.8405C59.8914 47.1372 59.2225 46.6239 58.438 46.4137C57.6535 46.2035 56.8176 46.3135 56.1142 46.7196C55.5891 47.0228 55.17 47.4724 54.9038 48.0072C54.7531 48.31 54.9523 48.6501 55.279 48.7376V48.7376C55.6057 48.8252 55.9342 48.6217 56.1239 48.3416C56.2783 48.1135 56.4836 47.9208 56.7267 47.7805C57.1487 47.5368 57.6503 47.4708 58.121 47.5969C58.5917 47.723 58.993 48.031 59.2367 48.453C59.377 48.6961 59.4584 48.9656 59.4781 49.2404C59.5023 49.5778 59.6851 49.9182 60.0118 50.0058V50.0058Z" fill="#533415"/>
<path d="M49.8024 50.8369C49.5573 50.7713 49.3005 50.9174 49.2848 51.1706C49.2571 51.6179 49.3608 52.0671 49.5881 52.4609C49.8927 52.9884 50.3944 53.3733 50.9827 53.531C51.5711 53.6887 52.198 53.6061 52.7256 53.3015C53.1194 53.0742 53.4337 52.737 53.6334 52.3358C53.7464 52.1087 53.5971 51.8537 53.352 51.788V51.788C53.107 51.7224 52.8606 51.875 52.7183 52.0851C52.6025 52.2561 52.4486 52.4007 52.2662 52.5059C51.9497 52.6887 51.5736 52.7382 51.2205 52.6436C50.8675 52.549 50.5665 52.318 50.3838 52.0015C50.2785 51.8192 50.2174 51.6171 50.2026 51.411C50.1845 51.1579 50.0474 50.9026 49.8024 50.8369V50.8369Z" fill="#533415"/>
<ellipse cx="43.2443" cy="49.8722" rx="3.06237" ry="1.53118" transform="rotate(15 43.2443 49.8722)" fill="#FBA978"/>
<ellipse cx="59.5139" cy="54.2316" rx="3.06237" ry="1.53118" transform="rotate(15 59.5139 54.2316)" fill="#FBA978"/>
</g>
<defs>
<clipPath id="clip0_233_43">
<rect width="100" height="100" fill="white"/>
</clipPath>
</defs>
</svg>
