<svg width="100" height="100" viewBox="0 0 100 100" fill="none" xmlns="http://www.w3.org/2000/svg">
<path d="M26.2294 5H29.7319C30.3593 5.28095 31.6368 5.81971 32.1362 6.18409C34.9268 8.22047 37.0652 11.2064 39.0587 13.9889C39.628 14.7837 40.3426 15.691 40.7174 16.5595C42.3714 14.3596 44.2121 12.1578 46.4617 10.5273C46.867 10.2335 47.2556 9.98877 47.6505 9.66831C49.1082 9.48559 50.7865 9.35912 51.9985 10.4221C54.6322 12.7318 55.3552 19.2648 55.8032 22.5993C55.9983 24.0517 56.4784 28.0097 56.3591 29.1108C58.1434 28.236 59.8463 27.6362 61.7869 27.2039C65.1803 26.448 76.5131 25.3309 79.5678 26.3781C80.8963 26.8334 81.9259 27.7041 82.5371 28.9741C84.2206 32.4742 82.8421 41.9511 81.5514 45.5602C80.3986 48.7832 78.1698 51.273 75.8873 53.753C76.2886 53.9109 77.4146 53.5749 77.8989 53.4859C79.5739 53.1775 81.266 53.1325 82.9617 53.0229C85.8749 52.9091 90.1507 52.2917 91.9001 55.2395C92.9078 56.9381 91.3816 59.0179 90.3593 60.2953C91.2474 61.2273 92.5515 62.2781 92.4844 63.6454C92.4222 64.9061 91.6646 65.923 90.7509 66.7397C86.0469 70.55 79.0359 73.2298 73.2315 74.7355C71.7932 75.1088 69.0276 75.3101 67.6088 75.4124C70.422 78.7404 74.7271 83.7153 73.5023 88.3264C67.687 91.6218 52.4855 85.8548 46.7082 83.1192C45.973 83.5621 45.3839 84.2014 44.7267 84.7295C42.3127 86.6692 38.7945 91.1741 36.0057 92.3826C35.3639 92.3824 34.1216 93.036 33.3134 93.2183C32.0031 93.5139 30.2476 93.2235 29.1456 93.8436C28.8546 94.1559 28.8924 94.3944 28.8615 94.8329C28.6353 95.021 28.7639 94.9592 28.452 94.9996C28.1635 94.8994 27.8813 94.7885 27.6103 94.6468C23.018 92.2442 15.6094 77.5473 14.0153 72.2556C13.4384 70.3405 12.9124 67.8802 13.9361 66.0267C15.2407 63.6647 17.2196 63.7075 19.4768 63.0305C19.4989 63.0237 19.5209 63.0167 19.5429 63.0098C14.4524 59.1713 12.1404 55.8993 8.96065 50.3047C6.91336 46.7026 6.47797 42.7295 7.61421 38.7382C8.18721 36.7255 9.67077 34.8554 11.5729 33.9154C13.7919 32.819 15.6001 33.2995 17.8043 34.0067C17.7917 33.7096 16.9658 30.1271 16.8254 29.3526C15.8226 23.8209 15.5355 18.9122 17.2768 13.4753C18.3054 10.2639 19.7872 7.88432 22.9035 6.23875C23.7423 5.79585 25.3002 5.52305 26.159 5.0399C26.1824 5.0266 26.2058 5.0133 26.2294 5Z" fill="#F4BB56"/>
<path d="M26.2292 5H29.7318C30.3592 5.28095 31.6367 5.81971 32.136 6.18409C34.9266 8.22047 37.065 11.2064 39.0585 13.9889C39.6279 14.7837 40.3425 15.691 40.7173 16.5595C42.3712 14.3596 44.212 12.1578 46.4615 10.5273C46.8668 10.2335 47.2555 9.98877 47.6504 9.66831C49.1081 9.48559 50.7863 9.35912 51.9983 10.4221C54.632 12.7318 55.3551 19.2648 55.803 22.5993C55.9981 24.0517 56.4783 28.0097 56.359 29.1108C55.0227 29.7003 53.8321 30.4904 52.5858 31.1867C48.9855 33.1985 46.6893 34.9499 44.2348 38.1979C41.4869 41.8341 42.0516 43.4448 42.6301 47.7366C42.6743 48.0642 42.8058 49.36 42.9573 49.5676C41.75 49.7931 41.6283 50.6355 41.8994 51.6547C42.7591 54.8872 44.2745 58.4912 42.7777 61.7561C40.2359 60.1257 39.288 57.7963 38.4217 55.0377C37.9644 53.5811 36.8291 48.2243 34.7653 48.4103C34.0322 48.8553 33.6138 50.386 33.783 51.17C34.0995 52.6362 34.7824 53.9102 35.1033 55.392C34.8029 54.9095 34.3268 54.3793 33.9682 53.8496C29.8955 47.8335 26.1557 41.0884 20.8453 36.0787C20.1909 35.4614 18.5956 34.521 17.8041 34.0067C17.7916 33.7096 16.9657 30.1271 16.8253 29.3526C15.8225 23.8209 15.5353 18.9122 17.2767 13.4753C18.3053 10.2639 19.787 7.88432 22.9033 6.23875C23.7422 5.79585 25.3 5.52305 26.1588 5.0399C26.1823 5.0266 26.2057 5.0133 26.2292 5Z" fill="#F3A62C"/>
<path d="M19.5433 63.0103C21.2624 64.5946 25.1779 66.977 27.1756 68.349C28.266 69.0977 29.9956 69.9036 30.9106 70.8355L30.8075 70.9621C29.3224 72.7586 24.8087 75.2999 28.3715 78.0682C31.0041 80.1138 35.1187 78.2411 38.1145 79.2309C41.2324 80.1173 43.8121 82.1102 46.7086 83.1196C45.9733 83.5625 45.3842 84.2018 44.727 84.7299C42.313 86.6696 38.7949 91.1745 36.006 92.383C35.3642 92.3828 34.1219 93.0364 33.3137 93.2187C32.0034 93.5143 30.2479 93.2239 29.146 93.844C28.8549 94.1563 28.8927 94.3948 28.8618 94.8333C28.6357 95.0215 28.7642 94.9596 28.4523 95C28.1638 94.8998 27.8816 94.7889 27.6107 94.6472C23.0184 92.2446 15.6097 77.5477 14.0156 72.256C13.4387 70.3409 12.9127 67.8806 13.9365 66.0271C15.2411 63.6651 17.2199 63.7079 19.4771 63.0309C19.4992 63.0242 19.5212 63.0171 19.5433 63.0103Z" fill="#F3A62C"/>
<path d="M75.8875 53.7532C76.2888 53.9111 77.4148 53.5751 77.8992 53.486C79.5741 53.1776 81.2662 53.1326 82.9619 53.0231C85.8751 52.9093 90.1509 52.2919 91.9003 55.2397C92.908 56.9383 91.3818 59.0181 90.3595 60.2955C91.2476 61.2275 92.5517 62.2783 92.4846 63.6456C92.4224 64.9062 91.6648 65.9232 90.7511 66.7399C86.0471 70.5502 79.0361 73.2299 73.2317 74.7357C71.7934 75.109 69.0278 75.3102 67.609 75.4126C67.5063 75.1242 66.6356 74.3877 66.3638 74.0514C63.9458 71.0582 61.1422 69.379 57.6255 67.8857C59.3812 66.7922 61.4352 65.9146 63.1419 64.8762C67.0315 62.5095 70.7003 59.5634 73.6135 56.0547C74.2064 55.3398 75.4947 54.35 75.8875 53.7532Z" fill="#F3A62C"/>
<path d="M35.1032 55.3924C34.7824 53.9106 34.0995 52.6366 33.783 51.1704C33.6138 50.3864 34.0321 48.8558 34.7653 48.4107C36.8291 48.2247 37.9643 53.5816 38.4217 55.0381C39.288 57.7967 40.2358 60.1262 42.7777 61.7566C44.2744 58.4916 42.759 54.8876 41.8993 51.6551C41.6283 50.636 41.75 49.7935 42.9573 49.5681C47.3382 52.2755 44.0983 61.3599 45.0849 62.2844C48.545 62.1213 47.7616 55.05 47.867 52.7218C47.9258 51.424 47.4499 48.9288 49.461 48.8044C49.9404 48.7732 50.4088 48.9569 50.7392 49.3058C52.3121 50.9572 49.7639 52.9688 49.3732 54.3893C48.2637 58.4239 49.7866 63.1425 45.7758 65.9616C44.2314 67.1105 42.4067 68.1981 40.3728 67.9781L40.2025 67.8299C40.3074 67.4407 40.3491 67.4101 40.5918 67.0757C41.1451 66.3184 40.9849 64.8887 40.691 64.0483C40.0842 62.3126 39.002 61.5089 37.3911 60.7375C36.2088 58.8945 35.8615 57.4259 35.1032 55.3924Z" fill="#E56901"/>
</svg>
