<svg width="100" height="100" viewBox="0 0 100 100" fill="none" xmlns="http://www.w3.org/2000/svg">
<path d="M3.09751 79.0375C5.33273 63.5429 3.95858 49.2804 12.4507 34.9966C25.3028 13.3782 53.3596 5.93737 76.9134 10.1099C78.7726 10.4407 82.1287 11.2388 83.7012 12.1916C92.8612 16.2914 89.4658 20.1787 83.1187 25.3314C86.499 26.9155 97.5001 24.6881 99.2747 29.8135C101.237 35.476 98.828 45.3323 96.6791 50.8705C89.7042 67.6092 78.2142 77.6234 61.9737 84.612C52.0205 89.0091 41.2379 91.1849 30.3681 90.9877C28.5117 90.9695 25.5738 90.9543 23.8022 90.6599C16.7603 90.5628 9.45277 90.7722 2.48089 90.5325C1.52566 89.9377 0.858356 89.3429 0 88.6268C1.00564 85.1886 2.2313 82.8247 3.09751 79.0375Z" fill="#F3D0D4"/>
<path d="M83.7012 12.1914C92.8612 16.2911 89.4658 20.1784 83.1187 25.3312C77.6227 25.1855 73.8259 24.0961 67.9828 26.4054C66.1629 27.1246 63.5449 28.7208 61.8406 28.915C64.4087 26.4813 73.5362 24.5725 74.7887 23.471C73.8893 23.4194 72.3772 23.386 71.7042 22.8762C73.1559 22.509 74.6136 22.0508 76.0503 21.6229L74.8491 21.7837C79.9165 19.6443 82.4759 21.5045 86.9759 19.6261C88.3401 19.0556 88.835 18.819 89.0433 17.2865C84.9779 15.575 70.2977 21.0221 65.8309 22.6668C64.5165 23.1493 60.9952 24.788 59.9648 24.6575L60.1112 24.4056C62.9549 22.7821 81.4437 15.9482 84.1902 15.6812C85.1892 15.5841 86.5111 15.4991 87.2083 14.7222L86.9246 14.346L87.1298 14.8892C86.5715 13.8665 84.6731 13.2565 83.3753 12.5374L83.7012 12.1914Z" fill="#EEB8C4"/>
<path d="M3.90105 76.9882C3.4676 76.9882 3.09751 79.037 3.09751 79.037C2.2313 82.8242 1.00564 85.1881 0 88.6263C0.858356 89.3424 1.52566 89.9372 2.48089 90.532C9.45277 90.7717 16.7603 90.5623 23.8022 90.6594C26.1153 90.3803 31.8283 91.1966 33.2803 89.7582L32.5514 89.7764L8.23554 88.6263C7.69499 85.3762 32.171 79.2854 29.908 76.9882C28.6241 76.527 9.98218 82.0421 8.66899 82.2181C8.31949 82.2636 4.25266 82.8967 3.90105 82.6539C4.7096 81.5918 6.27558 80.0748 7.3603 79.2828C9.71927 77.5561 14.1372 67.5845 14.698 65.084C14.1176 65.4876 14.1182 66.3403 13.7536 66.9533C10.7744 71.9755 4.76794 80.039 3.85928 80.3085C4.01768 79.347 4.2478 77.3369 3.90105 76.9882Z" fill="#E79EAF"/>
</svg>
